<svg xmlns="http://www.w3.org/2000/svg" width="512" height="512" viewBox="0 0 512 512" version="1.1">
	<path d="M 122.174 2.314 L 120 4.629 120 88.314 L 120 172 112.500 172 L 105 172 105 151.674 C 105 131.721, 104.958 131.309, 102.686 129.174 C 100.406 127.033, 99.877 127, 67.360 127 L 34.349 127 32.174 129.314 C 30.018 131.610, 30 131.957, 29.971 171.564 L 29.942 211.500 14.971 228.926 L -0 246.351 -0 332.001 L -0 417.651 2.314 419.826 L 4.629 422 256.127 422 L 507.626 422 510.313 419.195 L 513 416.391 513 330.695 C 513 283.563, 512.623 245.113, 512.163 245.250 C 511.703 245.388, 504.740 237.850, 496.690 228.500 L 482.053 211.500 482.027 171.424 L 482 131.349 479.686 129.174 C 477.406 127.033, 476.877 127, 444.360 127 L 411.349 127 409.174 129.314 C 407.090 131.533, 407 132.466, 407 151.814 L 407 172 399.500 172 L 392 172 392 88.174 L 392 4.349 389.686 2.174 C 387.441 0.066, 386.639 0, 363.258 0 L 339.145 0 337.073 2.635 C 335.230 4.978, 335 6.640, 335 17.635 L 335 30 328 30 L 321 30 321 19.149 C 321 7.541, 319.890 2.546, 316.961 0.979 C 315.917 0.420, 305.064 -0, 291.677 -0 C 261.652 -0, 263.626 -1.171, 263.171 16.909 L 262.841 30 256 30 L 249.159 30 248.829 16.909 C 248.374 -1.171, 250.348 0, 220.323 0 C 206.936 0, 196.083 0.420, 195.039 0.979 C 192.110 2.546, 191 7.541, 191 19.149 L 191 30 184 30 L 177 30 177 17.635 C 177 6.640, 176.770 4.978, 174.927 2.635 L 172.855 0 148.602 0 C 124.543 0, 124.331 0.019, 122.174 2.314 M 135 93.500 L 135 172 256 172 L 377 172 377 93.500 L 377 15 364 15 L 351 15 351 25.851 C 351 37.459, 349.890 42.454, 346.961 44.021 C 345.955 44.559, 337.035 45, 327.138 45 L 309.145 45 307.073 42.365 C 305.230 40.022, 305 38.360, 305 27.365 L 305 15 292.079 15 L 279.159 15 278.829 28.091 C 278.384 45.809, 279.476 45, 256 45 C 232.524 45, 233.616 45.809, 233.171 28.091 L 232.841 15 219.921 15 L 207 15 207 27.365 C 207 38.360, 206.770 40.022, 204.927 42.365 L 202.855 45 184.862 45 C 174.965 45, 166.045 44.559, 165.039 44.021 C 162.110 42.454, 161 37.459, 161 25.851 L 161 15 148 15 L 135 15 135 93.500 M 164.736 128.250 C 162.182 130.190, 161 134.512, 161 141.916 C 161 153.164, 163.254 157, 169.862 157 C 171.904 157, 173.513 156.163, 174.927 154.365 C 176.702 152.110, 177 150.330, 177 142 C 177 133.670, 176.702 131.890, 174.927 129.635 C 172.633 126.718, 167.646 126.040, 164.736 128.250 M 250.861 128.912 C 248.635 130.714, 248.500 131.460, 248.500 142 C 248.500 152.540, 248.635 153.286, 250.861 155.088 C 252.159 156.140, 254.472 157, 256 157 C 257.528 157, 259.841 156.140, 261.139 155.088 C 263.365 153.286, 263.500 152.540, 263.500 142 C 263.500 131.460, 263.365 130.714, 261.139 128.912 C 259.841 127.860, 257.528 127, 256 127 C 254.472 127, 252.159 127.860, 250.861 128.912 M 337.073 129.635 C 335.298 131.890, 335 133.670, 335 142 C 335 150.330, 335.298 152.110, 337.073 154.365 C 338.487 156.163, 340.096 157, 342.138 157 C 348.732 157, 351 153.161, 351 142 C 351 130.839, 348.732 127, 342.138 127 C 340.096 127, 338.487 127.837, 337.073 129.635 M 45 174.500 L 45 207 256 207 L 467 207 467 174.500 L 467 142 444.500 142 L 422 142 422 162.326 C 422 182.279, 421.958 182.691, 419.686 184.826 L 417.371 187 255.860 187 L 94.349 187 92.174 184.686 C 90.090 182.467, 90 181.534, 90 162.186 L 90 142 67.500 142 L 45 142 45 174.500 M 62.174 159.314 C 60.227 161.388, 60 162.724, 60 172.140 C 60 181.834, 60.180 182.820, 62.314 184.826 C 65.389 187.714, 70.039 187.652, 72.826 184.686 C 74.773 182.612, 75 181.276, 75 171.860 C 75 162.166, 74.820 161.180, 72.686 159.174 C 69.611 156.286, 64.961 156.348, 62.174 159.314 M 439.174 159.314 C 437.227 161.388, 437 162.724, 437 172.140 C 437 181.834, 437.180 182.820, 439.314 184.826 C 442.389 187.714, 447.039 187.652, 449.826 184.686 C 451.773 182.612, 452 181.276, 452 171.860 C 452 162.166, 451.820 161.180, 449.686 159.174 C 446.611 156.286, 441.961 156.348, 439.174 159.314 M 33.146 231.450 C 28.666 236.648, 25 241.148, 25 241.450 C 25 241.753, 128.950 242, 256 242 C 383.050 242, 487 241.753, 487 241.450 C 487 241.148, 483.334 236.648, 478.854 231.450 L 470.707 222 256 222 L 41.293 222 33.146 231.450 M 0.478 332 C 0.478 379.575, 0.600 399.038, 0.750 375.250 C 0.899 351.463, 0.899 312.538, 0.750 288.750 C 0.600 264.963, 0.478 284.425, 0.478 332 M 15 332 L 15 407 22.456 407 L 29.912 407 30.206 368.250 L 30.500 329.500 33.440 323.513 C 37.184 315.887, 43.887 309.184, 51.513 305.440 C 56.926 302.782, 58.459 302.500, 67.500 302.500 C 76.541 302.500, 78.074 302.782, 83.487 305.440 C 91.113 309.184, 97.816 315.887, 101.560 323.513 L 104.500 329.500 104.794 368.250 L 105.088 407 112.544 407 L 120 407 120 386.674 C 120 366.721, 120.042 366.309, 122.314 364.174 C 125.389 361.286, 130.039 361.348, 132.826 364.314 C 134.910 366.533, 135 367.466, 135 386.814 L 135 407 157.556 407 L 180.113 407 179.806 370.250 C 179.526 336.639, 179.341 333.201, 177.633 330 C 173.173 321.640, 166.681 317.660, 157.500 317.660 C 145.444 317.660, 137.270 325.029, 135.478 337.513 C 135.076 340.310, 133.859 343.488, 132.707 344.750 C 129.889 347.835, 125.042 347.738, 122.034 344.537 C 119.962 342.331, 119.775 341.389, 120.245 335.531 C 121.250 323.012, 129.502 311.337, 141.513 305.440 C 146.926 302.782, 148.459 302.500, 157.500 302.500 C 166.541 302.500, 168.074 302.782, 173.487 305.440 C 181.113 309.184, 187.816 315.887, 191.560 323.513 L 194.500 329.500 194.794 368.250 L 195.088 407 202.501 407 L 209.913 407 210.207 356.750 L 210.500 306.500 214.215 298.720 C 222.803 280.735, 239.510 271.001, 259.637 272.257 C 276.197 273.290, 290.320 283.087, 297.785 298.720 L 301.500 306.500 301.793 356.750 L 302.087 407 309.499 407 L 316.912 407 317.206 368.250 L 317.500 329.500 320.440 323.513 C 324.184 315.887, 330.887 309.184, 338.513 305.440 C 343.926 302.782, 345.459 302.500, 354.500 302.500 C 363.541 302.500, 365.074 302.782, 370.487 305.440 C 378.113 309.184, 384.816 315.887, 388.560 323.513 L 391.500 329.500 391.794 368.250 L 392.088 407 399.500 407 L 406.912 407 407.206 368.250 L 407.500 329.500 410.440 323.513 C 414.184 315.887, 420.887 309.184, 428.513 305.440 C 433.926 302.782, 435.459 302.500, 444.500 302.500 C 453.541 302.500, 455.074 302.782, 460.487 305.440 C 468.113 309.184, 474.816 315.887, 478.560 323.513 L 481.500 329.500 481.794 368.250 L 482.088 407 489.544 407 L 497 407 497 332 L 497 257 256 257 L 15 257 15 332 M 249.500 287.894 C 243.188 289.592, 238.925 292.023, 234.500 296.447 C 229.315 301.632, 226.382 307.641, 225.392 315.103 L 224.716 320.199 230.779 315.588 C 238.297 309.870, 252.723 302.039, 255.779 302.017 C 259.809 301.987, 277.694 312.049, 284.889 318.393 L 287.279 320.500 286.611 316 C 284.769 303.581, 279.038 295.056, 269.502 290.544 C 263.670 287.785, 254.449 286.564, 249.500 287.894 M 62.500 317.898 C 55.551 319.676, 50.883 323.409, 47.367 330 C 45.659 333.201, 45.474 336.639, 45.194 370.250 L 44.887 407 67.500 407 L 90.113 407 89.806 370.250 C 89.511 334.842, 89.421 333.354, 87.347 329.500 C 83.575 322.491, 77.862 318.595, 69.987 317.662 C 67.519 317.370, 64.150 317.476, 62.500 317.898 M 349.500 317.898 C 342.551 319.676, 337.883 323.409, 334.367 330 C 332.659 333.201, 332.474 336.639, 332.194 370.250 L 331.887 407 354.500 407 L 377.113 407 376.806 370.250 C 376.511 334.842, 376.421 333.354, 374.347 329.500 C 370.575 322.491, 364.862 318.595, 356.987 317.662 C 354.519 317.370, 351.150 317.476, 349.500 317.898 M 439.500 317.898 C 432.551 319.676, 427.883 323.409, 424.367 330 C 422.659 333.201, 422.474 336.639, 422.194 370.250 L 421.887 407 444.500 407 L 467.113 407 466.806 370.250 C 466.511 334.842, 466.421 333.354, 464.347 329.500 C 460.575 322.491, 454.862 318.595, 446.987 317.662 C 444.519 317.370, 441.150 317.476, 439.500 317.898 M 246.471 323.829 C 236.006 330.629, 229.437 336.887, 226.872 342.500 C 225.231 346.090, 225.042 349.604, 225.022 376.750 L 225 407 256 407 L 287 407 287 376.968 C 287 342.824, 286.974 342.683, 279.204 334.617 C 275.245 330.508, 257.779 318, 256 318 C 255.693 318, 251.405 320.623, 246.471 323.829 M 139.294 467.372 C 114.431 484.003, 93.168 498.443, 92.044 499.460 C 89.226 502.010, 89.358 507.048, 92.314 509.826 L 94.629 512 256.140 512 L 417.651 512 419.826 509.686 C 422.691 506.636, 422.656 501.947, 419.750 499.298 C 418.512 498.170, 397.141 483.692, 372.258 467.124 L 327.017 437 255.758 437.067 L 184.500 437.134 139.294 467.372 M 156.002 474.566 L 122.505 497 256 497 L 389.495 497 355.754 474.500 L 322.013 452 255.757 452.066 L 189.500 452.133 156.002 474.566" stroke="none" fill="currentColor" fill-rule="evenodd"/>
</svg>