<svg xmlns="http://www.w3.org/2000/svg" width="512" height="512" viewBox="0 0 512 512" version="1.1">
	<path d="M 2.174 2.314 L 0 4.629 0 256.140 L 0 507.651 2.314 509.826 C 4.514 511.892, 5.524 512, 22.640 512 C 40.111 512, 40.716 511.931, 42.800 509.713 L 44.948 507.427 45.224 399.463 L 45.500 291.500 48.655 284.841 C 52.417 276.901, 58.124 271.069, 65.840 267.279 C 70.823 264.832, 72.636 264.500, 81 264.500 C 89.376 264.500, 91.173 264.831, 96.190 267.294 C 103.515 270.891, 111.189 279.218, 113.929 286.541 C 115.976 292.010, 116 293.321, 116 397.888 C 116 472.565, 116.325 504.634, 117.105 506.872 C 117.713 508.616, 119.033 510.483, 120.039 511.021 C 121.045 511.559, 129.928 512, 139.779 512 C 156.717 512, 157.794 511.886, 159.595 509.895 C 161.437 507.860, 161.517 504.204, 162 399.145 L 162.500 290.500 165.125 285 C 169.019 276.843, 174.140 271.548, 181.771 267.792 C 187.917 264.766, 189.228 264.500, 197.979 264.505 C 206.451 264.509, 208.082 264.816, 212.786 267.290 C 220.303 271.244, 225.189 276.018, 229.101 283.232 L 232.500 289.500 233 398.839 L 233.500 508.177 235.861 510.089 C 237.987 511.810, 239.986 512, 256 512 C 272.014 512, 274.013 511.810, 276.139 510.089 L 278.500 508.177 279 398.839 L 279.500 289.500 282.899 283.232 C 286.811 276.018, 291.697 271.244, 299.214 267.290 C 303.918 264.816, 305.549 264.509, 314.021 264.505 C 322.772 264.500, 324.083 264.766, 330.229 267.792 C 337.860 271.548, 342.981 276.843, 346.875 285 L 349.500 290.500 350 399.145 C 350.483 504.204, 350.563 507.860, 352.405 509.895 C 354.206 511.886, 355.283 512, 372.221 512 C 382.072 512, 390.955 511.559, 391.961 511.021 C 392.967 510.483, 394.287 508.616, 394.895 506.872 C 395.675 504.634, 396 472.565, 396 397.888 C 396 293.321, 396.024 292.010, 398.071 286.541 C 400.811 279.218, 408.485 270.891, 415.810 267.294 C 420.827 264.831, 422.624 264.500, 431 264.500 C 439.365 264.500, 441.176 264.832, 446.164 267.281 C 453.702 270.983, 459.635 277.080, 463.405 285 L 466.500 291.500 466.776 399.463 L 467.052 507.427 469.200 509.713 C 471.285 511.933, 471.883 512, 489.487 512 L 507.626 512 510.313 509.195 L 513 506.391 513 254.636 C 513 112.946, 512.621 3.116, 512.134 3.417 C 511.657 3.712, 510.462 3.063, 509.479 1.976 C 507.706 0.018, 505.419 0, 256.019 0 L 4.349 0 2.174 2.314 M 0.492 256 C 0.492 394.875, 0.608 451.688, 0.750 382.250 C 0.892 312.813, 0.892 199.188, 0.750 129.750 C 0.608 60.313, 0.492 117.125, 0.492 256 M 15 22.500 L 15 30 27.826 30 C 39.939 30, 40.772 30.129, 42.826 32.314 C 45.714 35.389, 45.652 40.039, 42.686 42.826 C 40.560 44.822, 39.334 45, 27.686 45 L 15 45 15 75 L 15 105 22.400 105 L 29.801 105 31.014 99.750 C 35.223 81.545, 50.026 66.272, 68.131 61.453 C 75.263 59.555, 87.347 59.621, 94.068 61.595 C 112.115 66.896, 126.449 81.540, 130.323 98.634 L 131.652 104.500 139.158 104.789 L 146.664 105.078 147.860 99.733 C 150.856 86.349, 161.611 72.143, 173.575 65.770 C 184.193 60.113, 198.639 58.453, 210.458 61.531 C 228.311 66.181, 243.581 81.966, 247.278 99.589 L 248.413 105 256 105 L 263.587 105 264.722 99.589 C 267.430 86.678, 278.159 72.392, 289.811 66.182 C 301.212 60.105, 315.303 58.365, 327.465 61.533 C 345.091 66.124, 360.122 81.780, 364.140 99.733 L 365.336 105.078 372.842 104.789 L 380.348 104.500 381.677 98.634 C 385.569 81.461, 399.801 66.921, 417.932 61.595 C 424.083 59.788, 436.291 59.540, 443 61.085 C 460.770 65.178, 476.754 81.447, 480.986 99.750 L 482.199 105 489.600 105 L 497 105 497 75 L 497 45 280.674 45 L 64.349 45 62.174 42.686 C 59.286 39.611, 59.348 34.961, 62.314 32.174 L 64.629 30 280.814 30 L 497 30 497 22.500 L 497 15 256 15 L 15 15 15 22.500 M 72.024 76.544 C 60.734 79.700, 52.029 87.352, 47.783 97.853 C 45.511 103.473, 45.499 103.773, 45.211 160.750 L 44.923 218 80.461 218 L 116 218 115.994 161.250 C 115.991 127.424, 115.595 103.081, 115.013 100.986 C 110.044 83.103, 89.779 71.580, 72.024 76.544 M 190.355 75.989 C 179.815 78.203, 170.147 86.117, 165.301 96.500 L 162.500 102.500 162.219 160.250 L 161.938 218 197.500 218 L 233.062 218 232.781 159.750 L 232.500 101.500 229.721 95.840 C 228.192 92.728, 225.113 88.297, 222.879 85.995 C 215.201 78.084, 201.076 73.738, 190.355 75.989 M 307.355 76.039 C 297.073 78.074, 287.160 85.901, 282.281 95.836 L 279.500 101.500 279.219 159.750 L 278.938 218 314.500 218 L 350.062 218 349.781 160.250 L 349.500 102.500 346.620 96.266 C 341.856 85.951, 332.468 78.511, 321.201 76.123 C 315.275 74.867, 313.337 74.856, 307.355 76.039 M 422.033 76.542 C 411.729 79.423, 404.451 85.430, 399.195 95.393 L 396.500 100.500 396.219 159.250 L 395.939 218 431.508 218 L 467.077 218 466.789 160.750 L 466.500 103.500 464.087 97.507 C 457.626 81.457, 438.520 71.932, 422.033 76.542 M 15 169 L 15 218 22.500 218 L 30 218 30 169 L 30 120 22.500 120 L 15 120 15 169 M 132 169 L 132 218 139 218 L 146 218 146 169 L 146 120 139 120 L 132 120 132 169 M 249 169 L 249 218 256 218 L 263 218 263 169 L 263 120 256 120 L 249 120 249 169 M 366 169 L 366 218 373 218 L 380 218 380 169 L 380 120 373 120 L 366 120 366 169 M 482 169 L 482 218 489.500 218 L 497 218 497 169 L 497 120 489.500 120 L 482 120 482 169 M 15 263.500 L 15 293 22.481 293 C 29.828 293, 29.973 292.951, 30.571 290.250 C 33.139 278.649, 37.711 270.454, 45.924 262.729 C 62.335 247.294, 83.548 244.072, 103.621 253.966 C 116.879 260.501, 126.652 272.646, 130.370 287.206 L 131.722 292.500 139.361 292.792 C 146.140 293.051, 147.002 292.882, 147.021 291.292 C 147.069 287.253, 152.081 275.641, 156.373 269.625 C 167.371 254.214, 186.443 246.035, 204.848 248.837 C 221.407 251.359, 236.157 262.164, 243.291 277 C 245.275 281.125, 247.203 286.413, 247.577 288.750 L 248.256 293 256 293 L 263.744 293 264.423 288.750 C 264.797 286.413, 266.725 281.125, 268.709 277 C 275.850 262.149, 290.486 251.452, 307.229 248.850 C 325.498 246.009, 344.637 254.225, 355.627 269.625 C 359.919 275.641, 364.931 287.253, 364.979 291.292 C 364.998 292.882, 365.860 293.051, 372.639 292.792 L 380.278 292.500 381.630 287.206 C 388.288 261.130, 414.654 244.022, 440.119 249.253 C 450.819 251.450, 458.161 255.244, 465.966 262.607 C 474.295 270.464, 478.852 278.611, 481.429 290.250 C 482.027 292.951, 482.172 293, 489.519 293 L 497 293 497 263.500 L 497 234 256 234 L 15 234 15 263.500 M 15 358 L 15 407 22.500 407 L 30 407 30 358 L 30 309 22.500 309 L 15 309 15 358 M 132 358 L 132 407 139 407 L 146 407 146 358 L 146 309 139 309 L 132 309 132 358 M 249 358 L 249 407 256 407 L 263 407 263 358 L 263 309 256 309 L 249 309 249 358 M 366 358 L 366 407 373 407 L 380 407 380 358 L 380 309 373 309 L 366 309 366 358 M 482 358 L 482 407 489.500 407 L 497 407 497 358 L 497 309 489.500 309 L 482 309 482 358 M 15 437 L 15 452 22.500 452 L 30 452 30 437 L 30 422 22.500 422 L 15 422 15 437 M 132 437 L 132 452 139 452 L 146 452 146 437 L 146 422 139 422 L 132 422 132 437 M 249 437 L 249 452 256 452 L 263 452 263 437 L 263 422 256 422 L 249 422 249 437 M 366 437 L 366 452 373 452 L 380 452 380 437 L 380 422 373 422 L 366 422 366 437 M 482 437 L 482 452 489.500 452 L 497 452 497 437 L 497 422 489.500 422 L 482 422 482 437 M 15 482 L 15 497 22.500 497 L 30 497 30 482 L 30 467 22.500 467 L 15 467 15 482 M 132 482 L 132 497 139 497 L 146 497 146 482 L 146 467 139 467 L 132 467 132 482 M 249 482 L 249 497 256 497 L 263 497 263 482 L 263 467 256 467 L 249 467 249 482 M 366 482 L 366 497 373 497 L 380 497 380 482 L 380 467 373 467 L 366 467 366 482 M 482 482 L 482 497 489.500 497 L 497 497 497 482 L 497 467 489.500 467 L 482 467 482 482" stroke="none" fill="currentColor" fill-rule="evenodd"/>
</svg>