<svg xmlns="http://www.w3.org/2000/svg" width="512" height="512" viewBox="0 0 512 512" version="1.1">
	<path d="M 50.302 10.302 L 40 20.605 40 74.302 L 40 128 30.455 128 C 21.653 128, 20.718 128.191, 18.455 130.455 L 16 132.909 16 159.870 L 16 186.831 24 198.939 L 32 211.047 32 245.887 L 32 280.728 27.261 282.538 C 20.548 285.102, 12.856 293.096, 10.154 300.319 C 8.079 305.863, 8 307.562, 8 346.491 L 8 386.907 20 402.959 L 32 419.011 32 444.517 L 32 470.024 24 486 C 19.600 494.787, 16 503.127, 16 504.534 C 16 505.940, 17.105 508.195, 18.455 509.545 L 20.909 512 256 512 L 491.091 512 493.545 509.545 C 494.895 508.195, 496 505.925, 496 504.500 C 496 503.076, 494.200 494.751, 492 486 C 488.725 472.973, 488 468.362, 488 460.551 L 488 451.011 500 434.959 L 512 418.907 512 378.491 C 512 339.562, 511.921 337.863, 509.846 332.319 C 507.144 325.096, 499.452 317.102, 492.739 314.538 L 488 312.728 488 302.819 C 488 293.631, 487.821 292.730, 485.545 290.455 C 482.298 287.207, 477.702 287.207, 474.455 290.455 C 472.179 292.730, 472 293.631, 472 302.819 L 472 312.728 467.583 314.415 C 461.558 316.716, 455.022 322.707, 451.515 329.145 C 449.082 333.610, 448.527 335.955, 448.176 343.250 L 447.755 352 434.332 352 C 421.414 352, 420.817 352.092, 418.455 354.455 C 416.191 356.718, 416 357.653, 416 366.455 L 416 376 408 376 L 400 376 400 366.455 C 400 357.653, 399.809 356.718, 397.545 354.455 C 395.111 352.020, 394.936 352, 376 352 C 357.064 352, 356.889 352.020, 354.455 354.455 C 352.191 356.718, 352 357.653, 352 366.455 L 352 376 344 376 L 336 376 336 366.455 C 336 357.653, 335.809 356.718, 333.545 354.455 C 331.111 352.020, 330.936 352, 312 352 C 293.064 352, 292.889 352.020, 290.455 354.455 C 288.191 356.718, 288 357.653, 288 366.455 L 288 376 280 376 L 272 376 272 354.506 L 272 333.013 286.957 325.522 C 295.183 321.402, 302.383 317.154, 302.957 316.081 C 304.339 313.499, 304.385 246.589, 303.007 244.013 C 302.460 242.992, 295.260 238.653, 287.007 234.371 L 272 226.586 272 218.816 L 272 211.047 280 198.939 L 288 186.831 288 159.870 L 288 132.909 285.545 130.455 C 283.282 128.191, 282.347 128, 273.545 128 L 264 128 264 74.302 L 264 20.605 253.698 10.302 C 239.881 -3.514, 240.119 -3.514, 226.302 10.302 L 216 20.605 216 34.302 L 216 48 208.094 48 L 200.188 48 199.821 33.750 C 199.408 17.688, 198.403 14.616, 191.335 7.805 C 177.254 -5.764, 154.248 -1.090, 146.077 17 C 144.366 20.786, 144.040 23.602, 144.022 34.750 L 144 48 132 48 L 120 48 120 36 L 120 24 112 24 L 104 24 104 36 L 104 48 96 48 L 88 48 88 34.302 L 88 20.605 77.698 10.302 C 63.881 -3.514, 64.119 -3.514, 50.302 10.302 M 167 17.711 C 161.487 20.529, 160.003 24.672, 160.002 37.250 L 160 48 172 48 L 184 48 184 37.468 C 184 30.644, 183.501 25.742, 182.584 23.546 C 179.973 17.299, 172.950 14.669, 167 17.711 M 59.703 23.792 L 56 27.584 56 37.792 L 56 48 64 48 L 72 48 72 37.703 L 72 27.406 68.208 23.703 C 66.122 21.666, 64.188 20, 63.911 20 C 63.633 20, 61.740 21.706, 59.703 23.792 M 235.703 23.792 L 232 27.584 232 37.792 L 232 48 240 48 L 248 48 248 37.703 L 248 27.406 244.208 23.703 C 242.122 21.666, 240.188 20, 239.911 20 C 239.633 20, 237.740 21.706, 235.703 23.792 M 56 96 L 56 128 100 128 L 144 128 144 96 L 144 64 100 64 L 56 64 56 96 M 160 96 L 160 128 172 128 L 184 128 184 96 L 184 64 172 64 L 160 64 160 96 M 200 96 L 200 128 224 128 L 248 128 248 116 L 248 104 236 104 L 224 104 224 96 L 224 88 236 88 L 248 88 248 76 L 248 64 224 64 L 200 64 200 96 M 96 88 L 96 96 112 96 L 128 96 128 88 L 128 80 112 80 L 96 80 96 88 M 32 160 L 32 176 152 176 L 272 176 272 160 L 272 144 256 144 L 240 144 240 152 L 240 160 232 160 L 224 160 224 152 L 224 144 212 144 L 200 144 200 152 L 200 160 192 160 L 184 160 184 152 L 184 144 172 144 L 160 144 160 152 L 160 160 152 160 L 144 160 144 152 L 144 144 132 144 L 120 144 120 152 L 120 160 112 160 L 104 160 104 152 L 104 144 92 144 L 80 144 80 152 L 80 160 72 160 L 64 160 64 152 L 64 144 48 144 L 32 144 32 160 M 40 192.466 C 40 192.723, 41.800 195.717, 44 199.121 L 48 205.310 48 243.019 L 48 280.728 52.417 282.415 C 58.414 284.706, 64.955 290.683, 68.534 297.145 L 71.500 302.500 71.791 344.624 L 72.081 386.748 64.541 396.880 C 60.393 402.453, 57 407.235, 57 407.506 C 57 407.778, 79.070 408, 106.045 408 L 155.091 408 157.545 410.455 C 160.793 413.702, 160.793 418.298, 157.545 421.545 L 155.091 424 101.545 424 L 48 424 48 444 L 48 464 109.545 464 L 171.091 464 173.545 466.455 C 176.793 469.702, 176.793 474.298, 173.545 477.545 L 171.091 480 108.057 480 L 45.022 480 41 488 L 36.978 496 115.276 496 L 193.575 496 196.807 482.750 C 199.280 472.616, 200.035 467.326, 200.020 460.256 L 200 451.011 188 434.959 L 176 418.907 176 378.491 C 176 339.562, 176.079 337.863, 178.154 332.319 C 180.856 325.096, 188.548 317.102, 195.261 314.538 L 200 312.728 200 302.819 C 200 293.631, 200.179 292.730, 202.455 290.455 C 204.002 288.907, 206.052 288, 208 288 C 209.948 288, 211.998 288.907, 213.545 290.455 C 215.821 292.730, 216 293.631, 216 302.819 L 216 312.728 220.417 314.415 C 226.442 316.716, 232.978 322.707, 236.485 329.145 C 238.918 333.610, 239.473 335.955, 239.824 343.250 L 240.245 352 248.122 352 L 256 352 256 304 L 256 256 244 256 L 232 256 232 248 L 232 240 244 240 L 256 240 256 222.655 L 256 205.310 260 199.121 C 262.200 195.717, 264 192.723, 264 192.466 C 264 192.210, 259.613 192.007, 254.250 192.016 L 244.500 192.031 238.500 201.221 C 229.555 214.920, 228.495 216, 223.984 216 C 221.028 216, 219.669 215.394, 218.073 213.365 C 215.043 209.513, 215.508 206.071, 220 199.121 C 222.200 195.717, 224 192.723, 224 192.466 C 224 192.210, 218.187 192, 211.082 192 L 198.165 192 195.017 201.448 C 191.099 213.208, 189.059 216, 184.382 216 C 179.985 216, 176 212.292, 176 208.202 C 176 206.613, 176.900 202.697, 178 199.500 C 179.100 196.303, 180 193.307, 180 192.843 C 180 192.380, 175.500 192, 170 192 L 160 192 160 201.545 C 160 210.347, 159.809 211.282, 157.545 213.545 C 154.298 216.793, 149.702 216.793, 146.455 213.545 C 144.191 211.282, 144 210.347, 144 201.545 L 144 192 134 192 C 128.500 192, 124 192.380, 124 192.843 C 124 193.307, 124.900 196.303, 126 199.500 C 128.660 207.232, 128.553 210.538, 125.545 213.545 C 122.362 216.729, 117.700 216.791, 114.601 213.692 C 113.331 212.422, 110.840 207.022, 109.064 201.692 L 105.835 192 92.918 192 C 85.813 192, 80 192.210, 80 192.466 C 80 192.723, 81.800 195.717, 84 199.121 C 88.871 206.658, 89.259 210.865, 85.365 213.927 C 82.296 216.342, 78.300 216.599, 75.402 214.569 C 74.279 213.782, 70.241 208.390, 66.430 202.587 L 59.500 192.035 49.750 192.018 C 44.388 192.008, 40 192.210, 40 192.466 M 122.455 234.455 C 120.035 236.874, 120 237.159, 120 254.455 L 120 272 128 272 L 136 272 136 254.455 C 136 237.159, 135.965 236.874, 133.545 234.455 C 131.998 232.907, 129.948 232, 128 232 C 126.052 232, 124.002 232.907, 122.455 234.455 M 154.455 234.455 C 152.035 236.874, 152 237.159, 152 254.455 L 152 272 160 272 L 168 272 168 254.455 C 168 237.159, 167.965 236.874, 165.545 234.455 C 163.998 232.907, 161.948 232, 160 232 C 158.052 232, 156.002 232.907, 154.455 234.455 M 272 258.489 L 272 272 280 272 L 288 272 288 262.511 L 288 253.022 280 249 L 272 244.978 272 258.489 M 272 301.511 L 272 315.022 280 311 L 288 306.978 288 297.489 L 288 288 280 288 L 272 288 272 301.511 M 33 298.188 C 27.242 301.146, 24 307.099, 24 314.712 L 24 320 40.137 320 L 56.274 320 55.769 313.705 C 55.146 305.951, 53.121 301.856, 48.496 298.998 C 43.159 295.699, 38.333 295.447, 33 298.188 M 122.455 298.455 L 120 300.909 120 332 L 120 363.091 122.455 365.545 C 124.889 367.980, 125.064 368, 144 368 C 162.936 368, 163.111 367.980, 165.545 365.545 L 168 363.091 168 332 L 168 300.909 165.545 298.455 C 163.111 296.020, 162.936 296, 144 296 C 125.064 296, 124.889 296.020, 122.455 298.455 M 136 332 L 136 352 144 352 L 152 352 152 332 L 152 312 144 312 L 136 312 136 332 M 201 330.188 C 195.242 333.146, 192 339.099, 192 346.712 L 192 352 208.137 352 L 224.274 352 223.769 345.705 C 223.146 337.951, 221.121 333.856, 216.496 330.998 C 211.159 327.699, 206.333 327.447, 201 330.188 M 473 330.188 C 467.242 333.146, 464 339.099, 464 346.712 L 464 352 480.137 352 L 496.274 352 495.769 345.705 C 495.146 337.951, 493.121 333.856, 488.496 330.998 C 483.159 327.699, 478.333 327.447, 473 330.188 M 24 356 L 24 376 40 376 L 56 376 56 356 L 56 336 40 336 L 24 336 24 356 M 192 388 L 192 408 208 408 L 224 408 224 388 L 224 368 208 368 L 192 368 192 388 M 240 393.453 L 240 418.907 228 434.959 L 216 451.011 216 457.506 L 216 464 344 464 L 472 464 472 457.506 L 472 451.011 460 434.959 L 448 418.907 448 393.453 L 448 368 440 368 L 432 368 432 377.545 C 432 386.347, 431.809 387.282, 429.545 389.545 C 427.111 391.980, 426.936 392, 408 392 C 389.064 392, 388.889 391.980, 386.455 389.545 C 384.191 387.282, 384 386.347, 384 377.545 L 384 368 376 368 L 368 368 368 377.545 C 368 386.347, 367.809 387.282, 365.545 389.545 C 363.111 391.980, 362.936 392, 344 392 C 325.064 392, 324.889 391.980, 322.455 389.545 C 320.191 387.282, 320 386.347, 320 377.545 L 320 368 312 368 L 304 368 304 377.545 C 304 386.347, 303.809 387.282, 301.545 389.545 C 299.111 391.980, 298.936 392, 280 392 C 261.064 392, 260.889 391.980, 258.455 389.545 C 256.191 387.282, 256 386.347, 256 377.545 L 256 368 248 368 L 240 368 240 393.453 M 464 388 L 464 408 480 408 L 496 408 496 388 L 496 368 480 368 L 464 368 464 388 M 88 384 L 88 392 100 392 L 112 392 112 384 L 112 376 100 376 L 88 376 88 384 M 33 392.542 C 33 393.333, 39.410 401.922, 40 401.922 C 40.590 401.922, 47 393.333, 47 392.542 C 47 392.244, 43.850 392, 40 392 C 36.150 392, 33 392.244, 33 392.542 M 201 424.542 C 201 425.333, 207.410 433.922, 208 433.922 C 208.590 433.922, 215 425.333, 215 424.542 C 215 424.244, 211.850 424, 208 424 C 204.150 424, 201 424.244, 201 424.542 M 264 432 L 264 440 272 440 L 280 440 280 432 L 280 424 272 424 L 264 424 264 432 M 312 432 L 312 440 320 440 L 328 440 328 432 L 328 424 320 424 L 312 424 312 432 M 360 432 L 360 440 368 440 L 376 440 376 432 L 376 424 368 424 L 360 424 360 432 M 408 432 L 408 440 416 440 L 424 440 424 432 L 424 424 416 424 L 408 424 408 432 M 473 424.542 C 473 425.333, 479.410 433.922, 480 433.922 C 480.590 433.922, 487 425.333, 487 424.542 C 487 424.244, 483.850 424, 480 424 C 476.150 424, 473 424.244, 473 424.542 M 212.670 487.250 C 211.737 491.238, 210.980 494.837, 210.987 495.250 C 211.004 496.231, 476.996 496.231, 477.013 495.250 C 477.020 494.837, 476.263 491.238, 475.330 487.250 L 473.634 480 344 480 L 214.366 480 212.670 487.250" stroke="none" fill="currentColor" fill-rule="evenodd"/>
</svg>