<svg xmlns="http://www.w3.org/2000/svg" width="512" height="512" viewBox="0 0 512 512" version="1.1">
	<path d="M 368.073 2.635 C 366.368 4.801, 366 6.691, 366 13.264 C 366 22.687, 362.442 39.613, 357.357 54.383 C 353.577 65.361, 344.083 85.809, 338.496 95.007 L 335 100.762 335 115.149 L 335 129.536 324.396 140.018 C 318.563 145.783, 312.038 152.678, 309.896 155.340 L 306 160.180 305.996 171.840 L 305.993 183.500 300.783 186 C 290.796 190.793, 291.538 185.368, 291.234 255.823 C 290.934 325.493, 290.527 321.666, 298.827 327.300 C 306.202 332.306, 306 329.727, 306 418.682 L 306 497 289 497 L 272 497 272 470.412 L 272 443.824 268.454 435.758 C 258.069 412.138, 249.022 374.202, 249.006 354.205 C 249.001 347.796, 248.701 346.611, 246.545 344.455 C 243.466 341.375, 239.593 341.316, 236.605 344.304 C 234.571 346.339, 234.235 347.884, 233.728 357.554 C 232.521 380.591, 224.401 413.414, 214.157 436.668 C 211.208 443.362, 211 444.600, 211 455.418 L 211 467 201 467 L 191 467 191 454.174 C 191 442.061, 190.871 441.228, 188.686 439.174 C 185.615 436.290, 181.507 436.403, 178.455 439.455 C 176.109 441.800, 176 442.468, 176 454.455 L 176 467 166.056 467 L 156.111 467 155.769 454.250 C 155.436 441.829, 155.319 441.246, 151.209 431.654 C 141.998 410.152, 135.243 381.984, 134.047 360.083 C 133.340 347.144, 133.217 346.584, 130.601 344.333 C 127.107 341.328, 123.539 341.370, 120.455 344.455 C 118.243 346.666, 118 347.730, 118 355.205 C 117.999 374.987, 108.831 413.235, 98.479 436.644 C 96.037 442.165, 96 442.661, 96 469.624 L 96 497 78.174 497 C 60.834 497, 60.289 497.063, 58.174 499.314 C 55.314 502.359, 55.321 507.290, 58.189 509.961 C 60.261 511.892, 61.611 512, 83.616 512 L 106.855 512 108.927 509.365 C 110.910 506.845, 111 505.536, 111 479.365 L 111 452 125.500 452 L 140 452 140 477.851 C 140 504.513, 140.566 509.162, 144.039 511.021 C 147.170 512.697, 150.987 512.104, 153.545 509.545 C 155.891 507.200, 156 506.532, 156 494.545 L 156 482 166 482 L 176 482 176 494.826 C 176 506.939, 176.129 507.772, 178.314 509.826 C 181.389 512.714, 186.039 512.652, 188.826 509.686 C 190.822 507.560, 191 506.334, 191 494.686 L 191 482 200.921 482 L 210.841 482 211.171 495.091 C 211.481 507.445, 211.633 508.289, 213.861 510.091 C 216.876 512.529, 221.125 512.529, 224.139 510.090 L 226.500 508.179 226.795 480.090 L 227.089 452 241.545 452 L 256 452 256 479.545 L 256 507.091 258.455 509.545 L 260.909 512 288.373 512 C 303.478 512, 316.565 511.720, 317.455 511.379 C 321.510 509.823, 322 506.286, 322 478.550 L 322 452 334 452 L 346 452 346 479.545 L 346 507.091 348.455 509.545 C 351.013 512.104, 354.830 512.697, 357.961 511.021 C 361.434 509.162, 362 504.513, 362 477.851 L 362 452 374 452 L 386 452 386 479.365 C 386 505.536, 386.090 506.845, 388.073 509.365 C 390.286 512.179, 394.509 512.868, 398.022 510.988 C 401.302 509.233, 401.989 503.404, 401.994 477.250 L 402 452 414 452 L 426 452 426 479.365 C 426 505.536, 426.090 506.845, 428.073 509.365 C 430.657 512.651, 435.628 512.927, 438.811 509.961 L 441 507.922 441.020 427.711 C 441.031 381.591, 441.450 344.666, 442.004 340.831 C 443.246 332.243, 444.432 329.767, 448.325 327.634 C 450.071 326.677, 452.400 324.680, 453.500 323.197 C 455.392 320.645, 455.515 318.688, 455.787 286.852 L 456.075 253.204 453.303 251.024 C 449.983 248.412, 445.433 248.882, 442.750 252.114 C 441.169 254.018, 441 257.114, 441 284.111 L 441 314 374 314 L 307 314 307 257 L 307 200 318.365 200 C 328.349 200, 330.051 199.748, 332.365 197.927 C 334.265 196.433, 335 194.930, 335 192.538 C 335 187.605, 332.287 184.899, 326.711 184.271 L 322 183.740 322 176.870 L 322 170 374 170 L 426 170 426 177 L 426 184 421.923 184 C 418.750 184, 417.198 184.648, 414.923 186.923 C 411.742 190.104, 411.415 191.622, 413.110 195.343 C 414.815 199.084, 418.145 200, 430.047 200 L 441 200 441 214.889 C 441 227.600, 441.256 230.087, 442.750 231.886 C 445.420 235.102, 449.983 235.588, 453.266 233.006 L 456 230.855 456 213.493 C 456 203.943, 455.603 195.088, 455.118 193.815 C 453.706 190.111, 449.048 186.090, 444.866 184.964 L 441 183.923 441 171.436 L 441 158.948 426.500 143.761 L 412 128.574 412 114.168 L 412 99.762 408.504 94.007 C 394.198 70.456, 382.031 34.589, 382.009 15.899 C 381.995 3.797, 379.876 -0, 373.138 -0 C 371.096 -0, 369.487 0.837, 368.073 2.635 M 370.568 63.558 C 368.970 68.264, 365.287 77.039, 362.385 83.058 L 357.108 94 373.554 94 C 382.599 94, 390 93.841, 390 93.646 C 390 93.452, 387.588 88.164, 384.640 81.896 C 381.692 75.628, 378.032 67.013, 376.506 62.750 C 374.980 58.487, 373.674 55, 373.603 55 C 373.532 55, 372.166 58.851, 370.568 63.558 M 351 116.894 L 351 123.788 358.979 124.151 C 365.424 124.443, 367.358 124.913, 369.041 126.597 C 372.154 129.710, 371.953 134.784, 368.601 137.667 C 366.162 139.765, 364.910 140, 356.167 140 L 346.446 140 339.500 147 L 332.554 154 373.277 154 C 395.675 154, 414 153.650, 414 153.221 C 414 152.793, 411.175 149.643, 407.723 146.221 C 401.622 140.174, 401.298 140, 396.178 140 C 391.917 140, 390.439 139.530, 388.455 137.545 C 383.683 132.774, 386.495 125.851, 393.798 124.390 L 397 123.750 397 116.875 L 397 110 374 110 L 351 110 351 116.894 M 365.763 195.033 C 342.696 198.917, 325.091 216.816, 321.783 239.750 C 316.897 273.617, 346.716 303.815, 380.429 299.142 C 396.566 296.906, 412.439 286.087, 419.698 272.377 C 424.279 263.724, 426 256.794, 426 247 C 426 226.366, 415.282 209.125, 396.856 200.117 C 385.712 194.669, 376.687 193.193, 365.763 195.033 M 358.263 213.458 C 351.124 216.782, 343.929 223.775, 340.501 230.722 C 338.298 235.188, 337.552 238.317, 337.216 244.500 C 336.800 252.157, 338.214 261, 339.854 261 C 340.282 261, 346.227 257.037, 353.066 252.193 L 365.500 243.387 365.775 227.193 C 365.989 214.590, 365.767 211.002, 364.775 211.010 C 364.074 211.015, 361.143 212.117, 358.263 213.458 M 382 220.829 L 382 230.874 385.427 230.318 C 391.433 229.343, 396.048 236.304, 393.077 241.857 C 392.569 242.806, 389.922 245.105, 387.195 246.966 C 382.582 250.114, 382.196 250.702, 381.649 255.425 C 381.044 260.646, 377.738 265, 374.378 265 C 372.630 265, 368.763 263.101, 367.930 261.833 C 367.617 261.355, 363.158 263.971, 358.022 267.645 L 348.684 274.325 351.092 276.308 C 352.416 277.399, 355.975 279.463, 359 280.896 C 363.727 283.134, 365.835 283.499, 374 283.496 C 382.469 283.492, 384.149 283.174, 389.478 280.565 C 411.820 269.629, 417.759 241.164, 401.608 222.424 C 397.991 218.227, 389.263 212.546, 384.750 211.450 L 382 210.783 382 220.829 M 320.175 333.250 C 320.744 335.038, 321.444 345.613, 321.731 356.750 L 322.252 377 334.126 377 L 346 377 346 362.955 C 346 349.375, 346.081 348.828, 348.455 346.455 C 351.562 343.347, 355.111 343.332, 358.694 346.411 C 361.488 348.811, 361.501 348.885, 361.826 362.911 L 362.151 377 374.076 377 L 386 377 386 362.955 C 386 349.375, 386.081 348.828, 388.455 346.455 C 391.563 343.346, 395.111 343.332, 398.694 346.412 C 401.485 348.812, 401.502 348.899, 401.846 362.912 L 402.192 377 414.010 377 L 425.828 377 426.267 355.750 C 426.508 344.063, 427.050 333.488, 427.470 332.250 L 428.233 330 373.686 330 L 319.140 330 320.175 333.250 M 322 414.500 L 322 437 334 437 L 346 437 346 414.500 L 346 392 334 392 L 322 392 322 414.500 M 362 414.500 L 362 437 374 437 L 386 437 386 430.455 C 386 424.838, 386.348 423.561, 388.455 421.455 C 391.654 418.255, 395.942 418.245, 398.935 421.431 C 400.670 423.277, 401.346 425.442, 401.747 430.431 L 402.274 437 414.137 437 L 426 437 426 414.500 L 426 392 414.128 392 L 402.256 392 401.614 396.014 C 400.784 401.205, 397.969 404, 393.573 404 C 389.295 404, 386 400.243, 386 395.365 L 386 392 374 392 L 362 392 362 414.500 M 239.518 411.710 C 237.983 417.498, 234.023 429.133, 231.506 435.250 C 230.847 436.852, 231.683 437, 241.378 437 L 251.971 437 249.947 431.865 C 248.833 429.040, 246.437 421.822, 244.621 415.825 L 241.319 404.920 239.518 411.710 M 123.574 412.805 C 122.546 416.487, 120.245 423.438, 118.461 428.250 L 115.219 437 125.716 437 C 135.317 437, 136.153 436.851, 135.505 435.250 C 135.115 434.288, 132.781 427.427, 130.319 420.004 C 127.857 412.582, 125.752 406.419, 125.643 406.309 C 125.533 406.200, 124.602 409.123, 123.574 412.805" stroke="none" fill="currentColor" fill-rule="evenodd"/>
</svg>