<svg xmlns="http://www.w3.org/2000/svg" width="512" height="512" viewBox="0 0 512 512" version="1.1">
	<path d="M 208.229 30.669 C 206.020 31.558, 203.833 36.961, 204.483 39.922 C 205.253 43.427, 210.349 48.346, 215.332 50.392 C 219.519 52.112, 231.909 54.497, 241.755 55.477 C 246.535 55.954, 248.587 56.678, 250.459 58.550 C 253.700 61.791, 258.300 61.791, 261.541 58.550 C 263.413 56.678, 265.465 55.954, 270.245 55.477 C 280.091 54.497, 292.481 52.112, 296.668 50.392 C 301.651 48.346, 306.747 43.427, 307.517 39.922 C 308.212 36.758, 305.950 31.579, 303.455 30.621 C 300.061 29.319, 296.871 30.106, 293.851 32.991 C 290.127 36.551, 286.922 37.531, 273.821 39.119 C 264.308 40.272, 263.872 40.240, 262.006 38.236 C 260.940 37.092, 259.119 35.855, 257.960 35.487 C 255.403 34.676, 250.365 36.607, 249.559 38.708 C 249.071 39.978, 247.681 40.117, 241.237 39.543 C 228.309 38.391, 221.151 36.373, 217.990 32.989 C 215.310 30.120, 211.716 29.266, 208.229 30.669 M 250.923 66.923 L 248 69.846 248 86.969 C 248 103.815, 248.040 104.131, 250.455 106.545 C 253.702 109.793, 258.298 109.793, 261.545 106.545 C 263.960 104.131, 264 103.815, 264 86.969 L 264 69.846 261.077 66.923 C 257.380 63.226, 254.620 63.226, 250.923 66.923 M 204.399 109.333 C 200.907 112.337, 201.002 115.388, 204.882 124.750 L 207.887 132 192.898 132 C 178.317 132, 177.842 132.067, 175.455 134.455 C 170.692 139.217, 173.782 146.462, 181.072 147.628 C 184.362 148.154, 185 148.641, 185 150.628 L 185 153 111.455 153 L 37.909 153 35.455 155.455 C 30.162 160.747, 34.066 167.916, 42.692 168.744 L 47.766 169.232 48.267 173.678 C 49.672 186.139, 64 186.018, 64 173.545 L 64 169 124.500 169 L 185 169 185 178.500 L 185 188 94.674 188 L 4.349 188 2.174 190.314 C -2.832 195.644, 0.864 202.611, 9 203.183 L 13.500 203.500 14.049 225.500 C 14.351 237.600, 14.689 247.601, 14.799 247.724 C 14.910 247.848, 16.328 248.635, 17.950 249.474 C 20.563 250.825, 41.301 251, 198.885 251 C 319.610 251, 377.749 250.666, 379.603 249.961 C 385.347 247.777, 386.779 241.688, 382.545 237.455 L 380.091 235 204.545 235 L 29 235 29 219 L 29 203 44.500 203 L 60 203 60 207.351 C 60 216.040, 62.743 220, 68.760 220 C 73.619 220, 76 216.444, 76 209.186 L 76 203 91.500 203 L 107 203 107 208.050 C 107 213.507, 108.957 218.386, 111.545 219.379 C 114.867 220.654, 118.693 219.955, 120.826 217.686 C 122.574 215.824, 123 214.160, 123 209.186 L 123 203 138.384 203 L 153.767 203 154.189 209.634 C 154.676 217.279, 156.868 220, 162.538 220 C 167.521 220, 170 216.301, 170 208.865 L 170 203 185.500 203 L 201 203 201 209.045 C 201 216.458, 203.710 220, 209.382 220 C 214.534 220, 217 216.395, 217 208.865 L 217 203 232.500 203 L 248 203 248 208.865 C 248 216.612, 250.435 220, 256 220 C 261.565 220, 264 216.612, 264 208.865 L 264 203 279.500 203 L 295 203 295 208.865 C 295 216.395, 297.466 220, 302.618 220 C 308.290 220, 311 216.458, 311 209.045 L 311 203 326.500 203 L 342 203 342 208.865 C 342 216.301, 344.479 220, 349.462 220 C 355.132 220, 357.324 217.279, 357.811 209.634 L 358.233 203 373.616 203 L 389 203 389 209.326 C 389 214.645, 389.368 215.997, 391.314 217.826 C 393.595 219.968, 397.286 220.595, 400.455 219.379 C 403.043 218.386, 405 213.507, 405 208.050 L 405 203 420.500 203 L 436 203 436 209.326 C 436 214.645, 436.368 215.997, 438.314 217.826 C 440.767 220.129, 444.927 220.645, 447.961 219.021 C 450.309 217.764, 452 212.880, 452 207.351 L 452 203 467.500 203 L 483 203 483 219 L 483 235 441.455 235 L 399.909 235 397.455 237.455 C 393.221 241.688, 394.653 247.777, 400.397 249.961 C 402.138 250.623, 419.103 251, 447.115 251 C 484.585 251, 491.536 250.774, 494.050 249.474 C 495.672 248.635, 497.090 247.848, 497.201 247.724 C 497.311 247.601, 497.649 237.600, 497.951 225.500 L 498.500 203.500 503 203.186 C 508.876 202.776, 513 199.093, 513 194.254 C 513 192.399, 512.610 191.123, 512.134 191.417 C 511.657 191.712, 510.462 191.063, 509.479 189.976 C 507.722 188.036, 506.061 188, 417.345 188 L 327 188 327 178.500 L 327 169 387.500 169 L 448 169 448 173.545 C 448 186.018, 462.328 186.139, 463.733 173.678 L 464.234 169.232 469.308 168.744 C 477.934 167.916, 481.838 160.747, 476.545 155.455 L 474.091 153 400.545 153 L 327 153 327 150.628 C 327 148.641, 327.638 148.154, 330.928 147.628 C 338.218 146.462, 341.308 139.217, 336.545 134.455 C 334.158 132.067, 333.683 132, 319.102 132 L 304.113 132 307.057 124.862 C 310.800 115.785, 310.877 111.835, 307.365 109.073 C 301.152 104.185, 297.362 107.059, 291.634 121 L 287.321 131.500 281.629 131.801 C 276.141 132.091, 275.955 132.019, 276.460 129.801 C 279.888 114.741, 279.875 111.833, 276.365 109.073 C 273.461 106.788, 270.869 106.465, 267.957 108.023 C 265.269 109.461, 264.217 111.807, 262.503 120.184 C 259.894 132.934, 260.408 132, 256 132 C 251.592 132, 252.106 132.934, 249.497 120.184 C 247.783 111.807, 246.731 109.461, 244.043 108.023 C 241.131 106.465, 238.539 106.788, 235.635 109.073 C 232.125 111.833, 232.112 114.741, 235.540 129.801 C 236.045 132.019, 235.858 132.091, 230.378 131.801 L 224.693 131.500 220.335 121 C 214.465 106.856, 210.583 104.014, 204.399 109.333 M 200.229 167.750 L 200.500 187.500 256 187.500 L 311.500 187.500 311.771 167.750 L 312.042 148 256 148 L 199.958 148 200.229 167.750 M 0.252 195.500 C 0.263 197.700, 0.468 198.482, 0.707 197.238 C 0.946 195.994, 0.937 194.194, 0.687 193.238 C 0.437 192.282, 0.241 193.300, 0.252 195.500 M 12.975 256.750 C 9.986 260.538, 10.735 266.751, 14.890 272.647 L 18 277.058 18 362 L 18 446.942 14.860 451.396 C 12.675 454.496, 11.573 457.393, 11.233 460.925 C 10.832 465.096, 10.403 466, 8.823 466 C 6.100 466, 1.357 468.628, 0.621 470.545 C -0.775 474.184, 0.015 477.867, 2.635 479.927 L 5.270 482 256.058 482 L 506.847 482 509.923 479.411 C 512.270 477.436, 513 475.999, 513 473.352 C 513 471.293, 512.593 470.133, 512 470.500 C 511.450 470.840, 511 470.653, 511 470.085 C 511 468.767, 505.701 466, 503.177 466 C 501.597 466, 501.168 465.096, 500.767 460.925 C 500.427 457.393, 499.325 454.496, 497.140 451.396 L 494 446.942 494 362 L 494 277.058 497.110 272.647 C 503.461 263.637, 501.379 254, 493.082 254 C 488.702 254, 486.581 255.901, 485.272 261 L 484.373 264.500 470.093 264.500 L 455.814 264.500 454.443 260.513 C 452.800 255.732, 450.683 254, 446.483 254 C 442.280 254, 438.993 257.552, 439.022 262.064 C 439.045 265.697, 442.035 273.285, 443.896 274.436 C 445.465 275.405, 445.465 448.595, 443.896 449.564 C 441.966 450.757, 439.045 458.361, 439.022 462.250 L 439 466 427 466 L 415 466 415 461.968 C 415 457.366, 413.083 452.141, 410.655 450.128 C 409.138 448.870, 409 441.505, 409 362 C 409 282.495, 409.138 275.130, 410.655 273.872 C 415.068 270.213, 416.477 259.477, 413 256 C 410.724 253.724, 405.274 253.327, 402.726 255.250 C 401.816 255.938, 400.491 258.300, 399.782 260.500 L 398.494 264.500 385.135 264.780 C 371.330 265.069, 369 264.525, 369 261.012 C 369 260.054, 368.067 258.084, 366.927 256.635 C 365.343 254.620, 363.967 254, 361.082 254 C 352.999 254, 350.977 262.618, 356.846 272.059 L 360 277.133 360 362.032 L 360 446.931 357.011 451.644 C 355.327 454.300, 353.742 458.463, 353.382 461.179 L 352.742 466 341.371 466 L 330 466 330 463.149 C 330 459.186, 328.155 454.081, 325.362 450.317 L 323 447.133 323 362 L 323 276.867 325.362 273.683 C 330.191 267.174, 331.159 260.743, 327.927 256.635 C 325 252.913, 319 252.913, 316.073 256.635 C 314.933 258.084, 314 260.054, 314 261.012 C 314 264.525, 311.670 265.069, 297.865 264.780 L 284.506 264.500 283.218 260.500 C 282.509 258.300, 281.184 255.938, 280.274 255.250 C 277.662 253.279, 272.273 253.727, 269.886 256.114 C 266.862 259.138, 267.602 267.478, 271.326 272.361 L 274 275.867 274 362 L 274 448.133 271.326 451.639 C 269.423 454.134, 268.523 456.708, 268.202 460.572 L 267.752 466 255.876 466 L 244 466 244 461.960 C 244 458.055, 241.092 450.793, 239.014 449.509 C 238.341 449.093, 238 419.780, 238 362.374 L 238 275.867 240.674 272.361 C 244.398 267.478, 245.138 259.138, 242.114 256.114 C 239.727 253.727, 234.338 253.279, 231.726 255.250 C 230.816 255.938, 229.491 258.300, 228.782 260.500 L 227.494 264.500 214.135 264.780 C 200.330 265.069, 198 264.525, 198 261.012 C 198 260.054, 197.067 258.084, 195.927 256.635 C 194.329 254.602, 192.973 254, 190 254 C 187.027 254, 185.671 254.602, 184.073 256.635 C 180.841 260.743, 181.809 267.174, 186.638 273.683 L 189 276.867 189 362 L 189 447.133 186.638 450.317 C 183.845 454.081, 182 459.186, 182 463.149 L 182 466 170.629 466 L 159.258 466 158.618 461.179 C 158.258 458.463, 156.673 454.300, 154.989 451.644 L 152 446.931 152 362.032 L 152 277.133 155.154 272.059 C 161.023 262.618, 159.001 254, 150.918 254 C 148.033 254, 146.657 254.620, 145.073 256.635 C 143.933 258.084, 143 260.019, 143 260.935 C 143 264.452, 140.909 265, 127.500 265 C 113.614 265, 112 264.511, 112 260.300 C 112 256.871, 108.583 254, 104.500 254 C 99.684 254, 97 256.875, 97 262.032 C 97 266.634, 98.917 271.859, 101.345 273.872 C 102.823 275.098, 103 278.712, 103 307.575 C 103 329.474, 103.365 340.706, 104.130 342.385 C 105.733 345.905, 110.184 347.581, 113.870 346.054 C 115.449 345.400, 117.249 343.749, 117.870 342.385 C 118.628 340.722, 119 330.213, 119 310.453 L 119 281 127.500 281 L 136 281 136 362 L 136 443 127.500 443 L 119 443 119 402.635 C 119 363.313, 118.946 362.202, 116.927 359.635 C 114 355.913, 108 355.913, 105.073 359.635 C 103.048 362.208, 103 363.279, 103 405.512 C 103 444.530, 102.838 448.889, 101.345 450.128 C 98.917 452.141, 97 457.366, 97 461.968 L 97 466 85 466 L 73 466 72.978 462.250 C 72.955 458.361, 70.034 450.757, 68.104 449.564 C 66.535 448.595, 66.535 275.405, 68.104 274.436 C 69.996 273.266, 72.955 265.671, 72.978 261.924 C 73.005 257.486, 69.662 254, 65.377 254 C 61.316 254, 59.186 255.774, 57.557 260.513 L 56.186 264.500 41.907 264.500 L 27.627 264.500 26.728 261 C 25.419 255.901, 23.298 254, 18.918 254 C 15.995 254, 14.656 254.619, 12.975 256.750 M 33 362 L 33 443 42 443 L 51 443 51 362 L 51 281 42 281 L 33 281 33 362 M 204 362 L 204 443 213 443 L 222 443 222 362 L 222 281 213 281 L 204 281 204 362 M 290 362 L 290 443 299 443 L 308 443 308 362 L 308 281 299 281 L 290 281 290 362 M 376 362 L 376 443 384.500 443 L 393 443 393 362 L 393 281 384.500 281 L 376 281 376 362 M 461 362 L 461 443 470 443 L 479 443 479 362 L 479 281 470 281 L 461 281 461 362 M 27.395 460.414 C 27.085 461.222, 26.988 462.697, 27.179 463.692 C 27.496 465.337, 28.834 465.500, 42.014 465.500 L 56.500 465.500 56.500 462.500 L 56.500 459.500 42.229 459.222 C 30.420 458.993, 27.861 459.198, 27.395 460.414 M 112.930 460.584 C 111.977 461.732, 111.905 462.626, 112.665 463.834 C 113.549 465.237, 115.937 465.544, 127.781 465.777 C 141.261 466.042, 141.876 465.967, 142.507 463.979 C 143.860 459.714, 141.707 459, 127.500 459 C 116.626 459, 114.009 459.284, 112.930 460.584 M 199.040 460.452 C 198.377 461.251, 197.990 462.713, 198.180 463.702 C 198.489 465.314, 199.970 465.529, 212.504 465.780 C 224.609 466.022, 226.647 465.836, 227.703 464.392 C 228.553 463.229, 228.621 462.160, 227.926 460.862 C 227.031 459.189, 225.576 459, 213.587 459 C 203.144 459, 199.983 459.315, 199.040 460.452 M 284.135 460.748 C 283.515 461.907, 283.515 463.168, 284.134 464.276 C 284.976 465.780, 286.885 466, 299.081 466 C 311.103 466, 313.151 465.771, 313.691 464.364 C 314.036 463.464, 313.861 462.002, 313.302 461.114 C 312.463 459.782, 309.912 459.451, 298.693 459.222 C 286.450 458.972, 285.004 459.123, 284.135 460.748 M 370.040 460.452 C 369.377 461.251, 369.127 462.826, 369.485 463.952 C 370.099 465.886, 370.905 466, 383.945 466 C 399.007 466, 401.278 465.257, 399.034 461.064 C 398.003 459.137, 397.044 459, 384.587 459 C 374.143 459, 370.983 459.315, 370.040 460.452 M 455.395 460.414 C 455.085 461.222, 454.988 462.697, 455.179 463.692 C 455.496 465.337, 456.834 465.500, 470.014 465.500 L 484.500 465.500 484.500 462.500 L 484.500 459.500 470.229 459.222 C 458.420 458.993, 455.861 459.198, 455.395 460.414 M 0.252 474.500 C 0.263 476.700, 0.468 477.482, 0.707 476.238 C 0.946 474.994, 0.937 473.194, 0.687 472.238 C 0.437 471.282, 0.241 472.300, 0.252 474.500" stroke="none" fill="currentColor" fill-rule="evenodd"/>
</svg>