<svg xmlns="http://www.w3.org/2000/svg" width="512" height="512" viewBox="0 0 512 512" version="1.1">
	<path d="M 225.500 56.057 C 167.179 60.175, 111.897 75.006, 60.500 100.321 C 37.363 111.717, 10.098 128.006, 2.750 134.823 L -0 137.374 0 294.598 L 0 451.822 3.077 454.411 L 6.153 457 256.042 457 L 505.930 457 509.465 453.896 L 513 450.793 512.761 293.146 C 512.597 185.105, 512.361 155.953, 512.011 200.500 C 511.730 236.250, 511.130 264.754, 510.678 263.842 C 509.628 261.723, 506.824 260.641, 494.500 257.600 C 456.193 248.147, 399.025 238.695, 355.101 234.554 C 346.631 233.755, 339.381 232.741, 338.990 232.301 C 338.598 231.860, 331.194 208.325, 322.535 180 C 310.490 140.600, 306.227 127.916, 304.389 126.016 C 302.080 123.629, 301.561 123.543, 291.044 123.811 L 280.101 124.090 279.100 120.295 C 278.549 118.208, 274.901 103.675, 270.994 88 C 265.991 67.926, 263.308 58.909, 261.920 57.500 C 260.202 55.756, 258.512 55.481, 248.725 55.355 C 242.551 55.275, 232.100 55.591, 225.500 56.057 M 226.500 73.675 C 154.963 78.658, 85.278 101.641, 25.755 139.882 L 17.010 145.500 17.005 165.750 C 17.002 176.887, 17.341 186, 17.757 186 C 18.173 186, 24.065 183.519, 30.850 180.487 C 84.901 156.330, 144.096 139.164, 203 130.566 C 223.593 127.560, 247.701 125, 255.413 125 C 258.421 125, 261.102 124.643, 261.372 124.207 C 261.641 123.772, 259.053 112.184, 255.621 98.457 L 249.380 73.500 240.440 73.413 C 235.523 73.365, 229.250 73.483, 226.500 73.675 M 187.667 89.667 C 187.300 90.033, 187 95.883, 187 102.667 L 187 115 196 115 L 205 115 205 102 L 205 89 196.667 89 C 192.083 89, 188.033 89.300, 187.667 89.667 M 136 111 L 136 124 145 124 L 154 124 154 111 L 154 98 145 98 L 136 98 136 111 M 85 128 L 85 141 94 141 L 103 141 103 128 L 103 115 94 115 L 85 115 85 128 M 0.488 294.500 C 0.488 381.400, 0.606 416.802, 0.750 373.171 C 0.894 329.540, 0.894 258.440, 0.750 215.171 C 0.606 171.902, 0.488 207.600, 0.488 294.500 M 34 149.500 L 34 158 42.500 158 L 51 158 51 149.500 L 51 141 42.500 141 L 34 141 34 149.500 M 261.500 142.101 C 180.905 146.963, 99.219 167.636, 27.750 201.256 L 17 206.313 17 231.987 L 17 257.661 34.224 253.865 C 80.888 243.584, 129.506 236.486, 181 232.438 C 206.175 230.459, 278.935 229.474, 302.500 230.794 C 311.850 231.318, 319.602 231.663, 319.728 231.562 C 319.853 231.461, 313.738 211.156, 306.139 186.439 L 292.323 141.500 283.911 141.378 C 279.285 141.311, 269.200 141.636, 261.500 142.101 M 247 188 L 247 218 256 218 L 265 218 265 188 L 265 158 256 158 L 247 158 247 188 M 179 192 L 179 218.078 187.750 217.789 L 196.500 217.500 196.500 192 L 196.500 166.500 187.750 166.211 L 179 165.922 179 192 M 119 196.500 L 119 218 128 218 L 137 218 137 196.500 L 137 175 128 175 L 119 175 119 196.500 M 77 209 L 77 226 85.500 226 L 94 226 94 209 L 94 192 85.500 192 L 77 192 77 209 M 34 222 L 34 235 42.500 235 L 51 235 51 222 L 51 209 42.500 209 L 34 209 34 222 M 229.500 247.670 C 180.793 249.067, 128.042 254.366, 81.607 262.526 C 63.039 265.789, 29.748 272.644, 20.894 275.029 L 17 276.077 17 314.039 C 17 334.917, 17.284 352, 17.632 352 C 17.979 352, 30.691 350.210, 45.882 348.021 C 88.407 341.895, 126.250 337.984, 172.500 334.937 C 198.427 333.229, 284.209 332.601, 314.500 333.898 C 372.103 336.365, 425.948 341.597, 479.683 349.951 C 486.934 351.078, 493.352 352, 493.945 352 C 494.702 352, 494.946 340.611, 494.762 313.773 L 494.500 275.546 489 274.293 C 400.405 254.107, 314.021 245.244, 229.500 247.670 M 179 289.961 L 179 320 188.015 320 L 197.030 320 196.765 290.250 L 196.500 260.500 187.750 260.211 L 179 259.922 179 289.961 M 247 290 L 247 320 256 320 L 265 320 265 290 L 265 260 256 260 L 247 260 247 290 M 315.667 260.667 C 315.300 261.033, 315 274.533, 315 290.667 L 315 320 324 320 L 333 320 333 290 L 333 260 324.667 260 C 320.083 260, 316.033 260.300, 315.667 260.667 M 119 294.500 L 119 320 128 320 L 137 320 137 294.500 L 137 269 128 269 L 119 269 119 294.500 M 375 294.500 L 375 320 384 320 L 393 320 393 294.500 L 393 269 384 269 L 375 269 375 294.500 M 77 303 L 77 329 85.500 329 L 94 329 94 303 L 94 277 85.500 277 L 77 277 77 303 M 418 303 L 418 329 426.500 329 L 435 329 435 303 L 435 277 426.500 277 L 418 277 418 303 M 34 307.500 L 34 329 42.500 329 L 51 329 51 307.500 L 51 286 42.500 286 L 34 286 34 307.500 M 461 307.500 L 461 329 469.500 329 L 478 329 478 307.500 L 478 286 469.500 286 L 461 286 461 307.500 M 222.500 350.592 C 158.189 352.473, 96.191 357.980, 37.296 367.044 C 26.734 368.670, 17.846 370, 17.546 370 C 17.246 370, 17 385.525, 17 404.500 L 17 439 256 439 L 495 439 495 404.611 L 495 370.223 491.750 369.622 C 463.852 364.466, 398.549 356.773, 359.500 354.044 C 320.096 351.289, 254.866 349.646, 222.500 350.592 M 179 392.500 L 179 423.078 187.750 422.789 L 196.500 422.500 196.500 392.500 L 196.500 362.500 187.750 362.211 L 179 361.922 179 392.500 M 247.469 363.221 C 247.194 363.938, 247.088 377.569, 247.234 393.512 L 247.500 422.500 256 422.500 L 264.500 422.500 264.500 392.500 L 264.500 362.500 256.234 362.209 C 250.150 361.995, 247.837 362.262, 247.469 363.221 M 315.453 363.262 C 315.187 363.956, 315.088 377.569, 315.234 393.512 L 315.500 422.500 324.250 422.789 L 333 423.078 333 392.539 L 333 362 324.469 362 C 318.522 362, 315.790 362.382, 315.453 363.262 M 119.233 396.750 L 119.500 422.500 128 422.500 L 136.500 422.500 136.767 396.750 L 137.034 371 128 371 L 118.966 371 119.233 396.750 M 375.233 396.750 L 375.500 422.500 384 422.500 L 392.500 422.500 392.767 396.750 L 393.034 371 384 371 L 374.966 371 375.233 396.750 M 77 401 L 77 423 85.500 423 L 94 423 94 401 L 94 379 85.500 379 L 77 379 77 401 M 418 401 L 418 423 426.500 423 L 435 423 435 401 L 435 379 426.500 379 L 418 379 418 401 M 34 405.500 L 34 423 42.500 423 L 51 423 51 405.500 L 51 388 42.500 388 L 34 388 34 405.500 M 461 405.500 L 461 423 469.500 423 L 478 423 478 405.500 L 478 388 469.500 388 L 461 388 461 405.500" stroke="none" fill="currentColor" fill-rule="evenodd"/>
</svg>