<svg xmlns="http://www.w3.org/2000/svg" width="512" height="512" viewBox="0 0 512 512" version="1.1">
	<path d="M 133.861 22.910 L 131.500 24.820 131 56.660 L 130.500 88.500 126.167 102.960 C 123.784 110.913, 121.429 121.263, 120.935 125.960 C 120.440 130.657, 120.024 156.100, 120.010 182.500 L 119.985 230.500 108.743 240.630 L 97.500 250.759 97.224 236.431 C 96.951 222.327, 96.906 222.072, 94.339 220.052 C 90.869 217.322, 87.447 217.462, 84.455 220.455 C 82.005 222.904, 82 222.948, 82 243.872 L 82 264.834 74.825 271.319 L 67.649 277.803 64.923 267.151 C 62.953 259.454, 60.223 252.618, 55.079 242.500 L 47.960 228.500 47.980 205.705 L 48 182.909 45.545 180.455 C 42.566 177.475, 38.148 177.250, 34.861 179.910 C 32.524 181.800, 32.495 182.066, 32 206.160 L 31.500 230.500 26.579 239.416 C 20.155 251.054, 16.191 261.388, 13.890 272.500 C 12.147 280.918, 12.025 287.786, 12.013 378.750 L 12 476 8.635 476 C 3.757 476, -0 479.295, -0 483.573 C -0 485.667, 0.778 487.778, 2 489 C 3.989 490.989, 5.333 491, 256.048 491 L 508.095 491 510.548 488.354 C 512.185 486.587, 513 484.538, 513 482.187 C 513 480.251, 512.715 478.952, 512.366 479.301 C 512.017 479.649, 510.607 479.049, 509.231 477.967 C 507.856 476.885, 505.441 476, 503.865 476 L 501 476 500.987 378.750 C 500.975 287.786, 500.853 280.918, 499.110 272.500 C 496.809 261.388, 492.845 251.054, 486.421 239.416 L 481.500 230.500 481 206.160 C 480.505 182.066, 480.476 181.800, 478.139 179.910 C 474.852 177.250, 470.434 177.475, 467.455 180.455 L 465 182.909 465 205.935 L 465 228.962 458.571 241.231 C 451.684 254.375, 448.945 261.580, 446.810 272.171 L 445.466 278.841 437.733 271.830 L 430 264.818 430 243.864 C 430 222.949, 429.995 222.904, 427.545 220.455 C 424.546 217.455, 421.130 217.323, 417.635 220.073 C 415.005 222.141, 415 222.173, 415 236.635 L 415 251.124 404.029 241.312 L 393.057 231.500 393.029 203.899 C 392.999 175.458, 392.463 170.853, 388.961 168.979 C 385.505 167.130, 381.272 167.839, 379.073 170.635 C 377.004 173.265, 377 173.478, 377 285.135 L 377 397 358.500 397 L 340 397 340 261.210 C 340 114.690, 339.659 125.063, 345.085 106.750 L 347.085 100 358.500 100 L 369.915 100 371.915 106.750 C 376.260 121.415, 377 125.634, 377 135.756 C 377 145.396, 377.165 146.256, 379.455 148.545 C 384.643 153.734, 391.448 150.315, 392.593 141.943 C 393.706 133.812, 391.270 117.371, 386.823 103 L 382.646 89.500 382.073 57.160 L 381.500 24.820 379.139 22.910 C 375.645 20.083, 370.607 20.413, 368.073 23.635 C 366.083 26.165, 366 27.441, 366 55.635 L 366 85 358.500 85 L 351 85 351 55.635 C 351 27.441, 350.917 26.165, 348.927 23.635 C 346.243 20.223, 340.264 19.947, 337.405 23.103 C 335.640 25.051, 335.463 27.534, 335 56.853 L 334.500 88.500 330.361 102.500 C 328.085 110.200, 325.887 117.850, 325.477 119.500 C 325.068 121.150, 324.455 132.769, 324.116 145.321 L 323.500 168.141 312.250 157.964 L 301 147.787 301 130.844 C 301 110.014, 299.929 107, 292.529 107 C 291.260 107, 289.159 107.860, 287.861 108.911 C 285.705 110.655, 285.457 111.778, 285 121.835 L 284.500 132.848 274.500 123.710 L 264.500 114.571 264 100.195 C 263.527 86.590, 263.373 85.716, 261.139 83.909 C 258.124 81.471, 253.876 81.471, 250.861 83.909 C 248.625 85.718, 248.474 86.585, 248 100.283 L 247.500 114.747 237.500 123.762 L 227.500 132.776 227 121.799 C 226.544 111.780, 226.294 110.654, 224.139 108.911 C 221.125 106.471, 216.876 106.471, 213.861 108.910 C 211.556 110.774, 211.493 111.259, 211.189 129.353 L 210.878 147.887 200.189 157.671 L 189.500 167.456 188.881 144.978 C 188.541 132.615, 187.928 121.150, 187.520 119.500 C 187.112 117.850, 184.915 110.200, 182.639 102.500 L 178.500 88.500 178 56.853 C 177.537 27.534, 177.360 25.051, 175.595 23.103 C 172.736 19.947, 166.757 20.223, 164.073 23.635 C 162.083 26.165, 162 27.441, 162 55.635 L 162 85 154.500 85 L 147 85 147 55.635 C 147 27.441, 146.917 26.165, 144.927 23.635 C 142.393 20.413, 137.355 20.083, 133.861 22.910 M 141.085 106.750 C 135.723 124.845, 136 119.250, 136 209.575 C 136 293.198, 135.987 293.747, 133.927 296.365 C 131.869 298.983, 128.184 299.775, 124.554 298.382 C 121.086 297.052, 120.506 293.765, 120 272.561 L 119.500 251.621 94.250 274.548 L 69 297.475 69 386.738 L 69 476 94.500 476 L 120 476 120.006 400.750 C 120.009 351.823, 120.374 324.192, 121.049 321.762 C 122.747 315.649, 129.067 313.977, 133.545 318.455 L 136 320.909 136 358.955 L 136 397 154.500 397 L 173 397 173 261.210 C 173 114.690, 173.341 125.063, 167.915 106.750 L 165.915 100 154.500 100 L 143.085 100 141.085 106.750 M 222.266 158.308 L 189.031 188.500 189.016 332.250 L 189 476 199.500 476 L 210 476 210.008 448.250 C 210.012 432.988, 210.471 417.575, 211.029 414 C 212.544 404.284, 217.834 394.295, 224.959 387.699 C 252.694 362.021, 296.112 378.038, 301.110 415.791 C 301.713 420.351, 301.915 425.641, 301.558 427.545 C 300.228 434.632, 293.217 437.308, 288.455 432.545 C 286.325 430.416, 286 429.181, 286 423.227 C 286 413.348, 283.852 407.164, 278.260 400.945 C 271.781 393.739, 265.683 391.020, 256 391.020 C 246.317 391.020, 240.219 393.739, 233.740 400.945 C 226.376 409.134, 226 411.334, 226 446.182 L 226 476 256 476 L 286 476 286 466.556 C 286 458.094, 286.244 456.828, 288.342 454.389 C 291.305 450.944, 296.153 450.710, 299.306 453.859 C 301.214 455.765, 301.545 457.353, 301.844 466.026 L 302.187 476 313.094 476 L 324 476 324 332.713 L 324 189.427 290.386 158.963 C 271.898 142.208, 256.486 128.414, 256.136 128.308 C 255.786 128.202, 240.545 141.702, 222.266 158.308 M 249 175.875 C 240.223 178.765, 233.423 184.658, 229.890 192.435 C 228.341 195.845, 228.040 199.117, 228.022 212.750 L 228 229 224.750 229.032 C 217.285 229.105, 213.867 236.663, 218.773 242.250 C 220.184 243.856, 223.293 244, 256.655 244 C 291.667 244, 293.073 243.927, 295 242 C 299.896 237.104, 295.560 229, 288.045 229 L 284 229 283.978 212.750 C 283.954 194.684, 283.219 191.736, 276.972 184.620 C 270.679 177.453, 257.100 173.208, 249 175.875 M 248.615 193.088 C 243.709 196.948, 243 199.707, 243 214.950 L 243 229 256 229 L 269 229 269 214.950 C 269 199.707, 268.291 196.948, 263.385 193.088 C 261.543 191.639, 259.283 191, 256 191 C 252.717 191, 250.457 191.639, 248.615 193.088 M 38.308 250.203 C 35.508 254.948, 31.366 265.519, 29.324 273.129 C 27.797 278.820, 27.577 287.746, 27.261 356.750 L 26.908 434 39.994 434 L 53.081 434 52.741 356.250 C 52.433 285.694, 52.239 277.945, 50.647 272.500 C 48.442 264.959, 44.467 254.530, 42.125 250.137 L 40.331 246.773 38.308 250.203 M 469.297 253.714 C 460.122 274.249, 460.643 268.334, 460.259 356.250 L 459.919 434 472.960 434 L 486 434 486 361.572 C 486 286.786, 485.687 279.700, 481.822 267.128 C 479.884 260.823, 474.750 249.394, 473.100 247.714 C 472.676 247.282, 470.964 249.982, 469.297 253.714 M 393 364.500 L 393 476 418.500 476 L 444 476 444 387.184 L 444 298.368 419.028 275.684 C 405.293 263.208, 393.818 253, 393.528 253 C 393.237 253, 393 303.175, 393 364.500 M 246.453 276.276 C 238.051 279.651, 231.867 285.952, 229.159 293.899 C 228.480 295.890, 228 303.606, 228 312.521 L 228 327.744 224.169 328.357 C 219.879 329.043, 217.485 331.180, 216.476 335.225 C 215.925 337.430, 216.372 338.526, 218.821 340.975 L 221.846 344 256.969 344 L 292.091 344 294.545 341.545 C 297.104 338.987, 297.697 335.170, 296.021 332.039 C 294.959 330.055, 290.072 328, 286.417 328 C 284.140 328, 284.131 327.937, 283.816 311.250 C 283.548 297.021, 283.204 293.903, 281.533 290.533 C 279.008 285.440, 273.511 279.958, 268.467 277.503 C 263.674 275.170, 250.971 274.462, 246.453 276.276 M 250 291.698 C 244.160 294.705, 243.003 298.431, 243.002 314.250 L 243 328 256 328 L 269 328 269 314.468 C 269 299.592, 267.957 295.328, 263.622 292.488 C 259.727 289.936, 254.060 289.607, 250 291.698 M 85 325 C 82.215 327.785, 82.368 333.057, 85.314 335.826 C 87.169 337.568, 88.842 338, 93.733 338 C 97.090 338, 100.565 337.720, 101.455 337.379 C 103.897 336.442, 106.138 331.398, 105.407 328.485 C 104.393 324.445, 101.329 323, 93.777 323 C 88.333 323, 86.607 323.393, 85 325 M 409.337 324.477 C 406.428 326.514, 405.643 330.410, 407.442 333.887 C 409.305 337.491, 410.662 338, 418.407 338 C 423.641 338, 425.003 337.626, 426.826 335.686 C 429.593 332.740, 429.676 327.676, 427 325 C 425.393 323.393, 423.667 323, 418.223 323 C 413.864 323, 410.693 323.527, 409.337 324.477 M 84.174 386.314 C 81.290 389.385, 81.403 393.493, 84.455 396.545 C 86.564 398.655, 87.836 399, 93.500 399 C 99.164 399, 100.436 398.655, 102.545 396.545 C 105.545 393.546, 105.677 390.130, 102.927 386.635 C 101.029 384.221, 100.246 384, 93.602 384 C 87.313 384, 86.059 384.308, 84.174 386.314 M 409.073 386.635 C 406.323 390.130, 406.455 393.546, 409.455 396.545 C 411.564 398.655, 412.836 399, 418.500 399 C 424.164 399, 425.436 398.655, 427.545 396.545 C 430.695 393.396, 430.754 389.057, 427.686 386.174 C 425.757 384.363, 424.185 384, 418.258 384 C 411.765 384, 410.965 384.230, 409.073 386.635 M 136 444.500 L 136 476 154.500 476 L 173 476 173 444.500 L 173 413 154.500 413 L 136 413 136 444.500 M 340 444.500 L 340 476 358.500 476 L 377 476 377 444.500 L 377 413 358.500 413 L 340 413 340 444.500 M 27 463 L 27 476 40 476 L 53 476 53 463 L 53 450 40 450 L 27 450 27 463 M 460 463 L 460 476 473 476 L 486 476 486 463 L 486 450 473 450 L 460 450 460 463 M 0.252 483.500 C 0.263 485.700, 0.468 486.482, 0.707 485.238 C 0.946 483.994, 0.937 482.194, 0.687 481.238 C 0.437 480.282, 0.241 481.300, 0.252 483.500" stroke="none" fill="currentColor" fill-rule="evenodd"/>
</svg>