<svg xmlns="http://www.w3.org/2000/svg" width="512" height="512" viewBox="0 0 512 512" version="1.1">
	<path d="M 249.589 3.077 L 247 6.153 247 26.553 L 247 46.953 230.951 59.037 C 222.124 65.683, 214.387 72.251, 213.758 73.632 C 212.046 77.390, 214.181 91.865, 218.267 104.201 L 221.679 114.500 220.886 132.277 C 219.537 162.506, 214.439 203.957, 207.974 237.261 C 203.916 258.164, 204.089 260.857, 209.684 263.837 C 213.161 265.689, 215.947 265.207, 218.914 262.240 C 221.332 259.822, 222.067 257.440, 224.851 242.990 C 231.727 207.316, 236.146 173.096, 238.145 140.048 L 239.358 120 243.159 120 L 246.960 120 247.230 189.895 C 247.487 256.338, 247.592 259.892, 249.354 261.839 C 253.487 266.405, 261.515 264.999, 263.878 259.294 C 264.731 257.236, 264.967 236.717, 264.769 181.775 L 264.500 107.055 262.225 104.777 C 260.156 102.707, 258.864 102.470, 247.989 102.167 L 236.029 101.833 234.004 95.278 C 232.890 91.672, 231.710 87.036, 231.380 84.975 L 230.781 81.227 242.850 72.114 C 249.487 67.101, 255.405 63, 256 63 C 256.595 63, 262.507 67.097, 269.139 72.105 L 281.196 81.209 280.503 85.830 C 280.122 88.371, 278.278 94.736, 276.405 99.975 C 273.314 108.622, 273.001 110.514, 273.004 120.500 C 273.014 149.837, 278.666 198.741, 287.161 242.990 C 289.937 257.451, 290.666 259.820, 293.086 262.240 C 296.544 265.698, 299.953 265.752, 303.923 262.411 C 307.860 259.099, 307.870 256.974, 304.047 237.500 C 297.631 204.819, 292.459 162.780, 291.068 132.011 L 290.277 114.500 293.590 104.500 C 297.553 92.541, 299.836 78.291, 298.434 74.265 C 297.776 72.377, 292.321 67.602, 281.235 59.211 L 265 46.922 265 26.538 L 265 6.153 262.411 3.077 C 260.352 0.629, 259.040 -0, 256 -0 C 252.960 -0, 251.648 0.629, 249.589 3.077 M 173.356 275.370 C 169.734 278.485, 169.565 283.844, 172.974 287.473 C 175.185 289.825, 175.993 290, 184.674 290 C 189.803 290, 194 290.157, 194 290.349 C 194 290.541, 192.235 296.729, 190.077 304.099 C 185.436 319.954, 180.926 332.531, 174.598 347.272 C 169.534 359.067, 169.413 361.606, 173.747 365.016 C 177.168 367.707, 182.113 367.587, 184.715 364.750 C 190.670 358.259, 203.534 323.757, 211.002 294.250 L 212.077 290 220.058 290 C 227.825 290, 228.024 290.060, 227.503 292.250 C 224.041 306.817, 213 357.833, 213 359.265 C 213 360.304, 214.315 362.469, 215.923 364.077 C 219.520 367.674, 223.833 367.925, 227.454 364.750 C 229.753 362.735, 230.854 358.749, 238.010 326.554 C 242.405 306.784, 246 290.471, 246 290.304 C 246 290.137, 250.500 290, 256 290 C 261.500 290, 266 290.137, 266 290.304 C 266 290.471, 269.595 306.784, 273.990 326.554 C 281.146 358.749, 282.247 362.735, 284.546 364.750 C 288.167 367.925, 292.480 367.674, 296.077 364.077 C 297.685 362.469, 299 360.304, 299 359.265 C 299 357.833, 287.959 306.817, 284.497 292.250 C 283.976 290.060, 284.175 290, 291.942 290 L 299.923 290 301.006 294.250 C 308.919 325.306, 321.110 358.008, 327.287 364.750 C 329.886 367.587, 334.832 367.707, 338.253 365.016 C 342.587 361.606, 342.466 359.067, 337.402 347.272 C 331.074 332.531, 326.564 319.954, 321.923 304.099 C 319.765 296.729, 318 290.541, 318 290.349 C 318 290.157, 322.197 290, 327.326 290 C 336.007 290, 336.815 289.825, 339.026 287.473 C 342.435 283.844, 342.266 278.485, 338.644 275.370 L 335.888 273 256 273 L 176.112 273 173.356 275.370 M 140.888 376.500 C 137.101 378.558, 135.410 383.161, 137.016 387.038 C 138.760 391.249, 141.311 392.413, 150.076 392.996 L 157.652 393.500 152.321 406 C 144.593 424.119, 125.433 462.131, 115.274 479.500 L 106.500 494.500 55.161 495 L 3.822 495.500 1.911 497.861 C -0.814 501.228, -0.568 506.523, 2.455 509.545 L 4.909 512 256.053 512 L 507.198 512 510.099 508.894 C 512.176 506.671, 513 504.777, 513 502.228 C 513 500.269, 512.748 498.919, 512.439 499.227 C 512.131 499.536, 510.802 498.711, 509.485 497.394 L 507.091 495 456.635 495 L 406.179 495 402.258 488.750 C 389.993 469.203, 370.934 432.132, 359.714 406 L 354.348 393.500 361.924 392.996 C 370.689 392.413, 373.240 391.249, 374.984 387.038 C 376.625 383.078, 374.861 378.496, 370.909 376.453 C 366.741 374.297, 144.857 374.343, 140.888 376.500 M 174.093 399.250 C 166.335 419.481, 146.884 459.728, 134.137 481.930 C 130.212 488.766, 127 494.503, 127 494.680 C 127 494.856, 136.643 495, 148.428 495 L 169.856 495 170.454 489.250 C 173.701 457.995, 191.052 432.063, 217.500 418.937 C 231.702 411.888, 240.559 409.782, 256 409.782 C 271.441 409.782, 280.298 411.888, 294.500 418.937 C 309.864 426.562, 322.474 438.671, 330.756 453.751 C 335.402 462.210, 339.466 473.795, 340.403 481.250 C 340.731 483.863, 341.253 488.025, 341.561 490.500 L 342.123 495 363.561 495 C 375.353 495, 385 494.856, 385 494.680 C 385 494.503, 381.786 488.766, 377.858 481.930 C 365.078 459.688, 345.725 419.635, 337.907 399.250 L 335.510 393 256 393 L 176.490 393 174.093 399.250 M 240.223 428.935 C 219.947 433.916, 203.221 447.639, 194.438 466.500 C 191.204 473.444, 188 486.114, 188 491.958 L 188 495 256 495 L 324 495 324 491.958 C 324 480.881, 317.709 463.996, 309.592 453.284 C 294.072 432.803, 265.418 422.745, 240.223 428.935 M 0.252 503.500 C 0.263 505.700, 0.468 506.482, 0.707 505.238 C 0.946 503.994, 0.937 502.194, 0.687 501.238 C 0.437 500.282, 0.241 501.300, 0.252 503.500" stroke="none" fill="currentColor" fill-rule="evenodd"/>
</svg>