<svg xmlns="http://www.w3.org/2000/svg" width="512" height="512" viewBox="0 0 512 512" version="1.1">
	<path d="M 356 2 C 354.207 3.793, 354 5.333, 354 16.905 L 354 29.810 349.573 32.404 C 342.200 36.725, 338 43.642, 338 51.464 C 338 55.566, 337.882 55.718, 333.750 56.928 C 327.284 58.822, 312.112 66.309, 306.500 70.374 C 292.791 80.306, 279.698 96.921, 273.532 112.212 C 267.931 126.102, 267 132.908, 267 159.958 L 267 184 261.047 184 C 254.015 184, 250.631 185.320, 249.110 188.657 C 248.366 190.290, 248 202.293, 248 225.047 L 248 259 185.500 259 L 123 259 123 179.567 C 123 101.386, 123.031 100.125, 124.972 99.509 C 128.092 98.519, 133.648 91.329, 134.985 86.552 C 136.574 80.879, 135.585 75.314, 131.977 69.625 C 127.669 62.831, 123.759 61.321, 101.659 57.910 C 91.122 56.284, 81.488 54.730, 80.250 54.458 C 78.013 53.965, 78 53.854, 78 34.904 L 78 15.846 75.077 12.923 C 71.380 9.226, 68.620 9.226, 64.923 12.923 L 62 15.846 62 34.904 C 62 53.848, 61.987 53.965, 59.750 54.480 C 58.513 54.765, 48.900 56.307, 38.388 57.908 C 14.930 61.480, 10.919 63.205, 6.706 71.535 C 4.250 76.391, 3.648 81.670, 4.999 86.498 C 6.350 91.321, 11.894 98.514, 15.028 99.509 C 16.963 100.123, 17 101.307, 17 162.644 L 17 225.154 19.923 228.077 C 23.620 231.774, 26.380 231.774, 30.077 228.077 L 33 225.154 33 163.577 L 33 102 70 102 L 107 102 107 202 L 107 302 70 302 L 33 302 33 277.923 L 33 253.846 30.077 250.923 C 26.380 247.226, 23.620 247.226, 19.923 250.923 L 17 253.846 16.941 360.673 L 16.883 467.500 11.714 470.033 C 4.038 473.794, 0.500 479.936, 0.500 489.500 C 0.500 499.052, 3.984 505.081, 11.891 509.212 L 17.252 512.012 256.954 511.756 L 496.657 511.500 501.518 508.494 C 508.057 504.452, 512.843 495.897, 512.936 488.083 C 512.971 485.104, 512.732 482.935, 512.404 483.263 C 512.076 483.591, 510.593 481.535, 509.109 478.695 C 505.985 472.715, 499.590 468.157, 493.101 467.287 L 489 466.737 489 437.368 L 489 408 491.550 408 C 495.129 408, 499.368 405.597, 501.602 402.301 C 503.242 399.880, 503.500 397.600, 503.500 385.500 C 503.500 373.400, 503.242 371.120, 501.602 368.699 C 499.374 365.412, 495.131 363, 491.577 363 L 489.054 363 488.777 312.911 L 488.500 262.822 486.139 260.911 C 484.535 259.612, 482.212 259, 478.889 259 L 474 259 474 223.573 L 474 188.145 471.365 186.073 C 469.336 184.476, 467.289 184, 462.462 184 L 456.194 184 455.764 157.750 C 455.355 132.833, 455.197 131.043, 452.648 122.500 C 449.268 111.166, 442.761 97.744, 439.345 95.057 C 437.907 93.925, 435.646 93, 434.320 93 C 431.273 93, 427 97.194, 427 100.184 C 427 101.436, 429.033 106.519, 431.519 111.480 C 438.855 126.125, 440.088 132.655, 440.729 160.250 L 441.281 184 421.640 184 L 402 184 402 154.176 C 402 131.308, 401.624 122.154, 400.388 114.926 C 398.328 102.884, 394.772 90.591, 390.488 80.700 C 387.244 73.212, 387.197 72.927, 389.305 73.579 C 392.817 74.667, 401.139 79.022, 405.766 82.194 C 411.199 85.918, 416.339 85.795, 419.256 81.870 C 422.524 77.474, 420.946 73.717, 413.788 68.856 C 407.011 64.254, 395.598 58.752, 389.390 57.095 C 385.329 56.011, 385.273 55.934, 384.724 50.612 C 384.418 47.649, 383.454 43.845, 382.582 42.159 C 380.479 38.093, 374.219 32.093, 371.320 31.365 C 369.045 30.795, 369 30.535, 369 18.026 C 369 6.635, 368.778 4.988, 366.927 2.635 C 364.330 -0.667, 358.978 -0.978, 356 2 M 355.455 47.455 C 350.971 51.938, 352.032 53, 361 53 C 368.333 53, 369 52.833, 369 51 C 369 45.265, 359.999 42.910, 355.455 47.455 M 44.066 72.624 C 32.278 74.514, 22.040 76.551, 21.316 77.152 C 19.196 78.912, 19.718 83.689, 22.223 85.443 C 24.155 86.797, 30.388 87, 70 87 C 109.612 87, 115.845 86.797, 117.777 85.443 C 120.277 83.693, 120.806 78.914, 118.694 77.161 C 117.218 75.936, 74.066 68.949, 68.873 69.094 C 67.018 69.146, 55.855 70.735, 44.066 72.624 M 354.510 73.250 C 347.327 81.625, 340.518 99.697, 337.473 118.470 C 336.435 124.867, 336.007 135.737, 336.004 155.750 L 336 184 361.605 184 L 387.209 184 386.725 152.750 C 386.306 125.705, 385.953 120.189, 384.101 111.756 C 378.777 87.510, 368.867 69, 361.210 69 C 358.855 69, 357.321 69.974, 354.510 73.250 M 326.447 76.847 C 308.569 85.502, 293.980 101.482, 287.271 119.758 C 283.137 131.021, 282.073 139.760, 282.035 162.750 L 282 184 300.887 184 L 319.774 184 320.300 152.750 C 320.856 119.722, 321.490 113.976, 326.499 96.500 C 327.918 91.550, 330.614 84.237, 332.490 80.250 C 334.366 76.263, 335.562 73, 335.148 73 C 334.733 73, 330.818 74.731, 326.447 76.847 M 61.500 121.336 C 56.821 123.463, 52.120 127.863, 49.706 132.376 C 47.666 136.190, 47.476 138.094, 47.179 157.700 C 46.712 188.618, 46.990 189, 70 189 C 92.621 189, 93.003 188.516, 92.994 159.849 C 92.991 149.207, 92.537 138.872, 91.984 136.882 C 90.542 131.690, 87.110 127.024, 82.192 123.567 C 78.643 121.073, 76.771 120.510, 71.207 120.266 C 67.068 120.085, 63.351 120.494, 61.500 121.336 M 68 135.719 C 63.222 137.444, 63 138.373, 63 156.655 L 63 174 70 174 L 77 174 77 156.655 C 77 141.388, 76.790 139.126, 75.250 137.773 C 73.092 135.879, 69.992 135, 68 135.719 M 264 229.500 L 264 259 361.500 259 L 459 259 459 229.500 L 459 200 361.500 200 L 264 200 264 229.500 M 354.994 205.934 C 347.806 208.121, 341.144 214.018, 338.375 220.645 C 337.619 222.455, 337 226.655, 337 229.979 C 337 237.598, 339.788 243.807, 345.346 248.564 C 362.734 263.448, 389.198 248.407, 385.569 225.704 C 383.352 211.840, 368.068 201.957, 354.994 205.934 M 62.748 216.367 C 56.923 218.539, 52.424 222.500, 49.852 227.723 C 47.644 232.208, 47.483 233.783, 47.214 253.500 C 46.889 277.308, 47.504 280.003, 54 283.248 C 59.052 285.772, 80.948 285.772, 86 283.248 C 92.233 280.135, 92.997 277.098, 92.998 255.409 C 93 235.111, 92.171 229.858, 88.054 224.076 C 83.036 217.028, 70.896 213.330, 62.748 216.367 M 354.800 224.046 C 352.168 226.679, 351.834 227.596, 352.343 230.796 C 354.159 242.204, 370 241.490, 370 230 C 370 221.384, 360.991 217.855, 354.800 224.046 M 281.635 224.073 C 278.222 226.757, 277.947 232.737, 281.105 235.595 C 283.033 237.340, 284.960 237.500, 304.077 237.500 C 323.623 237.500, 325.069 237.373, 326.909 235.500 C 327.990 234.400, 329.173 232.274, 329.539 230.775 C 330.075 228.579, 329.618 227.464, 327.179 225.025 L 324.154 222 304.212 222 C 285.551 222, 284.100 222.133, 281.635 224.073 M 395.455 224.455 C 391.459 228.450, 392.469 234.059, 397.684 236.837 C 401.118 238.666, 436.295 238.416, 439.928 236.537 C 444.730 234.054, 445.487 228.396, 441.545 224.455 C 439.098 222.007, 439.029 222, 418.500 222 C 397.971 222, 397.902 222.007, 395.455 224.455 M 65 233 C 63.157 234.843, 63 236.333, 63 252 L 63 269 70 269 L 77 269 77 252 C 77 236.333, 76.843 234.843, 75 233 C 73.889 231.889, 71.667 231, 70 231 C 68.333 231, 66.111 231.889, 65 233 M 123 318.500 L 123 363 221.866 363 L 320.731 363 321.227 356.250 C 322.143 343.788, 329.229 333.474, 340.782 327.787 L 347.458 324.500 372.479 324.500 L 397.500 324.500 403.500 327.301 C 415.307 332.812, 423.173 343.766, 424.549 356.610 L 425.233 363 449.116 363 L 473 363 473 318.500 L 473 274 298 274 L 123 274 123 318.500 M 171.500 296.383 C 154.926 304.218, 152.088 325.360, 166.009 337.276 C 171.517 341.990, 175.698 343.316, 183.493 342.820 C 196.301 342.004, 205.097 332.966, 205.838 319.861 C 206.170 313.980, 205.844 312.202, 203.589 307.592 C 197.680 295.514, 183.681 290.624, 171.500 296.383 M 255.419 295.897 C 245.829 300.253, 240.477 309.439, 241.171 320.351 C 241.978 333.012, 250.931 342.019, 263.507 342.820 C 271.302 343.316, 275.483 341.990, 280.991 337.276 C 295.057 325.236, 291.932 303.745, 275 296.081 C 269.265 293.485, 260.904 293.406, 255.419 295.897 M 179 309.706 C 175.235 311.082, 173 314.358, 173 318.500 C 173 325.138, 179.148 329.424, 185.121 326.950 C 188.086 325.722, 191 321.534, 191 318.500 C 191 315.306, 188.003 311.197, 184.881 310.108 C 181.431 308.906, 181.228 308.892, 179 309.706 M 261.421 310.396 C 255.085 313.202, 254.452 322.439, 260.345 326.112 C 266.621 330.023, 274 325.909, 274 318.500 C 274 311.609, 267.761 307.589, 261.421 310.396 M 33 325.500 L 33 333 70 333 L 107 333 107 325.500 L 107 318 70 318 L 33 318 33 325.500 M 346.871 342.006 C 340.240 345.510, 336.021 352.594, 336.006 360.250 L 336 363 372.500 363 L 409 363 409 358.968 C 409 356.750, 408.379 353.488, 407.619 351.718 C 405.937 347.796, 400.503 342.501, 396.685 341.061 C 395.001 340.426, 385.156 340.018, 372.185 340.044 C 352.791 340.084, 350.117 340.291, 346.871 342.006 M 33 407.500 L 33 467 70 467 L 107 467 107 407.500 L 107 348 70 348 L 33 348 33 407.500 M 61.500 367.336 C 56.821 369.463, 52.120 373.863, 49.706 378.376 C 47.666 382.190, 47.476 384.094, 47.179 403.700 C 46.713 434.525, 47.059 435, 70 435 C 92.548 435, 93.003 434.423, 92.994 405.849 C 92.991 395.207, 92.537 384.872, 91.984 382.882 C 90.542 377.690, 87.110 373.024, 82.192 369.567 C 78.643 367.073, 76.771 366.510, 71.207 366.266 C 67.068 366.085, 63.351 366.494, 61.500 367.336 M 123 385.500 L 123 393 254.889 393 C 382.261 393, 386.858 393.064, 389.089 394.871 C 390.762 396.225, 391.400 397.780, 391.400 400.500 C 391.400 403.220, 390.762 404.775, 389.089 406.129 C 386.858 407.936, 382.261 408, 254.889 408 L 123 408 123 437.500 L 123 467 298 467 L 473 467 473 437.500 L 473 408 443.455 408 L 413.909 408 411.455 405.545 C 410.105 404.195, 409 401.925, 409 400.500 C 409 399.075, 410.105 396.805, 411.455 395.455 L 413.909 393 450.955 393 L 488 393 488 385.500 L 488 378 305.500 378 L 123 378 123 385.500 M 65.635 383.073 L 63 385.145 63 402.573 L 63 420 70 420 L 77 420 77 402.573 L 77 385.145 74.365 383.073 C 72.916 381.933, 70.952 381, 70 381 C 69.048 381, 67.084 381.933, 65.635 383.073 M 151.923 426.923 C 149.118 429.728, 149 430.216, 149 439 C 149 447.784, 149.118 448.272, 151.923 451.077 C 153.531 452.685, 155.815 454, 157 454 C 158.185 454, 160.469 452.685, 162.077 451.077 C 164.882 448.272, 165 447.784, 165 439 C 165 430.216, 164.882 429.728, 162.077 426.923 C 160.469 425.315, 158.185 424, 157 424 C 155.815 424, 153.531 425.315, 151.923 426.923 M 187.417 426.317 C 185.049 428.355, 184.667 429.534, 184.257 436.067 C 183.683 445.206, 184.790 449.754, 188.207 452.305 C 191.243 454.572, 194.927 454.073, 198.025 450.975 C 199.727 449.273, 199.996 447.651, 199.968 439.250 C 199.935 429.129, 199.332 427.302, 195.316 425.163 C 192.135 423.469, 190.441 423.717, 187.417 426.317 M 224.315 424.985 C 220.836 426.422, 220 429.229, 220 439.480 C 220 448.351, 220.189 449.280, 222.455 451.545 C 223.805 452.895, 226.075 454, 227.500 454 C 228.925 454, 231.195 452.895, 232.545 451.545 C 234.822 449.269, 235 448.371, 235 439.156 C 235 431.149, 234.660 428.820, 233.250 427.153 C 231.155 424.677, 227.318 423.746, 224.315 424.985 M 259.500 425.155 C 255.575 427.301, 255 429.096, 255 439.191 C 255 447.625, 255.277 449.277, 256.975 450.975 C 260.073 454.073, 263.757 454.572, 266.793 452.305 C 270.210 449.754, 271.317 445.206, 270.743 436.067 C 270.333 429.534, 269.951 428.355, 267.583 426.317 C 264.633 423.780, 262.559 423.482, 259.500 425.155 M 292.923 426.923 C 290.118 429.728, 290 430.216, 290 439 C 290 447.784, 290.118 448.272, 292.923 451.077 C 294.531 452.685, 296.815 454, 298 454 C 299.185 454, 301.469 452.685, 303.077 451.077 C 305.882 448.272, 306 447.784, 306 439 C 306 430.216, 305.882 429.728, 303.077 426.923 C 301.469 425.315, 299.185 424, 298 424 C 296.815 424, 294.531 425.315, 292.923 426.923 M 328.417 426.317 C 326.049 428.355, 325.667 429.534, 325.257 436.067 C 324.683 445.206, 325.790 449.754, 329.207 452.305 C 332.243 454.572, 335.927 454.073, 339.025 450.975 C 340.727 449.273, 340.996 447.651, 340.968 439.250 C 340.935 429.129, 340.332 427.302, 336.316 425.163 C 333.135 423.469, 331.441 423.717, 328.417 426.317 M 365.315 424.985 C 361.836 426.422, 361 429.229, 361 439.480 C 361 448.351, 361.189 449.280, 363.455 451.545 C 364.805 452.895, 367.075 454, 368.500 454 C 369.925 454, 372.195 452.895, 373.545 451.545 C 375.822 449.269, 376 448.371, 376 439.156 C 376 431.149, 375.660 428.820, 374.250 427.153 C 372.155 424.677, 368.318 423.746, 365.315 424.985 M 400.500 425.155 C 396.575 427.301, 396 429.096, 396 439.191 C 396 447.625, 396.277 449.277, 397.975 450.975 C 401.073 454.073, 404.757 454.572, 407.793 452.305 C 411.210 449.754, 412.317 445.206, 411.743 436.067 C 411.333 429.534, 410.951 428.355, 408.583 426.317 C 405.633 423.780, 403.559 423.482, 400.500 425.155 M 433.923 426.923 C 431.118 429.728, 431 430.216, 431 439 C 431 447.784, 431.118 448.272, 433.923 451.077 C 435.531 452.685, 437.815 454, 439 454 C 440.185 454, 442.469 452.685, 444.077 451.077 C 446.882 448.272, 447 447.784, 447 439 C 447 430.216, 446.882 429.728, 444.077 426.923 C 442.469 425.315, 440.185 424, 439 424 C 437.815 424, 435.531 425.315, 433.923 426.923 M 19.079 483.261 C 14.042 485.838, 14.354 494.043, 19.564 496.024 C 21.256 496.668, 104.272 496.923, 257.546 496.756 C 479.450 496.515, 493.028 496.401, 494.664 494.764 C 496.923 492.506, 496.923 486.494, 494.664 484.236 C 493.028 482.599, 479.447 482.486, 257.214 482.261 C 71.377 482.073, 20.988 482.285, 19.079 483.261 M 0.310 489.500 C 0.315 492.800, 0.502 494.029, 0.725 492.232 C 0.947 490.435, 0.943 487.735, 0.715 486.232 C 0.486 484.729, 0.304 486.200, 0.310 489.500" stroke="none" fill="currentColor" fill-rule="evenodd"/>
</svg>