<svg xmlns="http://www.w3.org/2000/svg" width="512" height="512" viewBox="0 0 512 512" version="1.1">
	<path d="M 248 17.252 L 248 34.504 243.266 38.008 C 240.663 39.935, 237.400 43.534, 236.016 46.006 C 233.687 50.166, 233.475 51.644, 233.157 65.908 L 232.815 81.317 227.416 86.250 C 223.691 89.655, 220.854 93.539, 218.259 98.785 L 214.500 106.386 214.167 123.693 L 213.835 141 205.417 141 L 197 141 197 192 L 197 243 187 243 L 177 243 177 232.500 L 177 222 169.500 222 L 162 222 162 367 L 162 512 169.500 512 L 177 512 177 417.500 L 177 323 256 323 L 335 323 335 417.500 L 335 512 342.500 512 L 350 512 350 367 L 350 222 342.500 222 L 335 222 335 232.500 L 335 243 325 243 L 315 243 315 192 L 315 141 306.583 141 L 298.165 141 297.833 123.693 L 297.500 106.386 293.741 98.785 C 291.146 93.539, 288.309 89.655, 284.584 86.250 L 279.185 81.317 278.843 65.908 C 278.525 51.644, 278.313 50.166, 275.984 46.006 C 274.600 43.534, 271.337 39.935, 268.734 38.008 L 264 34.504 264 17.252 L 264 0 256 0 L 248 0 248 17.252 M 251.635 51.073 C 249.076 53.086, 249 53.459, 249 64.073 L 249 75 256 75 L 263 75 263 64.073 C 263 53.459, 262.924 53.086, 260.365 51.073 C 258.916 49.933, 256.952 49, 256 49 C 255.048 49, 253.084 49.933, 251.635 51.073 M 248.821 91.347 C 239.850 93.855, 231.996 102.129, 230.072 111.100 C 229.482 113.849, 229 121.701, 229 128.549 L 229 141 256.107 141 L 283.214 141 282.842 125.750 C 282.415 108.244, 281.063 104, 273.831 97.466 C 266.825 91.136, 257.624 88.885, 248.821 91.347 M 212 200 C 212 239.865, 212.466 247.410, 214.525 240.921 C 214.888 239.777, 218.069 235.785, 221.593 232.049 L 228 225.257 228 211.810 C 228 196.311, 229.353 190.315, 234.319 183.805 C 244.739 170.143, 267.117 170.106, 277.523 183.734 C 282.692 190.504, 284 196.172, 284 211.810 L 284 225.257 290.407 232.049 C 293.931 235.785, 297.112 239.777, 297.475 240.921 C 299.534 247.410, 300 239.865, 300 200 L 300 157 256 157 L 212 157 212 200 M 249.763 190.565 C 245.262 193.007, 244 196.761, 244 207.700 L 244 217.500 256 217.500 L 268 217.500 268 207.700 C 268 200.897, 267.536 197.004, 266.483 194.967 C 263.655 189.498, 255.625 187.384, 249.763 190.565 M 162 200 L 162 208 169.500 208 L 177 208 177 200 L 177 192 169.500 192 L 162 192 162 200 M 335 200 L 335 208 342.500 208 L 350 208 350 200 L 350 192 342.500 192 L 335 192 335 200 M 248.734 233.030 C 237.645 235.815, 229.613 243.368, 225.089 255.265 L 224.050 258 200.525 258 L 177 258 177 283 L 177 308 202.399 308 L 227.798 308 228.228 291.250 C 228.707 272.559, 229.417 269.864, 235.705 262.905 C 241.612 256.366, 246.070 254.525, 256 254.521 C 262.226 254.518, 265.366 254.988, 267.737 256.277 C 273.208 259.253, 278.005 264.082, 280.779 269.410 C 283.278 274.208, 283.453 275.462, 283.816 291.250 L 284.202 308 309.601 308 L 335 308 335 283 L 335 258 311.475 258 L 287.950 258 286.911 255.265 C 283.231 245.588, 277.511 239.075, 269.414 235.346 C 263.627 232.681, 254.289 231.635, 248.734 233.030 M 251.415 270.382 C 249.719 271.143, 247.356 273.003, 246.165 274.517 C 244.158 277.068, 244 278.393, 244 292.635 L 244 308 256 308 L 268 308 267.985 293.250 C 267.976 283.535, 267.549 277.680, 266.735 276.096 C 263.922 270.623, 256.804 267.968, 251.415 270.382 M 193 283 L 193 293 201 293 L 209 293 209 283 L 209 273 201 273 L 193 273 193 283 M 303 283 L 303 293 311 293 L 319 293 319 283 L 319 273 311 273 L 303 273 303 283 M 192 372 L 192 406 213 406 L 234 406 234 372 L 234 338 213 338 L 192 338 192 372 M 278 372 L 278 406 299 406 L 320 406 320 372 L 320 338 299 338 L 278 338 278 372 M 248 353 L 248 361 256 361 L 264 361 264 353 L 264 345 256 345 L 248 345 248 353 M 207 371.500 L 207 390 213 390 L 219 390 219 371.500 L 219 353 213 353 L 207 353 207 371.500 M 293 371.500 L 293 390 299 390 L 305 390 305 371.500 L 305 353 299 353 L 293 353 293 371.500 M 248 396.500 L 248 418 256 418 L 264 418 264 396.500 L 264 375 256 375 L 248 375 248 396.500 M 192 452.500 L 192 486 213 486 L 234 486 234 452.500 L 234 419 213 419 L 192 419 192 452.500 M 278 452.500 L 278 486 299 486 L 320 486 320 452.500 L 320 419 299 419 L 278 419 278 452.500 M 248 440 L 248 448 256 448 L 264 448 264 440 L 264 432 256 432 L 248 432 248 440 M 207 452.500 L 207 470 213 470 L 219 470 219 452.500 L 219 435 213 435 L 207 435 207 452.500 M 293 452.500 L 293 470 299 470 L 305 470 305 452.500 L 305 435 299 435 L 293 435 293 452.500 M 248 470 L 248 478 256 478 L 264 478 264 470 L 264 462 256 462 L 248 462 248 470" stroke="none" fill="currentColor" fill-rule="evenodd"/>
</svg>