<svg xmlns="http://www.w3.org/2000/svg" width="512" height="512" viewBox="0 0 512 512" version="1.1">
	<path d="M 358.907 23.325 C 356.160 24.774, 353.659 27.128, 352.266 29.575 C 350.227 33.159, 350.031 34.824, 350.016 48.750 L 350 64 343.955 64 C 336.480 64, 333 66.701, 333 72.500 C 333 78.264, 336.489 81, 343.838 81 L 349.767 81 350.185 90.750 C 350.527 98.746, 351.111 101.622, 353.431 106.735 C 354.987 110.165, 356.883 113.488, 357.644 114.119 C 358.744 115.032, 357.623 115.740, 352.165 117.578 C 348.390 118.849, 343.640 120.870, 341.608 122.069 C 339.577 123.267, 337.757 124.080, 337.565 123.874 C 337.372 123.668, 328.355 109.100, 317.527 91.500 C 306.699 73.900, 296.725 58.488, 295.364 57.250 C 291.861 54.066, 287.525 54.321, 283.923 57.923 C 280.811 61.035, 280.291 63.777, 282.143 67.316 C 282.772 68.517, 292.230 83.998, 303.162 101.717 C 314.093 119.436, 323.284 134.577, 323.586 135.363 C 323.887 136.149, 322.786 139.462, 321.138 142.726 C 314.789 155.303, 313.532 166.947, 317.053 180.562 C 319.734 190.929, 326.826 205.493, 331.572 210.374 C 335.565 214.483, 343.999 218.974, 347.750 218.990 L 350 219 350 251.941 C 350 270.059, 349.663 285.080, 349.250 285.323 C 348.837 285.566, 345.012 285.533, 340.750 285.251 L 333 284.737 333 266.792 L 333 248.846 330.077 245.923 C 325.282 241.128, 319.013 242.332, 316.415 248.548 C 315.389 251.006, 315 256.474, 315 268.468 L 315 285 307 285 L 299 285 299 266.923 L 299 248.846 296.077 245.923 C 292.414 242.260, 288.187 242.076, 284.306 245.411 L 281.500 247.823 281.188 266.411 L 280.876 285 272.938 285 L 265 285 265 266.923 L 265 248.846 262.077 245.923 C 258.414 242.260, 254.187 242.076, 250.306 245.411 L 247.500 247.823 247.188 266.411 L 246.876 285 231.938 285 C 223.722 285, 217 284.827, 217 284.615 C 217 283.446, 234.177 227.537, 235.020 225.963 C 235.574 224.928, 237.672 222.826, 239.683 221.291 L 243.340 218.500 277.258 218 L 311.176 217.500 313.588 214.694 C 316.672 211.107, 316.671 206.891, 313.585 203.306 L 311.171 200.500 276.335 200.500 L 241.500 200.500 235.880 203.135 C 228.274 206.702, 222.635 212.030, 219.268 218.834 C 217.726 221.950, 212.422 238.109, 207.482 254.742 L 198.500 284.984 193.250 284.992 L 188 285 188 279.565 C 188 272.811, 186.753 269.408, 182.761 265.269 C 178.855 261.220, 175.892 260.304, 164 259.472 C 121.458 256.494, 95.888 241.581, 84.351 213.017 C 82.200 207.691, 80.695 201.309, 76.859 181.240 C 75.660 174.964, 72.160 170.432, 66.541 167.880 C 63.348 166.429, 59.972 166.039, 50.460 166.022 C 32.699 165.990, 23.424 168.881, 14.292 177.298 C 3.963 186.819, -0 196.447, -0 212.018 C -0 222.952, 0.830 225.616, 5.661 230.186 C 9.504 233.823, 13.027 235, 20.065 235 L 26 235 26.011 239.250 C 26.017 241.588, 26.290 245.122, 26.618 247.104 L 27.214 250.709 20.803 251.224 C 17.277 251.507, 13.417 252.347, 12.225 253.091 C 7.330 256.148, 7.083 263.347, 11.747 267.016 C 13.795 268.627, 15.806 269, 22.438 269 L 30.606 269 33.042 276.250 C 34.381 280.238, 35.628 284.063, 35.812 284.750 C 36.057 285.664, 34.235 286, 29.028 286 C 22.803 286, 21.601 286.308, 19.455 288.455 C 16.115 291.794, 16.115 297.206, 19.455 300.545 C 21.784 302.875, 22.513 303, 33.729 303 L 45.548 303 49.786 308.820 C 54.674 315.532, 67.282 328.239, 74.356 333.584 C 77.027 335.602, 82.171 338.983, 85.787 341.096 L 92.362 344.938 48.594 345.219 L 4.825 345.500 2.413 348.306 C -1.098 352.389, -0.839 357.116, 3.077 360.411 L 6.153 363 256.042 363 L 505.930 363 509.465 359.896 C 512.270 357.434, 513 356.056, 513 353.230 C 513 351.270, 512.729 349.938, 512.397 350.270 C 512.066 350.601, 510.756 349.664, 509.486 348.186 L 507.178 345.500 490.599 345.183 C 475.108 344.886, 473.923 344.728, 472.556 342.777 C 471.176 340.806, 471.496 340.316, 478.228 334.094 C 494.435 319.114, 505.806 298.916, 510.547 276.685 C 512.557 267.255, 512.540 241.945, 510.520 238.039 C 508.057 233.277, 504.313 231, 498.942 231 C 493.134 231, 488.688 234.246, 486.015 240.436 C 481.377 251.177, 468.895 263.092, 455.013 270.027 C 449.248 272.907, 436.762 278, 435.465 278 C 435.196 278, 435.094 261.061, 435.238 240.358 L 435.500 202.717 447.367 197.608 C 461.251 191.632, 466.707 187.333, 470.681 179.240 C 472.972 174.575, 473.495 172.188, 473.473 166.500 C 473.441 158.156, 471.613 153.623, 463.963 142.908 C 453.460 128.200, 445.812 121.948, 433.073 117.658 C 427.429 115.758, 426.257 115.032, 427.356 114.119 C 428.117 113.488, 430.013 110.165, 431.569 106.735 C 433.889 101.622, 434.473 98.746, 434.815 90.750 L 435.233 81 441.061 81 C 445.697 81, 447.400 80.540, 449.389 78.750 C 453.194 75.327, 453.260 70.169, 449.545 66.455 C 447.487 64.396, 446.127 64, 441.113 64 L 435.135 64 434.817 47.750 C 434.454 29.126, 433.645 26.943, 425.677 23.086 C 421.613 21.118, 419.723 21, 392.342 21 C 363.892 21, 363.227 21.046, 358.907 23.325 M 367 51.500 L 367 64 392.500 64 L 418 64 418 51.500 L 418 39 392.500 39 L 367 39 367 51.500 M 368.353 82.238 C 366.717 84.886, 367.586 96.397, 369.732 100.500 C 374.515 109.642, 382.359 114.447, 392.500 114.447 C 400.270 114.447, 404.263 112.879, 409.838 107.638 C 415.008 102.777, 417.384 97.424, 417.446 90.500 C 417.538 80.285, 419.408 81, 392.590 81 C 375.016 81, 368.926 81.311, 368.353 82.238 M 356.818 134.377 C 354.793 135.114, 351.783 136.574, 350.129 137.621 L 347.122 139.525 355.723 153.513 C 360.454 161.206, 364.443 167.654, 364.587 167.842 C 364.732 168.030, 368.146 166.579, 372.175 164.619 C 376.204 162.659, 383.535 159.336, 388.467 157.236 C 396.826 153.677, 397.483 153.185, 398.137 149.983 C 399.050 145.522, 402.253 143, 407.007 143 C 410.084 143, 411.370 143.658, 413.878 146.513 C 420.208 153.724, 421.357 159.557, 417.190 163.328 C 416.256 164.173, 406.944 168.505, 396.496 172.956 C 374.473 182.338, 372 184.240, 372 191.793 C 372 197.179, 373.753 200.304, 378.011 202.506 C 383.543 205.366, 386.857 204.419, 418.671 190.879 C 453.518 176.048, 456 174.438, 456 166.672 C 456 163.056, 455.126 161.051, 450.869 154.907 C 443.966 144.941, 438.501 139.365, 432.500 136.166 L 427.500 133.500 394 133.268 C 368.023 133.089, 359.673 133.338, 356.818 134.377 M 334.116 157.098 C 332.081 162.935, 332.786 172.807, 335.870 181.667 C 339.815 193.002, 343.440 198.868, 347.563 200.591 C 354.305 203.408, 354.627 203.057, 354.378 193.150 L 354.155 184.299 344.941 169.400 C 339.873 161.205, 335.615 154.365, 335.479 154.199 C 335.343 154.033, 334.729 155.338, 334.116 157.098 M 33.910 185.371 C 24.122 188.870, 18.187 197.490, 17.276 209.531 L 16.711 217 26.106 217.004 C 33.653 217.007, 36.128 217.391, 38.696 218.956 C 42.325 221.169, 42.595 222.217, 43.480 237.513 C 45.148 266.359, 55.279 290.915, 73 309.069 C 88.894 325.352, 107.863 335.407, 135.500 342.199 L 144.500 344.411 280.470 344.733 C 430.210 345.088, 422.574 345.370, 438.989 338.883 C 443.395 337.142, 446.987 335.443, 446.972 335.109 C 446.957 334.774, 442.067 326.625, 436.106 317 C 426.848 302.053, 424.920 299.512, 422.884 299.584 C 421.573 299.630, 414.946 300.418, 408.158 301.334 C 397.294 302.801, 383.130 303, 289.868 303 C 186.298 303, 183.833 302.956, 180.044 301.023 C 173.639 297.755, 170.018 290.678, 170.006 281.402 L 170 277.304 159.724 276.675 C 127.639 274.712, 101.362 263.901, 84.274 245.633 C 71.854 232.357, 64.730 215.905, 60.941 191.750 L 59.726 184 48.613 184.044 C 42.216 184.069, 35.976 184.632, 33.910 185.371 M 407.574 214.688 C 402.115 217.070, 397.450 219.217, 397.207 219.460 C 396.964 219.702, 401.431 227.461, 407.133 236.700 L 417.500 253.500 417.783 242.195 C 417.939 235.977, 417.939 226.270, 417.783 220.624 L 417.500 210.358 407.574 214.688 M 367 251.546 L 367 286 375.500 286 L 384 286 384 279.955 C 384 272.480, 386.701 269, 392.500 269 C 398.083 269, 401 272.526, 401 279.276 L 401 284.642 407.645 283.842 C 411.300 283.402, 414.408 282.920, 414.552 282.771 C 414.695 282.622, 406.381 268.861, 396.076 252.191 C 377.418 222.009, 377.318 221.873, 372.170 219.487 L 367 217.092 367 251.546 M 489 266.352 C 478.811 277.194, 464.152 286.660, 449.250 292.020 C 445.813 293.256, 443 294.405, 443 294.572 C 443 294.867, 460.963 324.058, 461.690 324.944 C 461.891 325.188, 465.001 322.488, 468.602 318.944 C 481.071 306.671, 489.556 290.849, 493.179 273.114 C 495.869 259.945, 495.533 259.401, 489 266.352 M 0.252 354.500 C 0.263 356.700, 0.468 357.482, 0.707 356.238 C 0.946 354.994, 0.937 353.194, 0.687 352.238 C 0.437 351.282, 0.241 352.300, 0.252 354.500 M 29.750 389.080 C 27.132 390.605, 24.871 395.637, 25.563 398.397 C 25.897 399.724, 27.292 401.866, 28.665 403.155 C 31.142 405.482, 31.346 405.500, 55.476 405.500 C 78.383 405.500, 79.918 405.384, 82.010 403.500 C 85.423 400.424, 86.199 397.413, 84.578 393.533 C 83.803 391.678, 82.261 389.675, 81.150 389.080 C 78.497 387.661, 32.188 387.660, 29.750 389.080 M 104.923 390.923 C 103.315 392.531, 102 394.803, 102 395.973 C 102 399.651, 104.802 403.735, 108.119 404.892 C 112.628 406.463, 399.372 406.463, 403.881 404.892 C 407.198 403.735, 410 399.651, 410 395.973 C 410 394.803, 408.685 392.531, 407.077 390.923 L 404.154 388 256 388 L 107.846 388 104.923 390.923 M 430.656 389.133 C 429.642 389.722, 428.183 391.712, 427.413 393.554 C 425.801 397.413, 426.583 400.430, 429.990 403.500 C 432.082 405.384, 433.617 405.500, 456.524 405.500 C 480.654 405.500, 480.858 405.482, 483.335 403.155 C 484.708 401.866, 486.103 399.724, 486.437 398.397 C 487.155 395.536, 484.798 390.497, 482.055 389.030 C 479.409 387.614, 433.110 387.706, 430.656 389.133 M 71.881 432.007 C 69.571 433.357, 67.665 438.527, 68.399 441.453 C 68.743 442.823, 70.004 444.857, 71.201 445.972 C 73.322 447.949, 74.549 448, 119.600 448 L 165.822 448 168.411 444.923 C 172.033 440.619, 171.516 435.682, 167.087 432.282 C 165.114 430.767, 74.451 430.505, 71.881 432.007 M 190.611 433.250 C 186.806 436.673, 186.740 441.831, 190.455 445.545 L 192.909 448 277.500 448 L 362.091 448 364.545 445.545 C 367.885 442.206, 367.885 436.794, 364.545 433.455 L 362.091 431 277.601 431 L 193.112 431 190.611 433.250 M 386.455 433.455 C 384.760 435.149, 384 437.021, 384 439.500 C 384 441.979, 384.760 443.851, 386.455 445.545 L 388.909 448 413.766 448 C 437.354 448, 438.734 447.896, 440.799 445.972 C 444.861 442.188, 444.834 436.786, 440.733 432.966 C 438.752 431.121, 437.098 431, 413.766 431 L 388.909 431 386.455 433.455 M 133.357 473.992 C 130.295 475.227, 128 478.930, 128 482.634 C 128 484.967, 128.826 486.517, 131.077 488.411 L 134.153 491 158.154 491 L 182.154 491 185.077 488.077 C 189.677 483.477, 188.768 477.483, 183.020 474.510 C 180.659 473.289, 175.826 473.012, 157.800 473.063 C 145.535 473.098, 134.536 473.516, 133.357 473.992 M 211 473.697 C 206.065 475.530, 203.638 481.287, 205.621 486.455 C 207.375 491.026, 206.859 491, 294.874 491 L 377.847 491 380.923 488.411 C 384.839 485.116, 385.099 480.389, 381.587 476.306 L 379.174 473.500 295.837 473.320 C 250.002 473.221, 211.825 473.391, 211 473.697" stroke="none" fill="currentColor" fill-rule="evenodd"/>
</svg>