<svg xmlns="http://www.w3.org/2000/svg" width="512" height="512" viewBox="0 0 512 512" version="1.1">
	<path d="M 248.923 2.923 L 246 5.846 246 27.529 C 246 49.198, 245.998 49.213, 243.500 52.182 C 241.782 54.225, 241 56.356, 241 59 C 241 61.644, 241.782 63.775, 243.500 65.818 C 245.806 68.558, 246 69.574, 246 78.894 C 246 88.458, 245.889 89, 243.923 89 C 242.781 89, 240.531 90.315, 238.923 91.923 C 234.807 96.039, 234.807 101.961, 238.923 106.077 C 240.531 107.685, 242.781 109, 243.923 109 C 245.887 109, 246 109.543, 246 119 L 246 129 240.516 129 C 235.932 129, 234.536 129.451, 232.012 131.750 C 229.169 134.339, 228.663 136.049, 223.354 161 L 217.714 187.500 212.322 194.467 C 209.356 198.298, 206.671 202.461, 206.356 203.717 C 204.841 209.752, 209.782 216, 216.069 216 C 220.416 216, 224.110 213.335, 228.458 207.061 L 231.272 203 255.950 203 L 280.629 203 286.644 211.250 C 293.865 221.155, 303.240 236.530, 308.777 247.551 C 326.092 282.014, 340.242 329.286, 342.661 360.749 L 343.295 369 255.999 369 L 168.703 369 169.308 360.750 C 170.455 345.093, 175.757 320.126, 182.608 298.119 C 186.396 285.948, 186.420 283.180, 182.766 279.265 C 178.269 274.447, 169.686 275.838, 166.555 281.893 C 164.059 286.721, 156.082 315.562, 152.990 330.936 C 151.380 338.946, 149.515 350.788, 148.847 357.250 L 147.631 369 144.739 369 C 142.875 369, 140.806 370.040, 138.923 371.923 L 136 374.846 136 393.423 L 136 412 128.923 412 C 122.435 412, 121.603 412.243, 118.923 414.923 L 116 417.846 116 462 L 116 506.154 118.923 509.077 L 121.846 512 256 512 L 390.154 512 393.077 509.077 L 396 506.154 396 462 L 396 417.846 393.077 414.923 C 390.397 412.243, 389.565 412, 383.077 412 L 376 412 376 393.423 L 376 374.846 373.077 371.923 C 371.163 370.009, 369.132 369, 367.194 369 L 364.235 369 363.535 361.250 C 360.987 333.040, 351.736 296.435, 339.084 264.500 C 330.139 241.922, 312.305 210.319, 299.018 193.500 L 294.279 187.500 288.643 161 C 283.336 136.046, 282.831 134.340, 279.988 131.750 C 277.464 129.451, 276.068 129, 271.484 129 L 266 129 266 119 C 266 109.543, 266.113 109, 268.077 109 C 269.219 109, 271.469 107.685, 273.077 106.077 C 277.193 101.961, 277.193 96.039, 273.077 91.923 C 271.469 90.315, 269.219 89, 268.077 89 C 266.111 89, 266 88.458, 266 78.894 C 266 69.574, 266.194 68.558, 268.500 65.818 C 270.218 63.775, 271 61.644, 271 59 C 271 56.356, 270.218 54.225, 268.500 52.182 C 266.002 49.213, 266 49.198, 266 27.529 L 266 5.846 263.077 2.923 C 258.961 -1.193, 253.039 -1.193, 248.923 2.923 M 246.632 150.750 C 246.050 152.772, 240 180.869, 240 181.547 C 240 181.796, 247.200 182, 256 182 C 264.800 182, 272 181.796, 272 181.547 C 272 180.869, 265.950 152.772, 265.368 150.750 C 264.938 149.253, 263.585 149, 256 149 C 248.415 149, 247.062 149.253, 246.632 150.750 M 185.923 237.923 C 183.939 239.907, 183 241.850, 183 243.973 C 183 252.550, 190.566 257.344, 198.020 253.490 C 207.091 248.799, 203.345 235, 193 235 C 189.742 235, 188.216 235.631, 185.923 237.923 M 156 400.500 L 156 412 218.077 412 L 280.154 412 283.077 414.923 C 285.369 417.216, 286 418.742, 286 422 C 286 425.258, 285.369 426.784, 283.077 429.077 L 280.154 432 208.077 432 L 136 432 136 462 L 136 492 153.500 492 L 171 492 171 474.923 L 171 457.846 173.923 454.923 C 178.039 450.807, 183.961 450.807, 188.077 454.923 L 191 457.846 191 474.923 L 191 492 206 492 L 221 492 221 474.923 L 221 457.846 223.923 454.923 C 226.216 452.631, 227.742 452, 231 452 C 234.258 452, 235.784 452.631, 238.077 454.923 L 241 457.846 241 474.923 L 241 492 256 492 L 271 492 271 474.923 L 271 457.846 273.923 454.923 C 276.216 452.631, 277.742 452, 281 452 C 284.258 452, 285.784 452.631, 288.077 454.923 L 291 457.846 291 474.923 L 291 492 306 492 L 321 492 321 474.923 L 321 457.846 323.923 454.923 C 328.039 450.807, 333.961 450.807, 338.077 454.923 L 341 457.846 341 474.923 L 341 492 358.500 492 L 376 492 376 462 L 376 432 368.923 432 C 362.435 432, 361.603 431.757, 358.923 429.077 L 356 426.154 356 407.577 L 356 389 256 389 L 156 389 156 400.500 M 313.923 414.923 C 311.631 417.216, 311 418.742, 311 422 C 311 425.258, 311.631 426.784, 313.923 429.077 C 320.365 435.518, 331 431.111, 331 422 C 331 418.742, 330.369 417.216, 328.077 414.923 C 325.784 412.631, 324.258 412, 321 412 C 317.742 412, 316.216 412.631, 313.923 414.923" stroke="none" fill="currentColor" fill-rule="evenodd"/>
</svg>