<svg xmlns="http://www.w3.org/2000/svg" width="512" height="512" viewBox="0 0 512 512" version="1.1">
	<path d="M 137.500 46.035 C -2.422 101.439, 9.268 96.581, 7.458 100.081 C 5.156 104.532, 5.637 108.563, 8.908 112.223 C 11.663 115.306, 12.240 115.496, 19.908 115.844 L 28 116.212 28 127.638 C 28 145.606, 30.529 149, 43.915 149 L 50.929 149 54.318 159.750 L 57.707 170.500 53.391 279.500 C 51.017 339.450, 49.058 391.988, 49.038 396.250 L 49 404 42.223 404 C 29.566 404, 28 406.802, 28 429.450 L 28 446 16.923 446 C 6.013 446, 5.802 446.044, 2.923 448.923 L -0 451.846 -0 477.876 C -0 495.927, 0.366 504.710, 1.195 506.528 C 3.862 512.383, -13.970 512, 255.903 512 C 441.665 512, 504.544 511.709, 506.447 510.842 C 507.845 510.205, 509.891 508.154, 510.994 506.285 C 512.864 503.116, 513 501.113, 513 476.776 C 513 462.416, 512.755 450.912, 512.455 451.212 C 512.155 451.511, 510.615 450.461, 509.032 448.878 C 506.208 446.054, 505.947 446, 495.077 446 L 484 446 484 429.450 C 484 406.802, 482.434 404, 469.777 404 L 463 404 462.962 396.250 C 462.942 391.988, 460.983 339.450, 458.609 279.500 L 454.293 170.500 457.682 159.750 L 461.071 149 468.085 149 C 481.471 149, 484 145.606, 484 127.638 L 484 116.212 492.092 115.844 C 499.760 115.496, 500.337 115.306, 503.092 112.223 C 506.368 108.556, 506.843 104.532, 504.529 100.056 C 503.449 97.968, 501.120 96.405, 495.779 94.185 C 463.511 80.774, 257.641 0.011, 255.824 0.051 C 254.546 0.079, 201.300 20.772, 137.500 46.035 M 163.282 58.278 L 72.064 94.500 206.114 95 L 340.164 95.500 343.082 98.766 C 347.626 103.851, 346.630 110.426, 340.775 113.996 C 337.542 115.967, 335.658 115.993, 193.250 115.996 L 49 116 49 122 L 49 128 256 128 L 463 128 462.993 115.750 L 462.985 103.500 360.746 63.064 C 304.515 40.825, 257.606 22.500, 256.504 22.342 C 255.402 22.185, 213.452 38.356, 163.282 58.278 M 369.110 96.396 C 363.434 99.541, 362.370 107.144, 366.896 112.210 C 369.588 115.223, 370.316 115.477, 377.249 115.827 C 385.907 116.264, 390.082 114.677, 392.483 110.033 C 394.897 105.364, 394.382 102.182, 390.600 98.400 C 387.302 95.102, 386.964 95.001, 379.350 95.035 C 374.769 95.056, 370.505 95.623, 369.110 96.396 M 73 149.322 C 73 149.499, 73.717 151.749, 74.594 154.322 L 76.188 159 89.436 159 L 102.683 159 103.842 155.134 C 104.479 153.008, 105 150.758, 105 150.134 C 105 149.336, 100.260 149, 89 149 C 80.200 149, 73 149.145, 73 149.322 M 124.204 159.814 L 120.908 170.652 125.458 286.576 C 127.960 350.334, 130.006 402.837, 130.004 403.250 C 130.002 403.663, 136.750 404, 145 404 L 160 404 160.019 398.750 C 160.030 395.863, 162.018 343.269, 164.437 281.875 L 168.836 170.250 165.555 159.875 L 162.275 149.500 144.887 149.237 L 127.500 148.975 124.204 159.814 M 185.537 153.750 C 186.330 156.363, 186.983 158.613, 186.989 158.750 C 186.995 158.887, 192.989 159, 200.309 159 L 213.618 159 215.217 154 L 216.816 149 200.456 149 L 184.096 149 185.537 153.750 M 238.683 149.727 C 238.427 150.152, 236.828 155.022, 235.128 160.549 L 232.038 170.598 236.516 284.549 C 238.979 347.222, 240.995 399.738, 240.997 401.250 L 241 404 256 404 L 271 404 271.003 401.250 C 271.005 399.738, 273.021 347.200, 275.484 284.500 L 279.963 170.500 276.690 160 L 273.418 149.500 256.282 149.227 C 246.858 149.076, 238.938 149.301, 238.683 149.727 M 296.783 154 L 298.382 159 311.691 159 C 319.011 159, 325.005 158.887, 325.011 158.750 C 325.017 158.613, 325.670 156.363, 326.463 153.750 L 327.904 149 311.544 149 L 295.184 149 296.783 154 M 349.504 150.250 C 349.266 150.938, 347.741 155.698, 346.116 160.830 L 343.160 170.160 347.561 281.830 C 349.981 343.248, 351.970 395.863, 351.981 398.750 L 352 404 367 404 C 375.250 404, 381.998 403.663, 381.995 403.250 C 381.992 402.837, 384.037 350.332, 386.539 286.570 L 391.088 170.640 387.794 159.828 L 384.500 149.015 367.219 149.008 C 354.286 149.002, 349.828 149.315, 349.504 150.250 M 407.783 154 L 409.382 159 422.597 159 L 435.812 159 437.406 154.322 C 438.283 151.749, 439 149.499, 439 149.322 C 439 149.145, 431.616 149, 422.592 149 L 406.184 149 407.783 154 M 77.996 184.250 C 77.994 186.588, 76.198 233.950, 74.005 289.500 C 71.812 345.050, 70.013 393.538, 70.009 397.250 L 70 404 89.642 404 L 109.283 404 108.659 392.250 C 108.316 385.788, 106.439 337.750, 104.488 285.500 C 102.537 233.250, 100.697 188.137, 100.399 185.250 L 99.856 180 88.928 180 L 78 180 77.996 184.250 M 188.991 186.217 C 188.987 189.673, 187.188 237.950, 184.995 293.500 C 182.802 349.050, 181.006 396.637, 181.004 399.250 L 181 404 200.500 404 L 220 404 219.933 398.250 C 219.897 395.087, 217.984 344.800, 215.683 286.500 L 211.500 180.500 200.250 180.217 L 189 179.934 188.991 186.217 M 300.578 181.250 C 300.381 181.938, 298.564 226.600, 296.540 280.500 C 294.516 334.400, 292.597 384.238, 292.276 391.250 L 291.691 404 311.346 404 L 331 404 330.996 399.250 C 330.994 396.637, 329.198 349.050, 327.005 293.500 C 324.812 237.950, 323.013 189.688, 323.009 186.250 L 323 180 311.969 180 C 304.002 180, 300.838 180.347, 300.578 181.250 M 411.601 185.250 C 411.303 188.137, 409.463 233.250, 407.512 285.500 C 405.561 337.750, 403.684 385.788, 403.341 392.250 L 402.717 404 422.358 404 L 442 404 441.997 397.750 C 441.995 394.313, 440.197 345.825, 438 290 C 435.803 234.175, 434.005 186.588, 434.003 184.250 L 434 180 423.072 180 L 412.144 180 411.601 185.250 M 49 435.500 L 49 446 256 446 L 463 446 463 435.500 L 463 425 256 425 L 49 425 49 435.500 M 0.438 478.500 C 0.437 493.350, 0.576 499.564, 0.747 492.310 C 0.918 485.055, 0.918 472.905, 0.748 465.310 C 0.578 457.714, 0.438 463.650, 0.438 478.500 M 21 479 L 21 491 256 491 L 491 491 491 479 L 491 467 256 467 L 21 467 21 479" stroke="none" fill="currentColor" fill-rule="evenodd"/>
</svg>