<svg xmlns="http://www.w3.org/2000/svg" width="512" height="512" viewBox="0 0 512 512" version="1.1">
	<path d="M 233.455 2.455 C 230.396 5.513, 230.322 9.114, 233.250 12.460 C 235.385 14.901, 239.304 15.725, 310 28.595 C 350.975 36.054, 385.942 42.210, 387.704 42.275 C 391.382 42.411, 394.581 39.970, 395.240 36.525 C 395.818 33.499, 393.718 28.489, 391.516 27.645 C 388.783 26.596, 241.752 0, 238.687 0 C 237.071 0, 234.882 1.027, 233.455 2.455 M 243.025 22.975 C 240.620 25.380, 241.280 22.453, 234 63 C 230.692 81.425, 227.770 97.453, 227.507 98.617 L 227.029 100.733 217.264 98.890 C 199.248 95.490, 196.286 95.383, 193.469 98.029 C 188.856 102.363, 190.601 109.230, 196.766 111.004 C 198.820 111.595, 243.684 119.914, 296.465 129.491 C 400.679 148.400, 395.585 147.787, 398.931 141.817 C 400.282 139.407, 400.266 138.781, 398.774 135.653 C 396.817 131.549, 396.917 131.587, 380.040 128.581 C 372.818 127.294, 366.695 126.028, 366.434 125.767 C 366.172 125.506, 366.461 122.949, 367.075 120.085 C 368.460 113.628, 367.113 109.703, 362.914 107.964 C 356.916 105.480, 352.583 109.468, 351.327 118.627 C 350.998 121.032, 350.473 123, 350.162 123 C 349.133 123, 325.506 118.734, 325.214 118.495 C 324.695 118.071, 334.173 67.546, 335.094 65.825 C 337.993 60.408, 348.241 57.963, 353.528 61.426 C 357.961 64.331, 359.350 68.536, 358.491 76.449 C 357.223 88.131, 357.413 90.106, 360.004 92.204 C 363.282 94.858, 368.751 94.265, 371.100 91 C 372.971 88.398, 379 57.738, 379 50.821 C 379 48.041, 378.358 46.640, 376.365 45.073 C 372.676 42.171, 369.311 42.456, 366.049 45.948 L 363.295 48.895 358.898 46.698 C 352.471 43.486, 339.123 43.541, 333.606 46.801 L 329.711 49.103 325.726 45.078 C 319.679 38.971, 313.864 36.505, 305.498 36.502 C 300.012 36.501, 297.385 37.049, 293.370 39.036 L 288.245 41.573 285.274 38.036 C 280.282 32.094, 273.893 29.500, 264.250 29.500 C 256.566 29.500, 256 29.357, 256 27.424 C 256 22.022, 247.048 18.952, 243.025 22.975 M 256.629 47.078 C 255.176 48.220, 253.523 50.022, 252.956 51.082 C 252.101 52.680, 243 99.906, 243 102.747 C 243 103.931, 267.114 108.319, 267.992 107.294 C 268.866 106.273, 277.054 60.405, 277.023 56.700 C 276.990 52.649, 274.410 48.263, 271.033 46.517 C 266.737 44.296, 259.823 44.565, 256.629 47.078 M 299.449 53.551 C 297.770 54.380, 295.620 56.372, 294.671 57.980 C 292.960 60.876, 283.455 109.789, 284.417 110.750 C 284.687 111.020, 290.369 112.244, 297.044 113.469 C 305.406 115.003, 309.284 115.354, 309.516 114.598 C 310.716 110.690, 318 67.435, 318 64.222 C 318 55.199, 307.891 49.385, 299.449 53.551 M 204.513 120.250 C 202.090 122.348, 201.478 124.904, 195.476 158 C 191.935 177.525, 188.808 194.465, 188.526 195.645 C 188.059 197.603, 187.657 197.710, 183.937 196.874 C 179.004 195.766, 175.277 197.243, 173.069 201.183 C 171.718 203.593, 171.734 204.219, 173.226 207.347 C 174.139 209.262, 175.699 211.081, 176.693 211.389 C 180.512 212.573, 371.008 247, 373.740 247 C 377.737 247, 381 243.698, 381 239.652 C 381 235.019, 379.097 232.972, 373.435 231.513 C 370.317 230.710, 368.572 229.737, 368.695 228.871 C 368.803 228.117, 371.854 211.134, 375.475 191.132 C 379.097 171.129, 381.810 153.976, 381.504 153.014 C 380.571 150.074, 377.374 147.877, 373.885 147.778 C 371.337 147.705, 370.007 148.381, 368.145 150.693 L 365.722 153.704 361.111 151.102 C 354.864 147.577, 343.909 147.441, 336.564 150.797 L 331.629 153.052 327.564 149.079 C 321.695 143.342, 315.961 141.048, 307.419 141.022 C 301.843 141.005, 299.302 141.525, 295.458 143.471 L 290.577 145.942 287.768 142.535 C 280.619 133.861, 264.946 130.785, 254.477 136 L 249.458 138.500 246.603 135.218 C 245.032 133.413, 241.667 130.713, 239.124 129.218 C 235.045 126.820, 233.470 126.500, 225.754 126.500 C 218.008 126.500, 217.008 126.295, 217.004 124.705 C 216.998 122.084, 212.489 118, 209.601 118 C 208.232 118, 205.942 119.013, 204.513 120.250 M 221.619 142.074 C 217.551 143.236, 214.134 146.769, 213.049 150.935 C 211.693 156.144, 203.816 200.159, 204.186 200.465 C 205.207 201.311, 228.537 204.848, 229.075 204.240 C 230.072 203.113, 238.001 158.798, 237.996 154.377 C 237.992 150.178, 235.192 144.683, 232.304 143.205 C 229.344 141.690, 224.689 141.197, 221.619 142.074 M 262 149.706 C 260.059 150.416, 256.061 154.047, 254.947 156.112 C 253.968 157.926, 244.817 207.150, 245.358 207.691 C 245.892 208.226, 266.224 212, 268.570 212 C 270.490 212, 270.959 210.261, 274.846 188.750 C 279.501 162.988, 279.780 159.129, 277.294 154.920 C 274.557 150.288, 267.237 147.792, 262 149.706 M 303.686 157.006 C 300.098 158.096, 298.222 159.670, 296.469 163.060 C 295.263 165.392, 285.585 215.080, 286.255 215.495 C 286.898 215.893, 311.286 220.041, 311.501 219.789 C 312.194 218.973, 320.168 172.898, 320.236 169.315 C 320.399 160.667, 312.058 154.463, 303.686 157.006 M 343.500 164.954 C 340.843 166.053, 337.400 169.939, 336.522 172.830 C 335.574 175.952, 327.099 222.431, 327.420 222.753 C 327.558 222.891, 333.307 224.042, 340.195 225.310 L 352.719 227.615 357.344 202.058 C 361.956 176.572, 362.115 173.738, 359.187 169.199 C 356.312 164.741, 348.878 162.729, 343.500 164.954 M 186.881 219.007 C 184.221 220.561, 183.333 224.119, 177.524 256.500 C 174.466 273.550, 171.484 289.890, 170.898 292.812 L 169.833 298.123 164.478 297.454 C 159.608 296.846, 158.892 297.017, 156.562 299.347 C 152.130 303.779, 154.185 311.057, 160.278 312.504 C 165.478 313.738, 354.664 347.996, 356.295 347.998 C 359.070 348.001, 363 343.471, 363 340.268 C 363 336.012, 360.435 333.093, 356.083 332.397 C 353.989 332.062, 351.769 331.475, 351.148 331.092 C 350.347 330.596, 351.993 319.575, 356.847 292.948 C 363.986 253.775, 364.167 251.230, 359.961 248.979 C 356.388 247.067, 352.308 247.845, 349.709 250.934 L 347.240 253.868 342.870 251.684 C 336.492 248.497, 323.110 248.549, 317.638 251.782 L 313.776 254.064 308.867 249.472 C 302.428 243.449, 298.089 241.681, 289.500 241.581 C 283.900 241.516, 281.468 242.011, 277.342 244.052 L 272.184 246.603 269.604 243.370 C 268.185 241.592, 264.098 238.697, 260.523 236.936 C 254.569 234.005, 253.409 233.776, 246.760 234.210 C 242.144 234.511, 238.006 235.450, 235.399 236.786 L 231.297 238.889 227.506 235.006 C 221.909 229.275, 215.072 226.562, 206.250 226.573 C 200.165 226.581, 199 226.316, 199 224.926 C 199 224.015, 198.067 222.084, 196.927 220.635 C 194.747 217.862, 190.122 217.113, 186.881 219.007 M 201.452 243.354 C 199.776 244.112, 197.594 245.971, 196.602 247.484 C 194.738 250.330, 185.444 298.109, 186.314 300.375 C 186.563 301.024, 191.657 302.388, 197.633 303.405 C 203.610 304.423, 209.024 305.456, 209.664 305.702 C 210.390 305.980, 211.260 304.063, 211.978 300.605 C 213.521 293.175, 215.714 290.600, 220.500 290.600 C 226.447 290.600, 228.396 293.755, 227.622 302.124 L 227.009 308.748 236.255 310.407 C 241.340 311.320, 246.942 312.323, 248.705 312.636 C 252.504 313.311, 251.625 316.028, 256.999 287 C 261.465 262.879, 261.687 259.971, 259.364 256.040 C 255.595 249.659, 245.703 247.854, 240.143 252.533 C 236.671 255.455, 235.726 258.024, 233.449 270.746 C 231.558 281.310, 229.373 285, 225.009 285 C 220.829 285, 219.093 284.080, 217.515 281.030 C 216.273 278.627, 216.363 276.802, 218.274 265.726 C 220.333 253.789, 220.357 252.972, 218.761 249.625 C 217.836 247.685, 215.953 245.360, 214.578 244.459 C 211.138 242.205, 205.110 241.697, 201.452 243.354 M 283.198 258.673 C 281.382 259.568, 279.196 261.654, 278.340 263.309 C 276.717 266.448, 267.493 314.827, 268.354 315.687 C 268.870 316.203, 285.363 319.534, 290.431 320.146 L 293.362 320.500 297.663 297 C 300.028 284.075, 301.965 271.925, 301.967 270 C 301.972 265.315, 300.171 262.032, 296.088 259.280 C 292.122 256.607, 287.802 256.404, 283.198 258.673 M 322.096 267.573 C 320.403 268.997, 318.610 271.788, 318.079 273.823 C 316.702 279.105, 308.811 323.155, 309.186 323.467 C 309.730 323.921, 334.210 328.127, 334.435 327.806 C 335.082 326.881, 343.043 279.970, 343.023 277.200 C 342.970 269.718, 337.789 265, 329.626 265 C 326.280 265, 324.383 265.648, 322.096 267.573 M 168.659 320.054 C 165.392 322.623, 165.455 322.367, 157.925 364.141 L 151.682 398.781 146.091 398.295 C 141.351 397.883, 140.157 398.134, 138.250 399.943 C 135.835 402.234, 135.279 406.784, 137.016 410.030 C 137.575 411.075, 139.713 412.402, 141.766 412.979 C 147.383 414.559, 332.979 448.138, 336.878 448.280 C 341.537 448.450, 345.448 444.041, 344.589 439.587 C 343.830 435.648, 341.047 433.353, 335.997 432.500 C 333.799 432.128, 332 431.286, 332 430.627 C 332 429.969, 334.925 413.382, 338.500 393.767 C 342.075 374.152, 345 357.005, 345 355.663 C 345 349.629, 337.566 346.194, 332.734 349.994 C 331.230 351.177, 330 352.825, 330 353.656 C 330 354.487, 329.663 354.994, 329.250 354.782 C 320.877 350.491, 317.992 349.631, 311.909 349.610 C 306.848 349.593, 304.136 350.173, 300.229 352.106 L 295.141 354.624 291.353 350.722 C 285.065 344.242, 280.798 342.524, 271 342.524 C 264.092 342.524, 261.702 342.948, 258.241 344.787 L 253.982 347.050 250.923 343.565 C 243.295 334.877, 228.627 331.960, 218.290 337.076 L 213.262 339.564 208.159 334.872 C 201.794 329.019, 195.109 326.607, 186.902 327.201 C 181.630 327.582, 181 327.426, 181 325.737 C 181 323.265, 175.700 318, 173.212 318 C 172.144 318, 170.095 318.924, 168.659 320.054 M 180.595 346.051 C 177.997 348.332, 176.837 350.412, 175.996 354.301 C 174.539 361.034, 167.172 401.448, 167.361 401.669 C 167.768 402.147, 192.144 406.190, 192.496 405.838 C 192.722 405.611, 194.997 393.944, 197.551 379.912 C 201.965 355.656, 202.118 354.218, 200.657 350.722 C 197.376 342.870, 186.976 340.448, 180.595 346.051 M 224.325 351.459 C 222.579 352.219, 220.354 354.056, 219.381 355.542 C 218.276 357.228, 215.867 367.792, 212.974 383.645 C 208.385 408.781, 208.358 409.052, 210.418 409.542 C 214.345 410.477, 233.500 413.828, 233.713 413.618 C 233.830 413.502, 236.049 401.688, 238.644 387.364 L 243.362 361.319 241.380 357.501 C 238.006 350.998, 231.050 348.534, 224.325 351.459 M 263.629 360.078 C 262.176 361.220, 260.452 363.133, 259.797 364.328 C 258.447 366.793, 249.034 417, 249.922 417 C 250.239 417, 255.818 417.944, 262.319 419.097 C 268.820 420.251, 274.362 420.972, 274.634 420.699 C 275.887 419.447, 284.189 369.890, 283.564 367.399 C 283.189 365.905, 281.379 363.179, 279.541 361.341 C 276.650 358.450, 275.531 358, 271.235 358 C 267.722 358, 265.497 358.608, 263.629 360.078 M 306.299 366.624 C 304.538 367.492, 302.356 369.333, 301.451 370.715 C 299.845 373.166, 290.685 420.001, 291.235 422.943 C 291.424 423.953, 295.112 425.045, 303.503 426.578 C 310.101 427.783, 315.646 428.638, 315.825 428.477 C 316.456 427.908, 324.986 380.459, 324.989 377.500 C 324.994 373.233, 321.539 368.123, 317.510 366.440 C 313.116 364.604, 310.302 364.650, 306.299 366.624 M 149.604 421.250 C 147.320 423.299, 146.600 426.263, 141.530 454.500 C 138.468 471.550, 135.501 487.807, 134.936 490.627 L 133.909 495.754 125.409 496.200 C 118.405 496.568, 116.530 497.025, 114.755 498.801 C 111.743 501.812, 111.824 507.629, 114.911 510.129 C 117.137 511.931, 121.201 512, 225.677 512 C 294.508 512, 334.800 511.642, 335.961 511.021 C 336.967 510.483, 338.269 508.666, 338.856 506.984 C 341.201 500.257, 336.037 496, 325.532 496 C 322.489 496, 320 495.857, 320 495.682 C 320 495.508, 321.569 486.845, 323.487 476.432 C 325.404 466.020, 326.979 456.692, 326.987 455.705 C 326.994 454.717, 325.895 452.805, 324.545 451.455 C 321.609 448.518, 317.158 448.242, 313.998 450.800 C 311.693 452.667, 311.644 452.868, 306.019 483.750 C 304.427 492.491, 303.389 496, 302.394 496 C 300.682 496, 300.686 495.485, 302.460 485.457 C 303.948 477.047, 303.551 472.867, 300.754 467.500 C 295.618 457.646, 282.606 453.845, 272.252 459.173 C 265.010 462.900, 262.347 467.525, 259.970 480.500 C 256.846 497.559, 257.606 496, 252.414 496 C 248.552 496, 247.943 495.736, 248.380 494.250 C 248.663 493.288, 249.849 487.157, 251.015 480.628 C 253.398 467.278, 253.098 463.093, 249.339 457.297 C 242.808 447.225, 230.755 444.438, 220.277 450.578 C 213.566 454.511, 211.409 459.336, 207.987 478.072 C 206.344 487.066, 205 494.778, 205 495.212 C 205 495.645, 202.975 496, 200.500 496 C 198.025 496, 196 495.712, 196 495.359 C 196 495.007, 197.390 487.244, 199.088 478.109 C 202.624 459.088, 202.548 453.937, 198.641 448.033 C 190.907 436.346, 175.527 434.807, 165.607 444.726 C 161.187 449.146, 160.196 452.389, 155.894 476.500 C 152.965 492.922, 151.813 497.154, 150.604 495.933 C 150.368 495.695, 152.836 480.881, 156.088 463.013 C 159.339 445.145, 162 428.865, 162 426.836 C 162 420.051, 154.637 416.733, 149.604 421.250 M 176.872 455.632 C 176.118 456.530, 173.892 465.980, 171.927 476.632 L 168.353 496 174.177 496 C 177.380 496, 180 495.645, 180 495.212 C 180 494.778, 181.350 487.033, 183 478 C 184.650 468.967, 186 460.337, 186 458.823 C 186 454.420, 179.734 452.229, 176.872 455.632 M 227.750 464.750 C 226.531 466.117, 221 491.032, 221 495.155 C 221 496.547, 231.725 496.161, 232.258 494.750 C 232.518 494.063, 233.768 487.545, 235.036 480.267 C 237.270 467.441, 237.284 466.972, 235.515 465.017 C 233.269 462.535, 229.830 462.417, 227.750 464.750 M 279.096 473.750 C 277.574 475.003, 276.550 477.773, 275.492 483.500 C 274.679 487.900, 273.777 492.512, 273.488 493.750 C 272.988 495.888, 273.255 496, 278.834 496 L 284.707 496 285.825 489.250 C 286.440 485.538, 287.228 481.084, 287.576 479.354 C 288.063 476.933, 287.724 475.724, 286.104 474.104 C 283.542 471.542, 281.880 471.458, 279.096 473.750" stroke="none" fill="currentColor" fill-rule="evenodd"/>
</svg>