<svg xmlns="http://www.w3.org/2000/svg" width="512" height="512" viewBox="0 0 512 512" version="1.1">
	<path d="M 163.500 10.160 C 162.400 10.803, 161.169 11.818, 160.765 12.415 C 159.807 13.831, 159.807 50.164, 160.765 51.600 C 162.526 54.237, 166.377 55, 177.934 55 L 190 55 190 67.533 L 190 80.067 186.548 83.519 C 180.587 89.480, 180.804 99.133, 187.018 104.362 C 188.658 105.742, 190 107.069, 190 107.310 C 190 107.552, 188.674 108.015, 187.054 108.339 C 185.434 108.663, 183.674 109.741, 183.142 110.734 C 182.611 111.727, 181.848 123.396, 181.448 136.665 L 180.721 160.789 176.915 161.398 C 173.029 162.019, 170 164.949, 170 168.086 C 170 168.988, 172.467 173.500, 175.482 178.113 L 180.963 186.500 180.982 209.250 L 181 232 174 232 L 167 232 167 228.934 C 167 225.712, 165.457 222.005, 163.600 220.765 C 162.995 220.361, 161.037 220.024, 159.250 220.015 C 155.396 219.997, 155.078 218.650, 158.414 216.464 C 163.783 212.946, 165.632 203.189, 162.044 197.304 C 154.693 185.249, 136.845 189.327, 135.255 203.426 C 134.717 208.199, 136.333 212.120, 140.405 215.924 C 143.717 219.019, 143.680 219.996, 140.250 220.015 C 138.738 220.024, 137.005 220.361, 136.400 220.765 C 134.646 221.937, 133 225.649, 133 228.434 C 133 230.846, 132.701 231, 128 231 L 123 231 123 227.155 C 123 222.857, 120.672 220, 117.171 220 C 114.310 220, 114.416 218.247, 117.421 215.883 C 121.266 212.859, 123.390 206.161, 122.065 201.241 C 120.743 196.332, 115.458 191.364, 110.587 190.450 C 100.942 188.641, 91.785 198.007, 93.622 207.801 C 93.965 209.625, 95.764 212.728, 97.622 214.698 C 99.480 216.668, 101 218.667, 101 219.140 C 101 219.613, 99.425 220, 97.500 220 C 92.697 220, 90 222.877, 90 228 L 90 232 85.500 232 L 81 232 81 228 C 81 223.317, 78.305 220, 74.500 220 C 71.472 220, 71.247 218.474, 74.054 216.971 C 79.686 213.957, 81.811 203.482, 78.044 197.304 C 70.693 185.249, 52.845 189.327, 51.255 203.426 C 50.717 208.199, 52.333 212.120, 56.405 215.924 C 59.838 219.132, 59.678 220, 55.655 220 C 51.199 220, 49 222.587, 49 227.829 L 49 232 44.500 232 L 40 232 40 227.655 C 40 222.465, 37.801 220, 33.171 220 C 29.315 220, 29.119 218.481, 32.621 215.726 C 35.470 213.485, 38 208.369, 38 204.848 C 38 200.097, 34.067 194.211, 29.375 191.940 C 22.192 188.462, 15.085 190.532, 10.956 197.304 C 7.189 203.482, 9.314 213.957, 14.946 216.971 C 17.869 218.535, 17.486 220, 14.155 220 C 12.590 220, 10.560 220.829, 9.642 221.843 C 8.103 223.544, 7.975 234.212, 7.975 361 C 7.975 487.788, 8.103 498.456, 9.642 500.157 C 11.254 501.938, 19.530 502, 255.578 502 L 499.847 502 502.883 499.445 L 505.919 496.890 505.606 359.788 C 505.304 228.093, 505.219 222.634, 503.455 221.343 C 502.444 220.604, 499.904 220, 497.809 220 C 493.345 220, 492.958 218.607, 496.621 215.726 C 499.470 213.485, 502 208.369, 502 204.848 C 502 200.097, 498.067 194.211, 493.375 191.940 C 486.192 188.462, 479.085 190.532, 474.956 197.304 C 471.189 203.482, 473.314 213.957, 478.946 216.971 C 481.698 218.444, 481.548 220, 478.655 220 C 475.184 220, 473 223.023, 473 227.829 L 473 232 468 232 L 463 232 463 227.655 C 463 222.312, 460.787 220, 455.671 220 C 451.427 220, 450.972 218.720, 454.414 216.464 C 459.783 212.946, 461.632 203.189, 458.044 197.304 C 450.693 185.249, 432.845 189.327, 431.255 203.426 C 430.717 208.199, 432.333 212.120, 436.405 215.924 C 439.658 218.963, 439.682 220, 436.500 220 C 432.888 220, 430 223.332, 430 227.500 C 430 230.981, 429.976 231, 425.500 231 C 421.024 231, 421 230.981, 421 227.500 C 421 222.902, 418.098 220, 413.500 220 C 409.334 220, 409.035 218.547, 412.621 215.726 C 415.470 213.485, 418 208.369, 418 204.848 C 418 200.097, 414.067 194.211, 409.375 191.940 C 402.192 188.462, 395.085 190.532, 390.956 197.304 C 387.189 203.482, 389.314 213.957, 394.946 216.971 C 397.869 218.535, 397.486 220, 394.155 220 C 390.210 220, 388 222.810, 388 227.829 L 388 232 383.500 232 C 379.145 232, 379 231.901, 379 228.934 C 379 225.712, 377.457 222.005, 375.600 220.765 C 374.995 220.361, 372.813 220.024, 370.750 220.015 C 366.617 219.998, 365.877 218.671, 369.054 216.971 C 374.686 213.957, 376.811 203.482, 373.044 197.304 C 368.915 190.532, 361.808 188.462, 354.625 191.940 C 349.933 194.211, 346 200.097, 346 204.848 C 346 208.369, 348.530 213.485, 351.379 215.726 C 354.595 218.256, 354.745 219.995, 351.750 220.015 C 347.640 220.043, 345 223.532, 345 228.934 L 345 232 337.500 232 L 330 232 330 211.052 L 330 190.105 336 180.581 C 340.352 173.672, 342 170.104, 342 167.585 C 342 163.293, 339.136 161, 333.777 161 L 330 161 330 136.500 C 330 113.333, 329.891 111.891, 328 110 C 326.721 108.721, 324.667 108, 322.304 108 L 318.608 108 321.684 104.750 C 325.959 100.234, 327 97.843, 327 92.543 C 327 88.581, 326.455 87.364, 323 83.616 L 319 79.276 319 46.329 C 319 19.475, 318.738 13.023, 317.583 11.441 C 316.287 9.667, 314.629 9.473, 298.295 9.189 C 281.318 8.894, 280.289 8.985, 277.712 11.012 L 275 13.145 275 32 L 275 50.855 277.635 52.927 C 279.990 54.780, 281.634 55, 293.135 55 L 306 55 306 67.533 L 306 80.067 302.548 83.519 C 296.587 89.480, 296.804 99.133, 303.018 104.362 C 306.720 107.477, 306.740 108, 303.155 108 C 298.457 108, 297.124 110.521, 296.794 120.030 L 296.500 128.500 291.500 128.500 C 286.674 128.500, 286.394 128.341, 283.442 123.924 C 278.829 117.023, 276.550 108.820, 276.795 100 C 277.432 77.017, 277.499 77.844, 274.477 71.500 C 271.356 64.949, 263.994 57.069, 259.101 55.042 C 254.916 53.308, 251.186 54.909, 245.002 61.093 C 237.060 69.035, 234.246 77.223, 232.063 98.742 C 230.333 115.791, 224.520 128.500, 218.452 128.500 L 215.500 128.500 215.206 120.030 C 214.847 109.696, 213.711 108, 207.149 108 L 202.608 108 205.684 104.750 C 209.959 100.234, 211 97.843, 211 92.543 C 211 88.581, 210.455 87.364, 207 83.616 L 203 79.276 203 46.329 C 203 19.476, 202.738 13.023, 201.583 11.441 C 200.287 9.667, 198.671 9.478, 182.833 9.245 C 170.986 9.072, 164.867 9.361, 163.500 10.160 M 173 32.500 L 173 42 182 42 L 191 42 191 32.500 L 191 23 182 23 L 173 23 173 32.500 M 288 32.500 L 288 42 297.500 42 L 307 42 307 32.500 L 307 23 297.500 23 L 288 23 288 32.500 M 252.437 71.250 C 249.333 74.932, 247 79.959, 247 82.968 C 247 84.860, 247.619 85, 256 85 C 264.381 85, 265 84.860, 265 82.968 C 265 78.741, 258.542 68, 256 68 C 255.548 68, 253.945 69.463, 252.437 71.250 M 195 93 C 195 94.506, 195.522 95.046, 196.750 94.810 C 197.713 94.624, 198.500 93.810, 198.500 93 C 198.500 92.190, 197.713 91.376, 196.750 91.190 C 195.522 90.954, 195 91.494, 195 93 M 311 93 C 311 94.506, 311.522 95.046, 312.750 94.810 C 313.712 94.624, 314.500 93.810, 314.500 93 C 314.500 92.190, 313.712 91.376, 312.750 91.190 C 311.522 90.954, 311 91.494, 311 93 M 243 99.553 C 243 104.696, 240.114 116.648, 237.369 122.874 C 236.066 125.830, 235 128.405, 235 128.596 C 235 128.787, 242.905 128.910, 252.568 128.869 C 268.479 128.801, 270.070 128.639, 269.441 127.147 C 266.380 119.882, 263.784 110.818, 262.827 104.049 L 261.688 96 252.344 96 L 243 96 243 99.553 M 195 124.500 C 195 127.833, 195.167 128, 198.500 128 C 201.833 128, 202 127.833, 202 124.500 C 202 121.167, 201.833 121, 198.500 121 C 195.167 121, 195 121.167, 195 124.500 M 310 124.500 C 310 127.833, 310.167 128, 313.500 128 C 316.833 128, 317 127.833, 317 124.500 C 317 121.167, 316.833 121, 313.500 121 C 310.167 121, 310 121.167, 310 124.500 M 195 151.500 L 195 161 200 161 L 205 161 205 151.500 L 205 142 200 142 L 195 142 195 151.500 M 218 151.500 L 218 161 222.500 161 L 227 161 227 151.500 L 227 142 222.500 142 L 218 142 218 151.500 M 240 151.500 L 240 161 244.500 161 L 249 161 249 151.500 L 249 142 244.500 142 L 240 142 240 151.500 M 263 151.500 L 263 161 267.500 161 L 272 161 272 151.500 L 272 142 267.500 142 L 263 142 263 151.500 M 285 151.500 L 285 161 289.500 161 L 294 161 294 151.500 L 294 142 289.500 142 L 285 142 285 151.500 M 307 151.500 L 307 161 312 161 L 317 161 317 151.500 L 317 142 312 142 L 307 142 307 151.500 M 189.861 177.250 L 191.919 180.500 255.386 180.757 L 318.853 181.015 320.927 178.103 C 322.067 176.502, 323 174.923, 323 174.596 C 323 174.268, 292.581 174, 255.402 174 L 187.804 174 189.861 177.250 M 195 228 L 195 263 255.951 263 L 316.902 263 316.946 228 L 316.989 193 255.994 193 L 195 193 195 228 M 249.410 198.084 C 243.113 199.578, 234.968 204.996, 231.292 210.136 C 229.365 212.831, 227.294 217.540, 226.345 221.386 C 224.835 227.503, 224.835 228.497, 226.345 234.614 C 228.425 243.044, 233.078 249.580, 239.937 253.707 C 250.460 260.038, 260.945 260.134, 271.687 253.995 C 280.866 248.750, 286.353 238.980, 286.390 227.813 C 286.453 208.791, 267.728 193.738, 249.410 198.084 M 21.188 204.739 C 21.690 207.345, 25 207.636, 25 205.073 C 25 203.642, 24.358 203, 22.927 203 C 21.496 203, 20.957 203.539, 21.188 204.739 M 64 205.073 C 64 206.504, 64.539 207.043, 65.739 206.812 C 68.345 206.310, 68.636 203, 66.073 203 C 64.642 203, 64 203.642, 64 205.073 M 106.190 204.750 C 106.376 205.713, 107.190 206.500, 108 206.500 C 108.810 206.500, 109.624 205.713, 109.810 204.750 C 110.046 203.522, 109.506 203, 108 203 C 106.494 203, 105.954 203.522, 106.190 204.750 M 148 205 C 148 206.506, 148.522 207.046, 149.750 206.810 C 150.713 206.624, 151.500 205.810, 151.500 205 C 151.500 204.190, 150.713 203.376, 149.750 203.190 C 148.522 202.954, 148 203.494, 148 205 M 359 205.073 C 359 207.636, 362.310 207.345, 362.812 204.739 C 363.043 203.539, 362.504 203, 361.073 203 C 359.642 203, 359 203.642, 359 205.073 M 401.188 204.739 C 401.690 207.345, 405 207.636, 405 205.073 C 405 203.642, 404.358 203, 402.927 203 C 401.496 203, 400.957 203.539, 401.188 204.739 M 444 205 C 444 206.506, 444.522 207.046, 445.750 206.810 C 446.712 206.624, 447.500 205.810, 447.500 205 C 447.500 204.190, 446.712 203.376, 445.750 203.190 C 444.522 202.954, 444 203.494, 444 205 M 485.188 204.739 C 485.690 207.345, 489 207.636, 489 205.073 C 489 203.642, 488.358 203, 486.927 203 C 485.496 203, 484.957 203.539, 485.188 204.739 M 248.500 212.417 C 233.630 219.055, 235.045 240.900, 250.679 246.059 C 267.700 251.677, 281.475 229.770, 269.186 216.627 C 264.148 211.239, 255.214 209.421, 248.500 212.417 M 20 248.250 L 20 264 23.500 264 L 27 264 27 248.250 L 27 232.500 23.500 232.500 L 20 232.500 20 248.250 M 62.106 248.217 L 61.927 264 65.518 264 L 69.108 264 68.893 248.591 L 68.677 233.181 65.481 232.808 L 62.284 232.435 62.106 248.217 M 103.180 247.711 L 102.861 263 106.930 263 L 111 263 110.997 247.750 L 110.994 232.500 107.247 232.461 L 103.500 232.422 103.180 247.711 M 149.750 232.716 L 147 233.133 147 248.066 L 147 263 150 263 L 153 263 153 247.500 C 153 238.975, 152.887 232.067, 152.750 232.150 C 152.613 232.232, 151.262 232.487, 149.750 232.716 M 359 248 L 359 263 362.554 263 L 366.108 263 365.888 248 L 365.668 233 362.334 233 L 359 233 359 248 M 400 248 L 400 263 404 263 L 408 263 408 248 L 408 233 404 233 L 400 233 400 248 M 443 248 L 443 263 446.554 263 L 450.108 263 449.888 248 L 449.668 233 446.334 233 L 443 233 443 248 M 485 248 L 485 263 489 263 L 493 263 493 248 L 493 233 489 233 L 485 233 485 248 M 40 254 L 40 264 44.500 264 L 49 264 49 254 L 49 244 44.500 244 L 40 244 40 254 M 81 254.107 C 81 262.912, 81.204 264.136, 82.582 263.607 C 83.452 263.273, 85.477 263, 87.082 263 L 90 263 90 253.500 L 90 244 85.500 244 L 81 244 81 254.107 M 123 253.500 L 123 263 128 263 L 133 263 133 253.500 L 133 244 128 244 L 123 244 123 253.500 M 167 253.500 L 167 263 174 263 L 181 263 181 253.500 L 181 244 174 244 L 167 244 167 253.500 M 330 253.500 L 330 263 337.500 263 L 345 263 345 253.500 L 345 244 337.500 244 L 330 244 330 253.500 M 379 253.500 L 379 263 383.500 263 L 388 263 388 253.500 L 388 244 383.500 244 L 379 244 379 253.500 M 421 253.500 L 421 263 425.500 263 L 430 263 430 253.500 L 430 244 425.500 244 L 421 244 421 253.500 M 463 253.500 L 463 263 468 263 L 473 263 473 253.500 L 473 244 468 244 L 463 244 463 253.500 M 20 315 L 20 354 49.513 354 L 79.026 354 78.939 315 L 78.853 276 49.426 276 L 20 276 20 315 M 92 282.500 L 92 289 101 289 L 110 289 110 282.500 L 110 276 101 276 L 92 276 92 282.500 M 123 324.500 C 123 366.944, 123.187 373, 124.500 373 C 125.813 373, 126 366.944, 126 324.500 C 126 282.056, 125.813 276, 124.500 276 C 123.187 276, 123 282.056, 123 324.500 M 139 315 L 139 354 168 354 L 197 354 197 315 L 197 276 168 276 L 139 276 139 315 M 211 324.500 C 211 366.944, 211.187 373, 212.500 373 C 213.813 373, 214 366.944, 214 324.500 C 214 282.056, 213.813 276, 212.500 276 C 211.187 276, 211 282.056, 211 324.500 M 227 315 L 227 354 256 354 L 285 354 285 315 L 285 276 256 276 L 227 276 227 315 M 298.039 324.500 C 298.111 365.982, 298.331 373, 299.562 373 C 300.793 373, 301 366.021, 301 324.500 C 301 281.732, 300.820 276, 299.477 276 C 298.133 276, 297.964 281.694, 298.039 324.500 M 315 315 L 315 354 344 354 L 373 354 373 315 L 373 276 344 276 L 315 276 315 315 M 386 324.500 C 386 367.297, 386.179 373, 387.525 373 C 388.872 373, 389.036 367.349, 388.931 324.500 C 388.831 283.545, 388.594 276, 387.406 276 C 386.217 276, 386 283.489, 386 324.500 M 403 282.500 L 403 289 411.500 289 L 420 289 420 282.500 L 420 276 411.500 276 L 403 276 403 282.500 M 434 315 L 434 354 463 354 L 492 354 492 315 L 492 276 463 276 L 434 276 434 315 M 40.271 298.902 C 32.881 302.364, 32.008 304.973, 32.004 323.595 C 31.999 344.141, 30.992 343, 49.129 343 C 58.273 343, 62.985 342.615, 63.800 341.800 C 65.768 339.832, 65.431 309.711, 63.394 305.417 C 59.997 298.259, 48.535 295.029, 40.271 298.902 M 160.271 298.902 C 152.881 302.364, 152.008 304.973, 152.004 323.595 C 151.999 344.100, 151.049 343, 168.757 343 C 179.333 343, 182.160 342.697, 183.429 341.429 C 185.746 339.111, 185.718 310.315, 183.394 305.417 C 179.997 298.259, 168.535 295.029, 160.271 298.902 M 249.500 298.044 C 245.476 299.358, 243.656 300.874, 241.130 305.018 C 239.207 308.173, 239.007 309.963, 239.004 324.095 C 238.999 344.082, 238.009 343, 256.294 343 C 269.083 343, 269.999 342.871, 271.043 340.919 C 271.656 339.775, 272.411 332.217, 272.722 324.124 C 273.369 307.298, 272.419 303.658, 266.412 299.945 C 262.545 297.555, 253.954 296.589, 249.500 298.044 M 336.619 298.034 C 335.035 298.509, 332.614 299.933, 331.240 301.198 C 326.802 305.288, 326 308.814, 326 324.245 C 326 343.866, 325.220 343, 342.902 343 C 361.014 343, 360.001 344.160, 359.996 323.421 C 359.993 309.220, 359.775 307.143, 357.976 304.192 C 354.432 298.379, 344.771 295.594, 336.619 298.034 M 456.619 298.034 C 455.035 298.509, 452.614 299.933, 451.240 301.198 C 446.802 305.288, 446 308.814, 446 324.245 C 446 343.870, 445.215 343, 462.934 343 C 474.561 343, 476.973 342.738, 478.128 341.349 C 479.135 340.136, 479.578 335.421, 479.794 323.599 C 480.064 308.779, 479.923 307.237, 478.023 304.192 C 474.392 298.372, 464.752 295.599, 456.619 298.034 M 92 339 L 92 375 101 375 L 110 375 110 339 L 110 303 101 303 L 92 303 92 339 M 403 339 L 403 375 411.500 375 L 420 375 420 339 L 420 303 411.500 303 L 403 303 403 339 M 251.607 310.582 C 251.273 311.452, 251 316.402, 251 321.582 L 251 331 255.500 331 L 260 331 260 320 L 260 309 256.107 309 C 253.480 309, 252.017 309.514, 251.607 310.582 M 339.667 309.667 C 339.300 310.033, 339 314.983, 339 320.667 L 339 331 342.864 331 L 346.727 331 347.253 321.250 C 347.571 315.348, 347.379 311.007, 346.767 310.250 C 345.701 308.933, 340.803 308.531, 339.667 309.667 M 459.667 309.667 C 459.300 310.033, 459 314.983, 459 320.667 L 459 331 462.855 331 L 466.709 331 467.273 320.772 C 467.583 315.147, 467.622 310.197, 467.359 309.772 C 466.775 308.827, 460.591 308.742, 459.667 309.667 M 45.667 310.667 C 45.300 311.033, 45 315.758, 45 321.167 L 45 331 49 331 L 53 331 53 320.500 L 53 310 49.667 310 C 47.833 310, 46.033 310.300, 45.667 310.667 M 164.667 310.667 C 164.300 311.033, 164 315.758, 164 321.167 L 164 331 168.500 331 L 173 331 173 322.082 C 173 317.177, 172.727 312.452, 172.393 311.582 C 171.783 309.992, 166.023 309.310, 164.667 310.667 M 20 371 L 20 375 49.500 375 L 79 375 79 371 L 79 367 49.500 367 L 20 367 20 371 M 139.667 367.667 C 139.300 368.033, 139 369.833, 139 371.667 L 139 375 168 375 L 197 375 197 371 L 197 367 168.667 367 C 153.083 367, 140.033 367.300, 139.667 367.667 M 227 371 L 227 375 256 375 L 285 375 285 371 L 285 367 256 367 L 227 367 227 371 M 315 371 L 315 375 344 375 L 373 375 373 371 L 373 367 344 367 L 315 367 315 371 M 434 371 L 434 375 463 375 L 492 375 492 371 L 492 367 463 367 L 434 367 434 371 M 21 438 L 21 489 26.500 489 L 32 489 32 450.468 C 32 407.653, 32.039 407.360, 38.466 402.458 C 46.598 396.256, 58.930 398.945, 63.697 407.960 C 65.985 412.287, 66 412.562, 66 450.657 L 66 489 72.500 489 L 79 489 79 438 L 79 387 50 387 L 21 387 21 438 M 93 438 L 93 489 97.500 489 L 102 489 102 477.455 C 102 466.530, 102.132 465.777, 104.455 463.455 C 105.805 462.105, 107.605 461, 108.455 461 C 109.821 461, 110 456.706, 110 424 L 110 387 101.500 387 L 93 387 93 438 M 139.667 387.667 C 139.300 388.033, 139 404.639, 139 424.569 L 139 460.804 142.006 461.852 C 146.106 463.281, 147 466.274, 147 478.565 L 147 489 149.500 489 L 152 489 152 450.468 C 152 407.653, 152.039 407.360, 158.466 402.458 C 166.630 396.231, 178.871 398.934, 183.797 408.053 L 186.200 412.500 185.514 450.750 L 184.828 489 186.914 489 C 188.895 489, 189 488.477, 189 478.565 C 189 466.274, 189.894 463.281, 193.994 461.852 L 197 460.804 197 423.902 L 197 387 168.667 387 C 153.083 387, 140.033 387.300, 139.667 387.667 M 227 424 C 227 449.072, 227.337 461, 228.045 461 C 228.620 461, 230.195 462.105, 231.545 463.455 C 233.868 465.777, 234 466.530, 234 477.455 L 234 489 236.500 489 L 239 489 239.016 450.250 C 239.033 411.903, 239.056 411.459, 241.287 407.520 C 242.551 405.289, 245.289 402.551, 247.520 401.287 C 255.643 396.686, 266.181 399.518, 270.713 407.520 C 272.944 411.459, 272.967 411.903, 272.984 450.250 C 273 488.328, 273.035 489, 275 489 C 276.872 489, 277 488.333, 277 478.565 C 277 466.274, 277.894 463.281, 281.994 461.852 L 285 460.804 285 423.902 L 285 387 256 387 L 227 387 227 424 M 315 424 C 315 449.072, 315.337 461, 316.045 461 C 316.620 461, 318.195 462.105, 319.545 463.455 C 321.868 465.777, 322 466.530, 322 477.455 C 322 488.333, 322.115 489, 324 489 C 325.965 489, 326 488.333, 326 450.657 C 326 412.562, 326.015 412.287, 328.303 407.960 C 333.070 398.945, 345.402 396.256, 353.534 402.458 C 359.961 407.360, 360 407.653, 360 450.468 L 360 489 362.500 489 L 365 489 365 477.434 C 365 471.073, 365.446 465.035, 365.992 464.016 C 366.537 462.996, 368.337 461.865, 369.992 461.502 L 373 460.841 373 423.921 L 373 387 344 387 L 315 387 315 424 M 403 423.773 L 403 460.624 406 462.842 L 409 465.060 409 477.030 L 409 489 415.009 489 L 421.018 489 420.759 438.250 L 420.500 387.500 411.750 387.211 L 403 386.922 403 423.773 M 435 437.985 L 435 489 440 489 L 445 489 445 451.649 C 445 411.897, 445.223 409.753, 449.886 404.627 C 457.562 396.190, 472.132 397.732, 477.734 407.575 C 479.938 411.449, 479.967 412.002, 479.984 450.250 L 480 489 486.509 489 L 493.018 489 492.759 438.250 L 492.500 387.500 463.750 387.235 L 435 386.969 435 437.985 M 123 424.500 C 123 456.278, 123.194 461, 124.500 461 C 125.806 461, 126 456.278, 126 424.500 C 126 392.722, 125.806 388, 124.500 388 C 123.194 388, 123 392.722, 123 424.500 M 211 424.500 C 211 456.278, 211.194 461, 212.500 461 C 213.806 461, 214 456.278, 214 424.500 C 214 392.722, 213.806 388, 212.500 388 C 211.194 388, 211 392.722, 211 424.500 M 298 424.500 C 298 456.278, 298.194 461, 299.500 461 C 300.806 461, 301 456.278, 301 424.500 C 301 392.722, 300.806 388, 299.500 388 C 298.194 388, 298 392.722, 298 424.500 M 386 424.500 C 386 456.278, 386.194 461, 387.500 461 C 388.806 461, 389 456.278, 389 424.500 C 389 392.722, 388.806 388, 387.500 388 C 386.194 388, 386 392.722, 386 424.500 M 44.627 413.529 C 44.282 414.428, 44 431.777, 44 452.082 L 44 489 48.512 489 L 53.024 489 52.762 450.750 L 52.500 412.500 48.877 412.197 C 46.253 411.978, 45.082 412.345, 44.627 413.529 M 164.627 413.529 C 164.282 414.428, 164 431.777, 164 452.082 L 164 489 168.512 489 L 173.024 489 172.762 450.750 L 172.500 412.500 168.877 412.197 C 166.253 411.978, 165.082 412.345, 164.627 413.529 M 251.975 414.565 C 251.407 416.059, 251 432.137, 251 453.065 L 251 489 256 489 L 261 489 261 453.065 C 261 432.137, 260.593 416.059, 260.025 414.565 C 259.272 412.586, 258.353 412, 256 412 C 253.647 412, 252.728 412.586, 251.975 414.565 M 339.667 412.667 C 339.300 413.033, 339 430.358, 339 451.167 L 339 489 343.500 489 L 348 489 348 452.082 C 348 431.777, 347.727 414.452, 347.393 413.582 C 346.783 411.992, 341.023 411.310, 339.667 412.667 M 459.667 412.667 C 459.300 413.033, 459 430.358, 459 451.167 L 459 489 463.500 489 L 468 489 468 452.082 C 468 431.777, 467.727 414.452, 467.393 413.582 C 466.783 411.992, 461.023 411.310, 459.667 412.667 M 115 482 L 115 489 124 489 L 133 489 133 482 L 133 475 124 475 L 115 475 115 482 M 203 482 L 203 489 212 489 L 221 489 221 482 L 221 475 212 475 L 203 475 203 482 M 290 482 L 290 489 299.500 489 L 309 489 309 482 L 309 475 299.500 475 L 290 475 290 482 M 378 482 L 378 489 387.500 489 L 397 489 397 482 L 397 475 387.500 475 L 378 475 378 482" stroke="none" fill="currentColor" fill-rule="evenodd"/>
</svg>