<svg xmlns="http://www.w3.org/2000/svg" width="512" height="512" viewBox="0 0 512 512" version="1.1">
	<path d="M 191.920 2.284 C 184.096 5.586, 179.239 9.576, 174.920 16.251 C 170.325 23.352, 168.585 30.246, 169.262 38.670 C 169.859 46.118, 174.185 55.887, 178.874 60.379 C 181.475 62.871, 181.729 63.578, 180.842 65.870 C 179.312 69.825, 173.229 152.556, 171.366 194.744 L 170.693 209.988 163.266 214.064 C 157.367 217.301, 155.532 218.877, 154.342 221.723 C 153.061 224.791, 153.040 225.818, 154.199 228.862 C 156.111 233.888, 161.083 236.659, 165.885 235.375 L 169.500 234.408 169.258 246.454 C 169.125 253.079, 168.748 263.900, 168.420 270.500 L 167.824 282.500 154.662 290.143 L 141.500 297.787 140.867 291.643 C 140.519 288.265, 140.181 280.042, 140.117 273.371 L 140 261.243 142.883 260.049 C 147.999 257.929, 151.455 253.417, 151.455 248.856 C 151.455 243.581, 146.820 239, 141.484 239 C 138.072 239, 138 238.915, 138 234.904 C 138 225.594, 129.092 219.745, 122.230 224.551 C 118.334 227.280, 117.606 229.929, 117.847 240.500 L 118.074 250.500 105.116 257.750 C 97.989 261.738, 91.861 265, 91.499 265 C 91.136 265, 91.114 260.612, 91.450 255.250 C 91.785 249.887, 92.726 234.250, 93.542 220.500 C 95.350 189.993, 99.922 128.991, 100.536 127.192 C 100.833 126.320, 102.400 125.987, 105.241 126.192 L 109.500 126.500 110.824 141.500 C 112.266 157.840, 113.157 160.332, 118.328 162.493 C 122.630 164.290, 126.524 163.354, 129.511 159.805 C 131.524 157.412, 131.999 155.762, 131.997 151.173 C 131.992 142.873, 130.019 123.180, 128.897 120.228 C 128.098 118.127, 128.349 117.232, 130.339 115.092 C 144.488 99.878, 144.074 77.871, 129.377 63.972 C 121.320 56.352, 116.515 54.493, 105 54.541 C 93.471 54.589, 88.510 56.513, 80.583 64.010 C 65.979 77.822, 65.579 99.950, 79.661 115.092 C 81.634 117.213, 81.899 118.137, 81.121 120.182 C 79.213 125.199, 70.017 252.851, 70.002 274.519 C 70 277.177, 69.278 277.935, 63.967 280.855 C 60.648 282.679, 57.186 285.313, 56.272 286.708 C 51.951 293.303, 56.697 302, 64.617 302 L 68.861 302 68.271 357.572 L 67.682 413.144 56.486 452.322 L 45.290 491.500 28.555 492 L 11.821 492.500 9.411 495.306 C 5.872 499.424, 6.089 505.242, 9.923 509.077 L 12.846 512 255.777 512 L 498.708 512 501.314 509.585 C 506.058 505.188, 506.069 498.822, 501.340 494.439 C 498.872 492.152, 498.061 492.036, 482.688 491.774 L 466.617 491.500 454.808 450.513 L 443 409.527 443 355.763 L 443 302 447.364 302 C 450.718 302, 452.322 301.405, 454.300 299.427 C 460.389 293.338, 458.220 286.685, 448.293 281 L 442.180 277.500 441.588 267.500 C 441.262 262, 440.309 245.350, 439.470 230.500 C 436.662 180.837, 432.439 126.647, 430.923 120.830 C 430.046 117.467, 430.228 116.882, 433.095 113.830 C 434.816 111.999, 437.603 107.607, 439.290 104.070 C 441.882 98.635, 442.355 96.469, 442.344 90.070 C 442.321 76.039, 435.491 64.797, 422.813 57.923 C 416.885 54.709, 415.920 54.500, 407 54.500 C 398.605 54.500, 396.833 54.828, 391.761 57.318 C 384.448 60.909, 377.909 67.448, 374.318 74.761 C 371.860 79.767, 371.500 81.651, 371.500 89.518 C 371.500 97.638, 371.818 99.182, 374.694 105.027 C 376.451 108.598, 379.232 112.806, 380.874 114.379 C 383.470 116.867, 383.728 117.582, 382.851 119.870 C 381.762 122.710, 376.818 183.208, 374.851 217.750 L 373.641 239 370.543 239 C 364.584 239, 359.563 245.261, 360.710 251.261 C 361.245 254.061, 365.572 258.392, 369.723 260.284 C 371.862 261.258, 371.993 261.870, 371.888 270.411 C 371.827 275.410, 371.489 283.643, 371.138 288.706 L 370.500 297.912 357.266 290.206 L 344.031 282.500 344.016 273.409 C 344.007 268.409, 343.705 257.509, 343.345 249.187 L 342.690 234.057 345.721 235.201 C 349.741 236.718, 354.564 234.762, 357.115 230.580 C 360.928 224.326, 358.649 219.635, 349.082 214.048 L 342.172 210.012 341.608 202.756 C 341.298 198.765, 340.561 186.500, 339.970 175.500 C 337.405 127.758, 333.282 72.720, 331.862 67.289 C 330.784 63.163, 330.845 62.983, 334.848 58.436 C 340.404 52.123, 343 44.820, 343 35.500 C 343 24.936, 340.217 18.047, 333.087 10.963 C 324.745 2.674, 319.653 0.557, 307.985 0.525 C 299.239 0.502, 297.934 0.764, 291.842 3.760 C 284.130 7.553, 278.844 12.970, 275.135 20.880 C 272.898 25.650, 272.500 27.864, 272.500 35.521 C 272.500 43.645, 272.817 45.187, 275.694 51.031 C 277.451 54.599, 280.198 58.773, 281.798 60.306 C 284.691 63.079, 284.700 63.120, 283.377 68.297 C 282.205 72.881, 278.095 124.897, 276.486 155.500 C 275.645 171.497, 275.350 172.904, 272.967 172.281 C 270.205 171.559, 265.396 173.747, 263.549 176.566 C 261.354 179.916, 261.563 186.154, 263.957 188.723 C 265.033 189.878, 267.784 191.875, 270.071 193.160 L 274.229 195.497 273.623 207.999 C 273.290 214.874, 272.727 226.688, 272.374 234.250 L 271.730 248 256.012 248 L 240.293 248 239.593 225.250 C 239.208 212.738, 238.661 200.925, 238.377 199 C 237.883 195.647, 238.078 195.380, 243.029 192.637 C 249.463 189.073, 251.724 184.724, 249.946 179.337 C 248.564 175.149, 243.668 171.764, 239.750 172.287 C 238.227 172.490, 236.998 172.173, 236.996 171.577 C 236.961 160.693, 230.035 70.934, 228.904 66.684 C 227.947 63.090, 228.093 62.640, 231.400 58.979 C 243.877 45.168, 243.475 24.975, 230.445 11.045 C 223.590 3.716, 216.730 0.681, 206.081 0.264 C 198.832 -0.019, 196.634 0.294, 191.920 2.284 M 198.023 22.193 C 192.597 24.989, 189.833 29.437, 189.833 35.374 C 189.833 44.405, 195.815 50.500, 204.677 50.500 C 210.504 50.500, 214.025 48.483, 217.750 43.010 C 223.583 34.440, 217.406 22.065, 206.500 20.471 C 203.463 20.028, 201.422 20.442, 198.023 22.193 M 301 22.193 C 295.357 25.086, 291.415 32.067, 292.415 37.396 C 295.116 51.794, 311.600 55.452, 320.438 43.615 C 323.295 39.789, 323.295 31.211, 320.438 27.385 C 315.206 20.377, 308.196 18.505, 301 22.193 M 201.321 71.781 C 199.825 72.732, 195.425 128.765, 192.408 185.271 L 191.727 198.042 204.113 191.036 L 216.500 184.030 216.208 173.765 C 215.926 163.831, 213.295 122.745, 210.833 89.825 C 210.011 78.822, 209.197 73.340, 208.245 72.388 C 206.743 70.886, 203.215 70.576, 201.321 71.781 M 304.258 71.820 C 302.945 72.653, 300.470 100.973, 297.556 148.500 C 296.713 162.250, 295.831 175.806, 295.597 178.624 L 295.171 183.748 307.806 190.820 C 314.755 194.710, 320.500 197.804, 320.573 197.696 C 321.116 196.892, 313.464 81.461, 312.462 75.347 C 311.814 71.391, 307.711 69.627, 304.258 71.820 M 100.619 75.003 C 88.232 78.846, 86.337 96.274, 97.604 102.734 C 107.747 108.548, 120 101.582, 120 90 C 120 79.843, 109.989 72.096, 100.619 75.003 M 402.819 74.983 C 389.676 78.938, 387.873 97.146, 400.020 103.248 C 409.958 108.241, 422 100.703, 422 89.490 C 422 80.074, 411.725 72.303, 402.819 74.983 M 402 127.339 C 402 128.135, 400.892 142.898, 399.539 160.144 C 396.594 197.656, 393.999 237.436, 394.002 245.016 L 394.004 250.500 407.116 257.803 C 414.327 261.820, 420.372 264.962, 420.548 264.785 C 421.247 264.086, 416.914 195.296, 413.192 148 L 411.500 126.500 406.750 126.195 C 403.129 125.963, 402 126.235, 402 127.339 M 121.378 182.437 C 115.451 185.017, 113.396 190.998, 116.425 196.855 C 120.999 205.700, 134.914 202.038, 134.978 191.973 C 135.006 187.544, 132.704 184.192, 128.401 182.394 C 124.482 180.757, 125.250 180.752, 121.378 182.437 M 204.588 214.351 C 197.272 218.483, 191.376 222.480, 190.984 223.572 C 190.604 224.633, 189.991 235.530, 189.622 247.788 L 188.952 270.076 191.726 268.574 C 193.252 267.748, 200.125 263.763, 207 259.717 L 219.500 252.362 219.136 233.431 C 218.936 223.019, 218.486 212.825, 218.136 210.778 L 217.500 207.057 204.588 214.351 M 293.635 221.208 C 293.298 229.068, 292.905 239.311, 292.762 243.970 L 292.500 252.440 307.500 261.169 L 322.500 269.898 322.839 265.199 C 323.025 262.615, 322.865 251.887, 322.484 241.360 L 321.790 222.221 308.697 214.860 C 301.496 210.812, 295.299 207.368, 294.925 207.208 C 294.552 207.047, 293.971 213.347, 293.635 221.208 M 160.250 310.596 L 89 352.156 89 374.095 L 89 396.034 93.868 393.567 L 98.736 391.100 99.208 377.800 C 99.598 366.809, 100.079 363.582, 101.979 359.212 C 106.010 349.943, 116.512 343, 126.500 343 C 136.517 343, 147.032 349.965, 150.977 359.212 C 152.217 362.121, 153.350 364.633, 153.495 364.796 C 153.640 364.958, 155.838 364.081, 158.379 362.846 L 163 360.601 163 343.916 C 163 324.782, 164.149 319.522, 169.763 312.964 C 179.985 301.021, 198.203 300.329, 209.184 311.465 C 214.077 316.428, 216.282 321.282, 216.807 328.250 C 217.045 331.413, 217.651 334, 218.153 334 C 218.656 334, 221.262 332.888, 223.945 331.528 L 228.823 329.056 229.176 313.278 C 229.484 299.454, 229.794 297.005, 231.676 293.500 C 240.685 276.727, 263.658 273.716, 275.963 287.695 C 281.799 294.325, 283 299.013, 283 315.161 L 283 328.966 287.967 331.483 C 290.698 332.867, 293.173 334, 293.467 334 C 293.760 334, 294 332.507, 294 330.682 C 294 316.328, 306.333 303.735, 320.500 303.625 C 323.800 303.600, 328.262 304.183, 330.416 304.922 C 335.806 306.770, 342.836 313.501, 345.642 319.500 C 347.816 324.148, 347.981 325.747, 347.990 342.233 L 348 359.966 353.099 362.550 C 355.904 363.972, 358.327 364.992, 358.483 364.817 C 358.640 364.643, 359.783 362.121, 361.023 359.212 C 364.968 349.965, 375.483 343, 385.500 343 C 395.488 343, 405.990 349.943, 410.021 359.212 C 411.921 363.582, 412.402 366.809, 412.792 377.800 L 413.264 391.100 418.132 393.567 L 423 396.034 423 374.138 L 423 352.242 351.641 310.621 L 280.283 269 255.891 269.018 L 231.500 269.036 160.250 310.596 M 392 283.773 C 392 289.782, 391.715 298.065, 391.368 302.180 L 390.735 309.663 406.495 318.870 C 415.163 323.935, 422.415 327.918, 422.611 327.722 C 422.807 327.527, 422.681 318.811, 422.331 308.354 L 421.695 289.341 414.098 285.177 C 409.919 282.886, 403.238 279.175, 399.250 276.930 L 392 272.847 392 283.773 M 104.500 281.540 C 97.350 285.627, 91.201 289.089, 90.837 289.235 C 90.060 289.545, 88.477 328, 89.240 328 C 89.524 328, 96.661 323.982, 105.100 319.071 L 120.444 310.142 120.165 293.821 C 119.889 277.690, 119.514 273.948, 118.183 274.055 C 117.807 274.086, 111.650 277.454, 104.500 281.540 M 251.408 301.102 C 249.954 302.708, 249.419 305.103, 249.140 311.252 C 248.811 318.509, 248.942 319.236, 250.480 318.646 C 254.409 317.138, 256.730 316.947, 259.289 317.920 L 262 318.950 262 310.532 C 262 302.966, 261.775 301.956, 259.777 300.557 C 256.713 298.410, 253.664 298.609, 251.408 301.102 M 186.223 325.557 C 184.144 327.012, 184 327.862, 184 338.640 C 184 344.980, 184.370 350.017, 184.822 349.833 C 185.275 349.650, 188.192 348.375, 191.305 347 L 196.966 344.500 196.983 337.184 C 196.999 330.165, 195.957 326.339, 193.600 324.765 C 191.790 323.557, 188.588 323.900, 186.223 325.557 M 316.655 325.829 C 315.387 327.230, 315 329.654, 315 336.195 L 315 344.733 320.250 346.955 C 323.137 348.177, 326.063 349.410, 326.750 349.695 C 327.703 350.091, 328 347.730, 328 339.742 C 328 330.662, 327.725 328.919, 325.927 326.635 C 323.462 323.500, 319.105 323.121, 316.655 325.829 M 171.404 379.231 L 87.308 419.411 77.146 454.955 C 71.557 474.505, 66.987 490.837, 66.992 491.250 C 66.996 491.663, 69.612 492, 72.804 492 L 78.607 492 82.847 481.049 C 91.738 458.082, 104.350 435.357, 114.230 424.500 C 127.007 410.460, 143.207 408.087, 154.844 418.550 C 164.479 427.212, 168.049 439.818, 167.916 464.708 C 167.869 473.394, 167.508 483.087, 167.113 486.250 L 166.395 492 170.554 492 L 174.713 492 179.397 462.750 C 181.973 446.663, 185.004 430.350, 186.132 426.500 C 193.542 401.217, 214.288 381.328, 239.985 374.871 C 251.634 371.944, 265.913 372.578, 277.852 376.552 C 299.241 383.672, 317.765 402.224, 324.918 423.689 C 326.399 428.135, 337 487.717, 337 491.599 C 337 491.819, 338.834 492, 341.075 492 L 345.150 492 344.345 482.750 C 343.108 468.549, 343.568 449.401, 345.344 441.172 C 349.592 421.483, 360.507 410.965, 375.409 412.201 C 390.413 413.445, 404.002 427.734, 418.490 457.500 C 421.970 464.650, 426.721 475.337, 429.047 481.250 L 433.275 492 439.138 492 C 442.362 492, 445 491.760, 445 491.467 C 445 489.198, 424.605 420.258, 423.685 419.417 C 422.649 418.470, 260.671 340.904, 256.933 339.564 C 256.145 339.282, 217.657 357.132, 171.404 379.231 M 121.557 366.223 C 120.553 367.655, 120 370.653, 120 374.661 L 120 380.877 126.250 378.047 C 131.821 375.525, 132.535 374.871, 132.819 372.038 C 133.293 367.307, 130.707 364, 126.534 364 C 124.133 364, 122.649 364.662, 121.557 366.223 M 380.557 366.223 C 379.701 367.445, 379 369.948, 379 371.784 C 379 374.910, 379.398 375.305, 385.250 377.965 L 391.500 380.807 391.800 374.804 C 392.187 367.076, 390.403 364, 385.534 364 C 383.133 364, 381.649 364.662, 380.557 366.223 M 248.951 394.100 C 229.774 396.788, 213.277 410.847, 206.353 430.403 C 205.074 434.013, 196 486.711, 196 490.525 C 196 491.809, 203.789 492, 256 492 C 290.897 492, 316 491.623, 316 491.100 C 316 488.874, 306.902 435.072, 305.922 431.500 C 303.038 420.993, 293.232 408.316, 282.478 401.193 C 273.794 395.441, 260.081 392.540, 248.951 394.100 M 133.898 434.278 C 128.764 437.720, 120.767 449.025, 113.594 462.983 C 108.202 473.473, 101 489.797, 101 491.526 C 101 491.787, 111.089 492, 123.420 492 L 145.841 492 146.652 485.250 C 147.921 474.682, 147.605 450.212, 146.113 443.563 C 145.221 439.588, 143.851 436.698, 141.967 434.813 C 138.569 431.415, 138.205 431.391, 133.898 434.278 M 371.347 433.063 C 369.963 433.578, 368.377 435.939, 366.902 439.682 C 364.831 444.938, 364.604 447.190, 364.555 463 C 364.525 472.625, 364.870 483.087, 365.322 486.250 L 366.144 492 388.572 492 C 400.907 492, 411 491.804, 411 491.564 C 411 489.849, 399.996 465.665, 395.597 457.711 C 385.318 439.126, 377.209 430.884, 371.347 433.063" stroke="none" fill="currentColor" fill-rule="evenodd"/>
</svg>