<svg xmlns="http://www.w3.org/2000/svg" width="512" height="512" viewBox="0 0 512 512" version="1.1">
	<path d="M 61.758 1.076 C 58.647 2.888, 32.256 41.714, 30.460 47.119 C 27.901 54.825, 28.785 67.823, 32.340 74.750 L 35.034 80 24.691 80 C 9.593 80, 9.996 79.353, 10.015 103.564 C 10.024 113.979, 10.397 123.078, 10.845 123.784 C 11.338 124.561, 10.641 127.125, 9.080 130.275 C 6.720 135.037, 6.473 136.740, 6.178 150.264 C 5.926 161.811, 6.205 166.102, 7.455 169.864 C 10.746 179.773, 18.756 187.410, 29.246 190.640 L 34.680 192.313 38.294 221.262 C 42.041 251.277, 42.862 254.416, 47.263 255.539 C 49.252 256.047, 50.916 260.729, 62.280 297.805 C 69.309 320.737, 75.313 340.470, 75.622 341.655 C 76.033 343.234, 74.823 345.541, 71.092 350.289 C 64.400 358.804, 64.411 360.799, 71.199 369.690 C 74.059 373.436, 92.059 396.855, 111.199 421.733 L 146 466.965 146 487.028 C 146 506.996, 146.012 507.103, 148.455 509.545 L 150.909 512 301.732 512 C 466.633 512, 455.343 512.415, 457.892 506.262 L 459.059 503.444 469.279 503.472 C 478.487 503.497, 480.067 503.222, 485.218 500.692 C 492.751 496.993, 499.507 490.287, 502.819 483.220 C 505.138 478.273, 505.500 476.216, 505.499 468 C 505.499 460.239, 505.083 457.599, 503.230 453.580 C 500.238 447.090, 495.196 441.086, 490.145 438 C 487.895 436.625, 486.042 434.991, 486.027 434.368 C 486.012 433.745, 488.700 426.228, 492 417.663 C 495.300 409.099, 498 401.006, 498 399.680 C 498 398.354, 497.067 396.084, 495.927 394.635 L 493.855 392 454.098 392 L 414.342 392 411.921 386.792 C 408.603 379.654, 403.087 371.367, 398.137 366.084 L 394 361.667 394 320.939 C 394 282.922, 393.866 279.776, 391.983 273.681 C 389.476 265.563, 384.505 257.898, 377.849 251.887 C 373.116 247.612, 372.811 247.063, 373.690 244.387 C 374.630 241.527, 374.968 241.417, 410.462 232.433 C 440.298 224.881, 446.596 222.982, 448.143 221.072 C 450.646 217.981, 450.484 213.655, 447.750 210.582 C 445.804 208.394, 440.715 206.861, 410.099 199.239 L 374.699 190.425 373.503 186.376 C 372.845 184.149, 370.826 179.112, 369.015 175.182 L 365.722 168.039 384.361 136.885 C 404.336 103.499, 405.195 101.410, 400.686 97.174 C 396.197 92.957, 394.151 93.808, 361.085 113.641 L 330.007 132.281 322.253 128.770 C 317.989 126.839, 312.863 124.733, 310.862 124.089 L 307.223 122.919 298.472 87.709 C 288.913 49.250, 288.394 48, 282 48 C 275.606 48, 275.087 49.250, 265.528 87.709 L 256.777 122.919 253.138 124.089 C 251.137 124.733, 246.018 126.836, 241.763 128.763 L 234.027 132.266 203.008 113.633 C 169.617 93.575, 167.502 92.708, 163.174 97.314 C 158.997 101.761, 159.850 103.810, 179.639 136.885 L 198.278 168.039 194.985 175.182 C 193.174 179.112, 191.152 184.156, 190.492 186.392 L 189.292 190.457 153.896 199.319 C 117.551 208.418, 114.500 209.560, 113.803 214.322 C 113.636 215.463, 110.321 207.350, 106.435 196.294 L 99.369 176.191 102.356 152.096 L 105.343 128 111.217 128 C 116.120 128, 117.497 127.594, 119.545 125.545 C 121.978 123.112, 122 122.925, 122 104.180 C 122 86.563, 121.858 85.089, 119.927 82.635 C 117.925 80.089, 117.503 80, 107.411 80 L 96.966 80 99.660 74.750 C 103.205 67.842, 104.099 54.824, 101.554 47.161 C 99.806 41.901, 75.903 6.311, 71.389 2.250 C 68.751 -0.123, 64.670 -0.621, 61.758 1.076 M 56.534 35.743 C 43.947 53.742, 42.740 58.183, 47.750 68.066 C 56.934 86.182, 83.495 81.639, 86.557 61.429 C 86.896 59.190, 86.696 55.590, 86.113 53.429 C 85.166 49.923, 67.968 23.884, 66.175 23.243 C 65.780 23.101, 61.441 28.726, 56.534 35.743 M 278.193 105.250 C 276.415 112.537, 274.969 118.838, 274.980 119.250 C 274.991 119.662, 278.150 120, 282 120 C 285.850 120, 289.009 119.662, 289.020 119.250 C 289.068 117.433, 282.516 92, 282 92 C 281.684 92, 279.970 97.963, 278.193 105.250 M 26 104 L 26 112 66 112 L 106 112 106 104 L 106 96 66 96 L 26 96 26 104 M 200.657 139.688 C 204.874 146.734, 208.451 152.662, 208.606 152.861 C 208.761 153.059, 211.231 150.914, 214.095 148.095 C 216.959 145.276, 219.122 142.799, 218.901 142.592 C 218.590 142.299, 207.703 135.693, 193.745 127.328 C 193.329 127.079, 196.440 132.641, 200.657 139.688 M 358 134.639 C 351.125 138.805, 345.339 142.363, 345.143 142.547 C 344.946 142.731, 347.111 145.206, 349.952 148.048 C 352.794 150.889, 355.244 153.054, 355.397 152.857 C 356.124 151.924, 370.908 127.004, 370.718 127.033 C 370.598 127.051, 364.875 130.474, 358 134.639 M 30.962 130.250 C 27.717 131.886, 25.869 133.728, 24.187 137 C 22.092 141.078, 21.905 142.579, 22.202 153 C 22.572 166.004, 23.921 169.541, 29.929 173.261 C 37.039 177.664, 47.119 175.119, 51.485 167.819 C 53.090 165.137, 53.533 162.293, 53.798 153 C 54.095 142.579, 53.908 141.078, 51.813 137 C 49.325 132.160, 42.941 128, 38 128 C 36.583 128, 33.416 129.012, 30.962 130.250 M 68.096 133.011 C 70.927 140.461, 70.849 163.657, 67.967 171.360 C 65.594 177.702, 59.746 184.749, 54.542 187.538 C 51.310 189.269, 50.940 189.853, 51.392 192.500 C 51.675 194.150, 53.130 205.512, 54.626 217.750 L 57.347 240 65.993 240 L 74.639 240 81.628 184 L 88.617 128 77.405 128 L 66.192 128 68.096 133.011 M 271.500 136.575 C 270.400 136.836, 266.350 137.765, 262.500 138.640 C 234.505 145.005, 211.533 168.344, 204.312 197.759 C 201.637 208.657, 202.138 226.325, 205.437 237.418 C 209.528 251.176, 209.936 251.041, 209.970 235.910 C 210.004 220.614, 211.836 211.320, 216.916 200.675 C 239.579 153.189, 305.426 145.590, 338.088 186.691 C 349.639 201.227, 353.953 214.503, 354.082 235.910 C 354.160 248.981, 354.221 249.366, 355.686 246 C 361.266 233.180, 363.056 211.560, 359.681 197.759 C 352.562 168.647, 330.521 146.025, 302 138.558 C 295.723 136.914, 275.592 135.606, 271.500 136.575 M 263.977 179.345 C 246.677 185.453, 232.953 200.146, 228.382 217.453 C 227.662 220.178, 227.214 222.547, 227.385 222.718 C 228.230 223.564, 241.220 218.641, 246.500 215.474 C 259.457 207.702, 268.752 194.870, 272.379 179.750 C 273.193 176.353, 272.541 176.322, 263.977 179.345 M 291.621 179.750 C 295.248 194.870, 304.543 207.702, 317.500 215.474 C 323.078 218.819, 335.786 223.547, 336.713 222.621 C 337.502 221.831, 331.971 206.915, 329.349 202.762 C 322.523 191.948, 311.326 183.132, 299.282 179.088 C 291.233 176.386, 290.823 176.421, 291.621 179.750 M 278.500 207.129 C 276.850 209.928, 271.773 215.754, 267.218 220.076 C 257.822 228.992, 247.165 234.895, 235.500 237.647 C 231.650 238.555, 227.887 239.461, 227.137 239.661 C 224.995 240.231, 226.109 279.538, 228.479 287 C 231.593 296.810, 236.045 304.251, 242.897 311.103 C 253.703 321.910, 266.616 327.238, 282 327.238 C 307.053 327.238, 327.666 311.741, 335.521 287 C 337.891 279.538, 339.005 240.231, 336.863 239.661 C 336.113 239.461, 332.350 238.555, 328.500 237.647 C 316.835 234.895, 306.178 228.992, 296.782 220.076 C 292.227 215.754, 287.150 209.928, 285.500 207.129 C 283.850 204.330, 282.275 202.040, 282 202.040 C 281.725 202.040, 280.150 204.330, 278.500 207.129 M 170 212.462 C 163.125 214.263, 158.175 216.004, 159 216.333 C 160.610 216.973, 184.510 223, 185.442 223 C 185.749 223, 186 219.850, 186 216 C 186 207.671, 187.246 207.946, 170 212.462 M 378 216.117 C 378 223.006, 378.072 223.214, 380.250 222.640 C 381.488 222.313, 387.784 220.798, 394.243 219.273 C 400.701 217.748, 405.989 216.258, 405.993 215.963 C 405.999 215.472, 380.490 208.934, 378.750 208.980 C 378.337 208.991, 378 212.202, 378 216.117 M 92.615 230.250 C 89.638 255.888, 89.564 256, 75.704 256 C 68.685 256, 66.920 256.286, 67.177 257.381 C 68.392 262.574, 88.599 326.989, 88.999 326.945 C 90.113 326.823, 120.479 286.574, 120.210 285.576 C 118.910 280.746, 95.373 215.007, 94.943 215.004 C 94.637 215.002, 93.589 221.863, 92.615 230.250 M 116.579 225.129 C 117.446 227.533, 122.130 240.750, 126.989 254.500 C 131.848 268.250, 136.131 280.274, 136.507 281.219 C 137.109 282.735, 168.035 306, 169.447 306 C 169.751 306, 170 300.197, 170 293.105 C 170 273.539, 173.728 263.854, 185.680 252.370 C 190.723 247.524, 191.114 246.837, 190.277 244.287 C 189.381 241.558, 188.622 241.313, 153.831 232.500 C 134.289 227.550, 117.558 222.883, 116.652 222.129 C 115.123 220.858, 115.118 221.076, 116.579 225.129 M 194.508 267.123 C 187.372 275.021, 186.577 278.120, 186.198 299.500 L 185.860 318.500 196.066 325.840 C 203.814 331.413, 206.471 332.857, 207.103 331.840 C 209.162 328.525, 210 319.412, 210 300.345 L 210 279.788 207.126 276.144 C 205.545 274.140, 202.900 270.360, 201.247 267.745 L 198.242 262.990 194.508 267.123 M 359.654 272.213 L 353.821 280.426 354.178 303.963 C 354.583 330.669, 355.084 332.796, 362.992 341.376 C 366.832 345.541, 373.979 350, 376.816 350 C 377.703 350, 378 342.112, 378 318.549 C 378 287.325, 377.378 279.676, 374.360 273.763 C 372.800 270.709, 367.152 264, 366.140 264 C 365.781 264, 362.862 267.696, 359.654 272.213 M 108.536 328.871 C 95.905 345.146, 85.574 359.145, 85.578 359.981 C 85.581 360.816, 102.763 383.824, 123.760 411.109 L 161.936 460.718 162.218 472.689 L 162.500 484.660 209 441.312 C 234.575 417.471, 257.260 396.205, 259.412 394.056 L 263.324 390.147 254.412 375.097 L 245.500 360.047 230.329 360.024 L 215.159 360 177.829 332.882 C 157.298 317.967, 138.475 304.305, 136 302.523 L 131.500 299.281 108.536 328.871 M 225.976 322.174 C 225.944 327.684, 224.452 334.160, 222.086 339.059 C 221.066 341.170, 220.479 343.146, 220.782 343.449 C 221.085 343.752, 225.983 344, 231.667 344 L 242 344 241.974 338.250 L 241.949 332.500 233.974 325.174 L 226 317.847 225.976 322.174 M 329.750 325.477 L 322 332.702 322 338.351 L 322 344 332.930 344 L 343.860 344 341.397 337.939 C 340.043 334.605, 338.612 328.812, 338.217 325.065 L 337.500 318.251 329.750 325.477 M 258 344.495 C 258 348.605, 259.036 350.941, 266.146 362.852 C 270.627 370.359, 274.685 376.936, 275.165 377.469 C 275.699 378.061, 281.858 372.627, 291.019 363.481 C 305.759 348.765, 306 348.455, 306 344.156 C 306 340.397, 305.755 339.883, 304.250 340.478 C 299.789 342.244, 288.803 343.965, 282 343.965 C 275.197 343.965, 264.211 342.244, 259.750 340.478 C 258.233 339.878, 258 340.413, 258 344.495 M 301.488 376.109 C 292.695 384.969, 261.875 414.285, 233 441.256 C 204.125 468.228, 179.159 491.578, 177.519 493.147 L 174.538 496 217.557 496 L 260.576 496 287.456 438.250 C 302.240 406.488, 315.239 379.488, 316.342 378.250 C 319.287 374.947, 325.181 375.143, 327.927 378.635 C 329.067 380.084, 329.994 382.447, 329.987 383.885 C 329.979 385.323, 318.501 411.025, 304.479 441 L 278.985 495.500 319.148 495.761 C 341.237 495.905, 359.561 495.772, 359.868 495.466 C 360.174 495.159, 357.166 470.292, 353.183 440.204 C 349.201 410.117, 345.955 384.548, 345.971 383.385 C 345.987 382.222, 346.951 380.061, 348.113 378.583 C 349.884 376.332, 350.881 375.945, 354.263 376.198 C 361.439 376.735, 361.408 376.623, 367.583 423.527 C 370.623 446.612, 373.434 466.324, 373.831 467.332 C 374.336 468.615, 378.372 459.197, 387.328 435.832 L 400.103 402.500 398.659 398.429 C 393.793 384.713, 382.814 372.005, 370.787 366.169 C 360.865 361.354, 352.990 360.037, 333.988 360.017 L 317.477 360 301.488 376.109 M 415.595 408.847 C 415.307 409.313, 407.810 428.550, 398.935 451.597 C 390.061 474.644, 382.572 494.063, 382.293 494.750 C 381.894 495.734, 388.392 496, 412.834 496 C 429.910 496, 444.114 495.624, 444.398 495.166 C 444.681 494.707, 443.132 491.960, 440.955 489.062 C 432.947 478.405, 431.735 464.074, 437.801 451.753 C 442.890 441.416, 453.836 433.449, 464.619 432.234 C 468.779 431.765, 469.029 431.542, 470.897 426.623 C 471.968 423.805, 474 418.462, 475.413 414.750 L 477.983 408 447.050 408 C 430.038 408, 415.882 408.381, 415.595 408.847 M 463.500 449.503 C 458.267 451.354, 452.437 457.665, 450.987 463.047 C 448.129 473.663, 454.899 484.526, 465.836 486.871 C 482.016 490.341, 495.021 473.543, 487.465 458.933 C 484.449 453.101, 475.909 447.927, 469.500 448.049 C 468.400 448.071, 465.700 448.725, 463.500 449.503" stroke="none" fill="currentColor" fill-rule="evenodd"/>
</svg>