<svg xmlns="http://www.w3.org/2000/svg" width="512" height="512" viewBox="0 0 512 512" version="1.1">
	<path d="M 15.241 1.995 C 8.770 5.940, 8.008 8.562, 8.004 26.882 C 7.999 45.996, 8.946 48.762, 16.660 52.174 L 21 54.094 21 64.646 C 21 78.916, 23.209 83.381, 31.250 85.361 C 33.970 86.031, 34 86.128, 34.024 94.269 C 34.037 98.796, 34.451 104.238, 34.944 106.362 C 35.951 110.704, 40.287 115.783, 43.722 116.645 L 46 117.217 46 256 L 46 394.783 43.722 395.355 C 40.287 396.217, 35.951 401.296, 34.944 405.638 C 34.451 407.762, 34.037 413.204, 34.024 417.731 C 34 425.872, 33.970 425.969, 31.250 426.639 C 23.209 428.619, 21 433.084, 21 447.354 L 21 457.906 16.660 459.826 C 8.946 463.238, 7.999 466.004, 8.004 485.118 C 8.008 503.438, 8.770 506.060, 15.241 510.005 C 18.441 511.957, 20.505 511.993, 130.076 511.996 L 241.651 512 243.826 509.686 C 246.714 506.611, 246.652 501.961, 243.686 499.174 L 241.371 497 132.186 497 L 23 497 23 485.500 L 23 474 256 474 L 489 474 489 485.500 L 489 497 379.674 497 L 270.349 497 268.174 499.314 C 265.286 502.389, 265.348 507.039, 268.314 509.826 L 270.629 512 382.064 511.996 C 491.496 511.993, 493.559 511.957, 496.759 510.005 C 503.230 506.060, 503.992 503.438, 503.996 485.118 C 504.001 466.004, 503.054 463.238, 495.340 459.826 L 491 457.906 491 447.354 C 491 433.084, 488.791 428.619, 480.750 426.639 C 478.030 425.969, 478 425.872, 477.976 417.731 C 477.963 413.204, 477.549 407.762, 477.056 405.638 C 476.049 401.296, 471.713 396.217, 468.278 395.355 L 466 394.783 466 330.526 C 466 267.034, 465.975 266.238, 463.927 263.635 C 461.728 260.839, 457.495 260.130, 454.039 261.979 C 450.189 264.040, 450 267.318, 450 332.149 L 450 395 432.500 395 L 415 395 415 256 L 415 117 432.500 117 L 450 117 450 174.851 C 450 234.510, 450.215 237.974, 454.039 240.021 C 457.495 241.870, 461.728 241.161, 463.927 238.365 C 465.971 235.767, 466 234.908, 466 176.474 L 466 117.217 468.278 116.645 C 471.713 115.783, 476.049 110.704, 477.056 106.362 C 477.549 104.238, 477.963 98.796, 477.976 94.269 C 478 86.128, 478.030 86.031, 480.750 85.361 C 488.791 83.381, 491 78.916, 491 64.646 L 491 54.094 495.340 52.174 C 503.054 48.762, 504.001 45.996, 503.996 26.882 C 503.992 8.562, 503.230 5.940, 496.759 1.995 C 493.666 0.109, 491.662 0.007, 457.500 0.007 C 416.316 0.007, 417.489 -0.222, 412.404 8.823 L 409.608 13.797 398.371 14.153 C 388.941 14.453, 386.690 14.841, 384.378 16.567 C 379.005 20.579, 377.560 23.577, 377.158 31.551 C 376.890 36.846, 376.401 39, 375.467 39 C 372.245 39, 367.676 44.822, 361.999 56.164 C 355.364 69.419, 354.768 72.894, 358.250 78.010 C 362.641 84.462, 364.971 85.433, 377.055 85.847 L 388 86.221 388 97.576 C 388 108.856, 388.020 108.953, 391.111 112.474 C 392.823 114.423, 395.298 116.288, 396.611 116.617 L 399 117.217 399 256 L 399 394.783 396.611 395.383 C 395.298 395.712, 392.823 397.577, 391.111 399.526 C 388.017 403.051, 388 403.130, 388 414.535 L 388 426 374 426 L 360 426 360 415.734 C 360 403.280, 358.479 399.521, 352.218 396.500 L 348.072 394.500 348.036 345.385 C 348.001 296.959, 347.970 296.232, 345.890 293.588 C 344.730 292.112, 338.488 288.253, 332.019 285.009 L 320.257 279.113 319.794 273.535 C 319.179 266.109, 316.439 263.359, 304.353 258.038 C 294.038 253.496, 291.335 253.376, 286.426 257.237 C 280.929 261.561, 281 260.608, 281 330.283 L 281 394.630 277.493 396.302 C 271.474 399.172, 270.008 402.881, 270.004 415.250 L 270 426 256 426 L 242 426 241.996 415.250 C 241.992 402.893, 240.525 399.172, 234.532 396.314 L 231.050 394.653 230.775 321.566 C 230.500 248.481, 230.500 248.478, 228.326 245.046 C 227.131 243.158, 223.756 240.208, 220.826 238.490 L 215.500 235.367 214.996 222.433 C 214.445 208.328, 213.856 206.518, 208.487 202.422 L 205 199.763 205 190.044 L 205 180.326 215.794 172.647 C 221.731 168.423, 227.468 163.512, 228.544 161.734 C 230.285 158.856, 230.535 156.232, 230.821 137.901 L 231.141 117.303 234.578 115.664 C 240.505 112.838, 241.992 109.074, 241.996 96.882 L 242 86.263 249.566 85.777 C 257.537 85.266, 260.523 83.858, 264.261 78.852 C 268.093 73.719, 267.633 69.489, 261.991 58 C 252.519 38.713, 251.433 38, 231.532 38 L 218 38 218 31.734 C 218 23.696, 215.726 19.310, 209.987 16.275 C 206.335 14.344, 204.161 14, 195.593 13.997 L 185.500 13.994 183 9.268 C 181.625 6.669, 178.971 3.520, 177.102 2.271 L 173.704 -0 96.102 0.004 C 20.431 0.007, 18.419 0.057, 15.241 1.995 M 23 26.500 L 23 38 113 38 L 203 38 203 34.086 L 203 30.172 191.570 29.836 C 178.194 29.443, 176.203 28.475, 171.687 20.172 L 168.873 15 95.937 15 L 23 15 23 26.500 M 424.533 18.927 C 422.446 23.555, 418.611 27.453, 414.685 28.936 C 413.137 29.521, 407.624 30, 402.435 30 L 393 30 393 34 L 393 38 441 38 L 489 38 489 26.500 L 489 15 457.652 15 L 426.304 15 424.533 18.927 M 37 62 L 37 70 143.500 70 C 202.075 70, 250 69.782, 250 69.517 C 250 69.251, 248.326 65.651, 246.281 61.517 L 242.561 54 139.781 54 L 37 54 37 62 M 376.719 61.517 C 374.674 65.651, 373 69.251, 373 69.517 C 373 69.782, 395.950 70, 424 70 L 475 70 475 62 L 475 54 427.719 54 L 380.439 54 376.719 61.517 M 50 94 L 50 102 79.500 102 L 109 102 109 94 L 109 86 79.500 86 L 50 86 50 94 M 124 97.465 C 124 108.870, 123.983 108.949, 120.889 112.474 C 119.177 114.423, 116.702 116.288, 115.389 116.617 L 113 117.217 113 256 L 113 394.783 115.389 395.383 C 116.702 395.712, 119.177 397.577, 120.889 399.526 C 123.983 403.051, 124 403.130, 124 414.535 L 124 426 138 426 L 152 426 152 415.734 C 152 403.280, 153.521 399.521, 159.782 396.500 L 163.928 394.500 163.928 256 L 163.928 117.500 159.782 115.500 C 153.521 112.479, 152 108.720, 152 96.266 L 152 86 138 86 L 124 86 124 97.465 M 168 94 L 168 102 197.500 102 L 227 102 227 94 L 227 86 197.500 86 L 168 86 168 94 M 403 94 L 403 102 432.500 102 L 462 102 462 94 L 462 86 432.500 86 L 403 86 403 94 M 62 256 L 62 395 79.500 395 L 97 395 97 256 L 97 117 79.500 117 L 62 117 62 256 M 179 256 L 179 395 197 395 L 215 395 215 324.072 L 215 253.145 208.888 249.432 C 200.431 244.295, 199.051 241.052, 199.022 226.247 L 199 214.995 195.020 211.399 C 189.982 206.847, 189.013 203.312, 189.006 189.462 C 188.998 174.162, 190.191 171.978, 204 162.004 L 214.500 154.420 214.772 135.710 L 215.044 117 197.022 117 L 179 117 179 256 M 297 333.500 L 297 395 315 395 L 333 395 333 348.680 L 333 302.361 321.456 297.023 C 307.456 290.549, 305 288.099, 305 280.608 C 305 275.597, 304.847 275.297, 301.466 273.685 C 299.522 272.758, 297.722 272, 297.466 272 C 297.210 272, 297 299.675, 297 333.500 M 50 418 L 50 426 79.500 426 L 109 426 109 418 L 109 410 79.500 410 L 50 410 50 418 M 168 418 L 168 426 197.500 426 L 227 426 227 418 L 227 410 197.500 410 L 168 410 168 418 M 285 418 L 285 426 314.500 426 L 344 426 344 418 L 344 410 314.500 410 L 285 410 285 418 M 403 418 L 403 426 432.500 426 L 462 426 462 418 L 462 410 432.500 410 L 403 410 403 418 M 37 450 L 37 458 256 458 L 475 458 475 450 L 475 442 256 442 L 37 442 37 450" stroke="none" fill="currentColor" fill-rule="evenodd"/>
</svg>