<svg xmlns="http://www.w3.org/2000/svg" width="512" height="512" viewBox="0 0 512 512" version="1.1">
	<path d="M 361.920 40.949 C 351.165 43.682, 344.233 46.991, 333.300 54.614 C 317.740 65.462, 313.086 65.956, 287.500 59.474 C 269.891 55.012, 260.658 54.195, 252.251 56.353 C 240.348 59.410, 233.278 64.399, 228.556 73.075 C 226.125 77.541, 225.585 80.024, 224.787 90.394 C 223.448 107.783, 223.199 108.418, 213.648 118.781 C 209.052 123.769, 204.342 129.869, 203.181 132.337 C 200.442 138.164, 198.984 147.440, 199.706 154.437 L 200.280 160 193.140 160 C 182.603 160, 182.096 160.672, 179.948 177.500 C 173.963 224.386, 153.916 280.546, 125.530 329.948 C 102.126 370.679, 67.173 414.523, 33.892 444.897 C 16.988 460.325, 16 461.452, 16 465.311 C 16 467.510, 16.791 469.395, 18.314 470.826 L 20.629 473 256.140 473 L 491.651 473 493.826 470.686 C 495.168 469.256, 496 467.085, 496 465.008 C 496 462.035, 494.867 460.599, 486.250 452.647 C 442.475 412.251, 408.677 369.946, 382.275 322.500 C 356.680 276.504, 337.756 221.754, 331.986 177 C 329.891 160.753, 329.316 160, 319 160 C 315.150 160, 312 159.652, 312 159.227 C 312 157.204, 318.402 142.081, 320.629 138.842 C 323.598 134.524, 330.017 131.465, 338 130.564 C 341.025 130.222, 359.038 129.063, 378.028 127.987 C 415.296 125.876, 424.069 124.494, 432.851 119.347 C 447.561 110.727, 454.203 97.149, 450.597 83.072 C 448.440 74.651, 444.816 68.728, 437.047 60.924 C 428.923 52.764, 418.862 46.728, 406.780 42.762 C 398.593 40.075, 395.852 39.676, 383.500 39.370 C 372.138 39.089, 368.071 39.386, 361.920 40.949 M 371.381 56 C 368.566 56.412, 363.373 57.711, 359.840 58.887 C 353.683 60.936, 350.842 62.567, 337.500 71.712 C 327.464 78.591, 324.213 79.506, 310 79.455 C 299.066 79.415, 295.997 78.998, 285.500 76.130 C 278.499 74.217, 269.871 72.616, 264.789 72.289 C 256.820 71.775, 255.627 71.948, 250.781 74.319 C 242.990 78.131, 241.813 80.737, 240.960 96.070 C 240.053 112.373, 238.347 116.311, 226.866 128.608 C 216.506 139.705, 214.371 145.603, 216.627 156.887 L 217.255 160.023 255.734 159.762 L 294.213 159.500 297.586 150.051 C 305.788 127.078, 312.983 119.117, 328.971 115.323 C 332.012 114.601, 350.475 113.103, 370 111.995 C 410.156 109.714, 416.351 108.952, 423.758 105.380 C 431.319 101.735, 434.500 97.165, 434.500 89.949 C 434.500 84.954, 434.016 83.540, 430.612 78.598 C 419.319 62.201, 394.274 52.645, 371.381 56 M 197 176.921 C 197 179.811, 191.668 208.604, 189.527 217.274 C 188.138 222.898, 187.002 227.773, 187.001 228.108 C 187 228.442, 189.662 228.993, 192.916 229.333 C 209.085 231.023, 220.176 239.284, 224.690 253 C 226.192 257.565, 226.501 261.901, 226.505 278.500 C 226.509 297.333, 226.641 298.747, 228.764 302.729 C 232.803 310.303, 240.538 311.935, 245.085 306.173 C 247.877 302.635, 247.269 298.356, 242.009 284.525 C 235.245 266.735, 235.549 256.202, 243.074 247.653 C 247.862 242.213, 253.573 239.787, 261.509 239.822 C 270.159 239.859, 277.018 242.854, 288.500 251.608 C 299.910 260.308, 303.260 262, 309.073 262 C 315.198 262, 332.753 252.423, 331.702 249.654 C 326.720 236.527, 317.903 199.028, 315.502 180.750 L 314.877 176 255.939 176 C 220.705 176, 197 176.370, 197 176.921 M 179.583 251.750 C 175.926 263.549, 164.538 291.051, 156.498 307.500 C 132.345 356.916, 102.517 398.865, 62.121 440.229 L 45.742 457 256.029 457 L 466.316 457 451.379 441.750 C 402.750 392.105, 366.393 337.679, 342.489 278.740 L 337.720 266.981 334.610 269.061 C 332.899 270.205, 328.125 272.797, 324 274.821 C 317.230 278.142, 315.721 278.497, 308.500 278.472 C 298.733 278.438, 293.138 275.944, 279.540 265.563 C 266.836 255.864, 261.306 253.996, 256.098 257.644 C 253.931 259.162, 253.792 259.792, 254.284 265.894 C 254.640 270.311, 256.057 275.482, 258.561 281.500 C 261.539 288.659, 262.402 292.185, 262.777 298.735 C 263.202 306.150, 262.985 307.510, 260.600 312.385 C 255.198 323.426, 242.380 328.591, 229.764 324.811 C 223.814 323.029, 216.811 316.170, 213.416 308.800 C 210.563 302.608, 210.504 302.123, 209.964 280.500 C 209.648 267.865, 208.944 257.436, 208.308 256 C 206.761 252.507, 202.127 248.482, 198.101 247.136 C 196.231 246.511, 191.701 246, 188.033 246 L 181.365 246 179.583 251.750" stroke="none" fill="currentColor" fill-rule="evenodd"/>
</svg>